SplineFontDB: 3.2
FontName: ChessCancunC2
FullName: ChessCancunC2 Regular
FamilyName: ChessCancunC2
Weight: Regular

StartChar: .notdef
Encoding: 65536 -1 0
Width: 1090
GlyphClass: 1
Flags: W
LayerCount: 2
Fore
SplineSet
-39 -250 m 1,0,-1
 -39 950 l 1,1,-1
 371 950 l 1,2,-1
 371 -250 l 1,3,-1
 -39 -250 l 1,0,-1
12 -199 m 1,4,-1
 320 -199 l 1,5,-1
 320 899 l 1,6,-1
 12 899 l 1,7,-1
 12 -199 l 1,4,-1
EndSplineSet
EndChar

StartChar: A
Encoding: 65 65 2
Width: 1090
GlyphClass: 1
Flags: W
LayerCount: 2
Fore
SplineSet
360 -124 m 2,0,-1
 359 -126 l 1,1,-1
 693 -126 l 1,2,-1
 1027 -126 l 1,3,-1
 1027 -123 l 2,4,5
 1027 -117 1027 -117 1026 -97 c 128,-1,6
 1025 -77 1025 -77 1023.5 -56 c 128,-1,7
 1022 -35 1022 -35 1021 -26 c 0,8,9
 1013 47 1013 47 992 111 c 0,10,11
 989 119 989 119 984.5 132 c 128,-1,12
 980 145 980 145 977 150 c 0,13,14
 976 154 976 154 976 154 c 257,15,16
 976 154 976 154 974 158 c 256,17,18
 972 162 972 162 971 164 c 0,19,20
 969 168 969 168 963 180 c 128,-1,21
 957 192 957 192 955 196 c 0,22,23
 952 201 952 201 950 205 c 256,24,25
 948 209 948 209 945 214 c 0,26,27
 937 227 937 227 936 229 c 0,28,29
 922 249 922 249 920 253 c 0,30,31
 918 255 918 255 914 260.5 c 128,-1,32
 910 266 910 266 909 267 c 0,33,34
 909 268 909 268 906 271 c 0,35,36
 903 275 903 275 902 277 c 0,37,38
 900 279 900 279 900 279 c 2,39,40
 899 280 899 280 897 282 c 0,41,42
 896 285 896 285 895 286 c 0,43,44
 894 286 894 286 893 288 c 0,45,46
 891 290 891 290 886 296 c 0,47,48
 885 297 885 297 880 303 c 0,49,50
 877 306 877 306 866.5 316.5 c 128,-1,51
 856 327 856 327 851 332 c 0,52,53
 849 334 849 334 839.5 341.5 c 128,-1,54
 830 349 830 349 829 351 c 0,55,56
 827 351 827 351 820 357 c 0,57,58
 813 362 813 362 811 363.5 c 128,-1,59
 809 365 809 365 801 371 c 0,60,61
 793 376 793 376 787.5 379.5 c 128,-1,62
 782 383 782 383 781 383 c 2,63,64
 781 383 781 383 780 384 c 0,65,66
 779 384 779 384 776 386 c 0,67,68
 774 387 774 387 771 389 c 0,69,70
 765 392 765 392 758 396 c 0,71,72
 754 398 754 398 754 398.5 c 128,-1,73
 754 399 754 399 757 403 c 0,74,75
 774 426 774 426 779 452 c 0,76,77
 784 476 784 476 783 493.5 c 128,-1,78
 782 511 782 511 775 533 c 0,79,80
 764 567 764 567 750 582 c 0,81,82
 750 583 750 583 748 585 c 0,83,84
 746 588 746 588 738 595.5 c 128,-1,85
 730 603 730 603 727 606 c 0,86,87
 718 612 718 612 716 614 c 0,88,89
 714 615 714 615 713 616 c 256,90,91
 712 617 712 617 712 617 c 2,92,93
 711 617 711 617 707 620 c 0,94,95
 702 624 702 624 702 624 c 2,96,97
 701 624 701 624 699 625 c 0,98,99
 697 627 697 627 697 627 c 257,100,101
 697 627 697 627 694 628 c 0,102,103
 692 630 692 630 687 633 c 256,104,105
 682 636 682 636 680 637 c 0,106,107
 678 639 678 639 677 639 c 0,108,109
 676 640 676 640 670 644 c 128,-1,110
 664 648 664 648 660 651 c 256,111,112
 656 654 656 654 651 657 c 0,113,114
 646 661 646 661 645 661 c 0,115,116
 644 662 644 662 644 662 c 2,117,118
 643 662 643 662 642 664 c 0,119,120
 640 665 640 665 640 665 c 2,121,122
 639 665 639 665 637 667 c 0,123,124
 635 668 635 668 633 670 c 0,125,126
 631 671 631 671 629 673 c 0,127,128
 626 675 626 675 624 677 c 0,129,130
 622 678 622 678 618 681 c 256,131,132
 614 684 614 684 612 686 c 256,133,134
 610 688 610 688 602 694.5 c 128,-1,135
 594 701 594 701 593 702 c 0,136,137
 591 704 591 704 589 706 c 0,138,139
 587 707 587 707 580.5 713 c 128,-1,140
 574 719 574 719 569 724 c 2,141,-1
 565 728 l 1,142,-1
 570 731 l 2,143,144
 575 734 575 734 584 739 c 0,145,146
 590 744 590 744 597 752 c 0,147,148
 609 769 609 769 608 791 c 0,149,150
 607 801 607 801 605 808 c 0,151,152
 602 817 602 817 597 823 c 0,153,154
 596 824 596 824 595 826 c 0,155,156
 591 830 591 830 584 837 c 0,157,158
 570 848 570 848 552 853 c 0,159,160
 543 855 543 855 528.5 855 c 128,-1,161
 514 855 514 855 505 853 c 0,162,163
 500 852 500 852 500 852 c 2,164,165
 498 852 498 852 490 848 c 128,-1,166
 482 844 482 844 482 843 c 0,167,168
 481 842 481 842 480 842 c 2,169,170
 480 842 480 842 476 839 c 0,171,172
 456 824 456 824 451 804 c 0,173,174
 449 798 449 798 449 789 c 0,175,176
 449 775 449 775 453 764 c 0,177,178
 458 752 458 752 472 741 c 0,179,180
 477 736 477 736 478 736 c 256,181,182
 479 736 479 736 479 735 c 0,183,184
 480 734 480 734 486 731 c 2,185,-1
 492 728 l 1,186,-1
 489 725 l 2,187,188
 487 723 487 723 480.5 717.5 c 128,-1,189
 474 712 474 712 470 707 c 0,190,191
 466 704 466 704 456 695.5 c 128,-1,192
 446 687 446 687 446 687 c 257,193,194
 446 687 446 687 442 684 c 256,195,196
 438 681 438 681 438 681 c 257,197,198
 438 681 438 681 435 679 c 0,199,200
 430 675 430 675 426 672 c 0,201,202
 424 671 424 671 422 669 c 0,203,204
 419 667 419 667 414 664 c 0,205,206
 410 660 410 660 409 660 c 1,207,208
 409 659 409 659 408 659 c 0,209,210
 406 658 406 658 403 656 c 0,211,212
 399 653 399 653 398 652 c 0,213,214
 397 652 397 652 396 651 c 0,215,216
 395 649 395 649 394 649 c 2,217,218
 394 649 394 649 391 648 c 0,219,220
 389 646 389 646 388 646 c 0,221,222
 387 645 387 645 380 640 c 0,223,224
 372 634 372 634 370 633 c 256,225,226
 368 632 368 632 367 631 c 256,227,228
 366 630 366 630 365 630 c 2,229,230
 365 630 365 630 360 627 c 0,231,232
 356 624 356 624 355 624 c 2,233,234
 355 624 355 624 351 621 c 0,235,236
 346 617 346 617 345 617 c 0,237,238
 324 603 324 603 308 584 c 0,239,240
 297 572 297 572 291 560 c 0,241,242
 288 552 288 552 283.5 540.5 c 128,-1,243
 279 529 279 529 278 523 c 0,244,245
 277 519 277 519 277 519 c 257,246,247
 277 519 277 519 272 521 c 0,248,249
 268 523 268 523 266 524 c 0,250,251
 263 525 263 525 262 525 c 0,252,253
 261 526 261 526 258 527 c 0,254,255
 254 529 254 529 249 530 c 0,256,257
 244 532 244 532 241 533 c 0,258,259
 239 534 239 534 235 535 c 0,260,261
 232 537 232 537 231 537 c 256,262,263
 230 537 230 537 228 538 c 0,264,265
 225 539 225 539 220 540 c 2,266,-1
 215 542 l 1,267,-1
 214 538 l 1,268,269
 211 494 211 494 221 450 c 0,270,271
 227 426 227 426 236 402 c 2,272,-1
 239 393 l 1,273,-1
 238 391 l 2,274,275
 236 389 236 389 232 386 c 0,276,277
 229 383 229 383 218.5 373 c 128,-1,278
 208 363 208 363 204 359 c 0,279,280
 197 351 197 351 195 347 c 0,281,282
 194 346 194 346 191 342 c 0,283,284
 188 339 188 339 187 337 c 0,285,286
 186 336 186 336 185 335 c 0,287,288
 185 334 185 334 182 329 c 0,289,290
 176 320 176 320 173 311 c 0,291,292
 171 305 171 305 169 291 c 128,-1,293
 167 277 167 277 167 269 c 0,294,295
 167 256 167 256 157 236 c 0,296,297
 151 222 151 222 141 209 c 0,298,299
 135 199 135 199 133 196 c 0,300,301
 132 195 132 195 129 191 c 256,302,303
 126 187 126 187 125 186 c 256,304,305
 124 185 124 185 123 184 c 0,306,307
 122 182 122 182 119 178 c 0,308,309
 116 175 116 175 115 173 c 0,310,311
 114 172 114 172 113 171 c 256,312,313
 112 170 112 170 110 167 c 0,314,315
 108 165 108 165 107 165 c 1,316,317
 107 164 107 164 103 160 c 0,318,319
 99 155 99 155 98 154 c 0,320,321
 98 153 98 153 94 150 c 0,322,323
 91 146 91 146 90 145 c 256,324,325
 89 144 89 144 86 140 c 0,326,327
 82 136 82 136 81 135 c 0,328,329
 77 130 77 130 75 127 c 0,330,331
 74 126 74 126 74 125 c 1,332,333
 73 125 73 125 71 123 c 0,334,335
 69 119 69 119 64 113 c 0,336,337
 64 112 64 112 61 109 c 0,338,339
 59 106 59 106 59 106 c 257,340,341
 59 106 59 106 54 99 c 0,342,343
 36 72 36 72 32 50 c 0,344,345
 30 44 30 44 30 32 c 0,346,347
 30 -10 30 -10 48 -37 c 0,348,349
 55 -47 55 -47 65 -58 c 0,350,351
 77 -70 77 -70 78 -70 c 256,352,353
 79 -70 79 -70 81 -71 c 0,354,355
 82 -73 82 -73 83 -73 c 2,356,357
 83 -73 83 -73 85 -74 c 0,358,359
 87 -76 87 -76 93 -79 c 0,360,361
 94 -79 94 -79 96 -80 c 0,362,363
 103 -84 103 -84 120 -90 c 2,364,-1
 126 -92 l 1,365,-1
 135 -92 l 2,366,367
 143 -91 143 -91 154 -89.5 c 128,-1,368
 165 -88 165 -88 168 -87 c 0,369,370
 169 -87 169 -87 171 -89 c 0,371,372
 174 -93 174 -93 177 -96 c 0,373,374
 178 -98 178 -98 182.5 -101.5 c 128,-1,375
 187 -105 187 -105 187 -105 c 2,376,377
 188 -105 188 -105 189 -106 c 0,378,379
 195 -110 195 -110 206 -112 c 0,380,381
 212 -114 212 -114 220 -113 c 0,382,383
 243 -112 243 -112 255 -100 c 0,384,385
 262 -93 262 -93 270 -81 c 0,386,387
 271 -79 271 -79 272.5 -77 c 128,-1,388
 274 -75 274 -75 275 -73 c 0,389,390
 277 -70 277 -70 280 -66 c 0,391,392
 283 -61 283 -61 288 -53 c 128,-1,393
 293 -45 293 -45 293 -45 c 2,394,395
 294 -44 294 -44 296 -41 c 256,396,397
 298 -38 298 -38 298 -38 c 2,398,399
 299 -38 299 -38 301 -35 c 256,400,401
 303 -32 303 -32 304 -31 c 0,402,403
 318 -15 318 -15 334 -1 c 0,404,405
 344 7 344 7 344 7 c 2,406,407
 345 7 345 7 347 9 c 0,408,409
 348 11 348 11 349 11 c 2,410,411
 349 11 349 11 351 12 c 0,412,413
 352 13 352 13 353 14 c 256,414,415
 354 15 354 15 358 17 c 0,416,417
 361 19 361 19 362 20 c 0,418,419
 363 20 363 20 365 22 c 0,420,421
 366 23 366 23 369.5 25 c 128,-1,422
 373 27 373 27 373 27 c 257,423,424
 373 27 373 27 377 29 c 0,425,426
 383 33 383 33 397.5 40 c 128,-1,427
 412 47 412 47 420 51 c 0,428,429
 424 52 424 52 427 54 c 0,430,431
 432 56 432 56 448 61.5 c 128,-1,432
 464 67 464 67 467 68 c 0,433,434
 472 69 472 69 484 74 c 128,-1,435
 496 79 496 79 502 82 c 0,436,437
 503 82 503 82 506 84 c 0,438,439
 514 88 514 88 516 90 c 0,440,441
 518 91 518 91 518 91 c 2,442,443
 519 91 519 91 521 92 c 0,444,445
 522 94 522 94 523 94 c 2,446,447
 523 94 523 94 525 95 c 2,448,-1
 526 96 l 1,449,-1
 526 93 l 2,450,451
 527 67 527 67 515 37 c 0,452,453
 513 31 513 31 508 21.5 c 128,-1,454
 503 12 503 12 502 10 c 0,455,456
 501 9 501 9 498 5 c 0,457,458
 491 -5 491 -5 480 -17 c 0,459,460
 474 -22 474 -22 468.5 -27.5 c 128,-1,461
 463 -33 463 -33 448 -45 c 0,462,463
 441 -52 441 -52 440 -53 c 256,464,465
 439 -54 439 -54 431 -61 c 0,466,467
 423 -67 423 -67 422 -69 c 0,468,469
 420 -70 420 -70 412 -77 c 256,470,471
 404 -84 404 -84 403 -85 c 256,472,473
 402 -86 402 -86 394 -92 c 0,474,475
 386 -99 386 -99 383 -102 c 0,476,477
 381 -105 381 -105 376 -108 c 0,478,479
 373 -111 373 -111 367.5 -116.5 c 128,-1,480
 362 -122 362 -122 360 -124 c 2,0,-1
960 -61 m 2,481,-1
 960 -100 l 1,482,-1
 700 -100 l 2,483,484
 628 -100 628 -100 569 -100 c 128,-1,485
 510 -100 510 -100 474.5 -100 c 128,-1,486
 439 -100 439 -100 439 -100 c 1,487,488
 439 -99 439 -99 442 -97 c 128,-1,489
 445 -95 445 -95 446 -94 c 256,490,491
 447 -93 447 -93 455 -87 c 256,492,493
 463 -81 463 -81 467 -78 c 0,494,495
 470 -76 470 -76 474 -74 c 0,496,497
 476 -72 476 -72 476 -72 c 2,498,499
 477 -72 477 -72 479 -70 c 256,500,501
 481 -68 481 -68 485 -65 c 0,502,503
 522 -36 522 -36 538 -13 c 0,504,505
 542 -7 542 -7 544 -3.5 c 128,-1,506
 546 0 546 0 550 9 c 0,507,508
 564 36 564 36 568 61 c 0,509,510
 570 69 570 69 570 83 c 0,511,512
 570 106 570 106 564 125 c 0,513,514
 562 130 562 130 565 133 c 0,515,516
 565 134 565 134 569 139 c 0,517,518
 597 178 597 178 599 224 c 0,519,520
 600 232 600 232 599 235 c 0,521,522
 594 249 594 249 575 248 c 0,523,524
 561 247 561 247 559 241 c 0,525,526
 557 239 557 239 558 229 c 0,527,528
 560 207 560 207 554 189 c 0,529,530
 550 179 550 179 543 168 c 0,531,532
 541 165 541 165 537 159.5 c 128,-1,533
 533 154 533 154 532 153 c 0,534,535
 532 152 532 152 529 149 c 0,536,537
 523 141 523 141 512.5 132.5 c 128,-1,538
 502 124 502 124 498 121 c 0,539,540
 497 121 497 121 494 119 c 0,541,542
 482 111 482 111 465 104 c 0,543,544
 449 98 449 98 444 96 c 0,545,546
 435 93 435 93 430 91 c 0,547,548
 427 90 427 90 424 89 c 0,549,550
 422 88 422 88 416 86 c 256,551,552
 410 84 410 84 408 83 c 256,553,554
 406 82 406 82 395 78 c 0,555,556
 386 74 386 74 371 65 c 0,557,558
 362 60 362 60 357 57 c 0,559,560
 353 55 353 55 352 54 c 0,561,562
 351 54 351 54 345 50 c 128,-1,563
 339 46 339 46 338 44 c 0,564,565
 336 43 336 43 334 42 c 256,566,567
 332 41 332 41 322 33 c 0,568,569
 318 30 318 30 309 23 c 0,570,571
 306 20 306 20 297.5 12 c 128,-1,572
 289 4 289 4 286 1 c 0,573,574
 283 -3 283 -3 282 -4 c 0,575,576
 281 -6 281 -6 279 -7 c 0,577,578
 278 -9 278 -9 277 -10 c 0,579,580
 277 -11 277 -11 273 -17 c 0,581,582
 268 -22 268 -22 268 -23 c 0,583,584
 267 -24 267 -24 265 -28 c 0,585,586
 262 -32 262 -32 261 -33 c 2,587,588
 261 -33 261 -33 260 -34 c 0,589,590
 259 -36 259 -36 259 -36 c 2,591,592
 258 -38 258 -38 254 -44.5 c 128,-1,593
 250 -51 250 -51 245 -59 c 0,594,595
 238 -70 238 -70 236 -73 c 128,-1,596
 234 -76 234 -76 231 -80 c 0,597,598
 218 -92 218 -92 208 -88 c 0,599,600
 203 -86 203 -86 200 -78 c 0,601,602
 197 -72 197 -72 200 -69 c 256,603,604
 203 -66 203 -66 204 -65 c 0,605,606
 205 -63 205 -63 207 -62 c 0,607,608
 208 -60 208 -60 210 -58 c 0,609,610
 211 -56 211 -56 212 -56 c 1,611,612
 212 -55 212 -55 217 -47 c 128,-1,613
 222 -39 222 -39 222 -39 c 257,614,615
 222 -39 222 -39 225 -32 c 0,616,617
 231 -17 231 -17 231 -14 c 0,618,619
 229 -5 229 -5 222 -3 c 0,620,621
 218 -2 218 -2 216 -2 c 0,622,623
 211 -2 211 -2 205 -8 c 0,624,625
 198 -15 198 -15 190 -29 c 0,626,627
 186 -37 186 -37 184 -40 c 0,628,629
 183 -40 183 -40 182 -41 c 0,630,631
 179 -46 179 -46 171 -50 c 0,632,633
 161 -54 161 -54 153 -55 c 0,634,635
 136 -58 136 -58 124 -53 c 0,636,637
 109 -47 109 -47 100 -39 c 0,638,639
 96 -36 96 -36 96 -36 c 2,640,641
 95 -36 95 -36 90 -31 c 128,-1,642
 85 -26 85 -26 83 -23 c 0,643,644
 75 -12 75 -12 71 5 c 256,645,646
 67 22 67 22 70 37 c 0,647,648
 71 41 71 41 73.5 50 c 128,-1,649
 76 59 76 59 78 62 c 0,650,651
 82 71 82 71 85 76 c 0,652,653
 89 84 89 84 91 86 c 0,654,655
 92 87 92 87 93 89 c 0,656,657
 95 91 95 91 96 92 c 0,658,659
 97 94 97 94 98.5 95.5 c 128,-1,660
 100 97 100 97 106 105 c 0,661,662
 113 114 113 114 114 115 c 256,663,664
 115 116 115 116 120 122 c 0,665,666
 125 129 125 129 126 131 c 0,667,668
 129 134 129 134 133 140 c 0,669,670
 137 145 137 145 139 146 c 0,671,672
 140 148 140 148 144 153 c 0,673,674
 147 158 147 158 150 161 c 0,675,676
 153 165 153 165 154 166 c 0,677,678
 154 167 154 167 156 169 c 0,679,680
 157 170 157 170 159 174 c 0,681,682
 162 177 162 177 167 184 c 256,683,684
 172 191 172 191 173 191 c 1,685,686
 173 192 173 192 175 195 c 256,687,688
 177 198 177 198 178 198 c 1,689,690
 177 198 177 198 180 201 c 0,691,692
 182 204 182 204 182 204 c 2,693,694
 183 205 183 205 186.5 210.5 c 128,-1,695
 190 216 190 216 191 218 c 0,696,697
 201 235 201 235 206 255 c 0,698,699
 207 259 207 259 207 261 c 128,-1,700
 207 263 207 263 206 271 c 0,701,702
 205 281 205 281 206 285 c 0,703,704
 207 293 207 293 211 300 c 0,705,706
 212 303 212 303 214 307 c 0,707,708
 216 310 216 310 222 319.5 c 128,-1,709
 228 329 228 329 234 336 c 0,710,711
 240 345 240 345 250 354 c 0,712,713
 254 357 254 357 254 358 c 0,714,715
 254 361 254 361 257 356 c 0,716,717
 266 340 266 340 274 335 c 0,718,719
 277 333 277 333 281 333 c 0,720,721
 286 333 286 333 291 335 c 0,722,723
 305 342 305 342 303 351 c 0,724,725
 302 357 302 357 300 359 c 2,726,727
 300 359 300 359 296.5 364.5 c 128,-1,728
 293 370 293 370 291 374 c 0,729,730
 289 377 289 377 284.5 386.5 c 128,-1,731
 280 396 280 396 280 396 c 257,732,733
 280 396 280 396 279 399 c 0,734,735
 277 403 277 403 277 403 c 257,736,737
 277 403 277 403 276 406 c 0,738,739
 272 414 272 414 267.5 428.5 c 128,-1,740
 263 443 263 443 261 455 c 0,741,742
 258 466 258 466 256.5 477.5 c 128,-1,743
 255 489 255 489 255 490 c 1,744,745
 255 490 255 490 259 489 c 0,746,747
 263 487 263 487 266 486 c 0,748,749
 271 483 271 483 282 478 c 0,750,751
 297 471 297 471 313 461 c 0,752,753
 316 459 316 459 317 459 c 0,754,755
 318 458 318 458 320 457 c 0,756,757
 331 449 331 449 332 449 c 0,758,759
 333 448 333 448 337 445 c 0,760,761
 341 443 341 443 342 442 c 0,762,763
 343 442 343 442 344 440 c 0,764,765
 345 439 345 439 347 438 c 0,766,767
 352 435 352 435 358 429 c 0,768,769
 362 426 362 426 365 424 c 0,770,771
 369 421 369 421 369 419 c 2,772,773
 369 419 369 419 367 418 c 0,774,775
 358 414 358 414 352 412 c 0,776,777
 348 410 348 410 344 409 c 0,778,779
 341 407 341 407 337 406 c 0,780,781
 322 399 322 399 320 394 c 0,782,783
 316 387 316 387 325 377 c 0,784,785
 329 372 329 372 335 371 c 0,786,787
 340 371 340 371 352 376 c 0,788,789
 365 382 365 382 371 384 c 0,790,791
 387 390 387 390 389 390 c 0,792,793
 392 391 392 391 395 392 c 0,794,795
 401 394 401 394 400 392 c 0,796,797
 398 387 398 387 400 381 c 0,798,799
 403 376 403 376 409 373 c 0,800,801
 412 371 412 371 420 371 c 256,802,803
 428 371 428 371 431 373 c 0,804,805
 436 376 436 376 438 381 c 0,806,807
 438 382 438 382 439 390 c 0,808,809
 442 418 442 418 456 443 c 0,810,811
 460 448 460 448 460 448 c 2,812,813
 460 449 460 449 462 452 c 0,814,815
 467 459 467 459 476 468.5 c 128,-1,816
 485 478 485 478 487 478 c 256,817,818
 489 478 489 478 502 465 c 0,819,820
 512 455 512 455 520 443 c 0,821,822
 523 439 523 439 529 428 c 0,823,824
 533 420 533 420 537 407 c 0,825,826
 541 392 541 392 542 372 c 0,827,828
 542 362 542 362 542.5 359 c 128,-1,829
 543 356 543 356 546 354 c 0,830,831
 556 344 556 344 571 351 c 0,832,833
 578 354 578 354 580 359 c 128,-1,834
 582 364 582 364 581 378 c 0,835,836
 581 394 581 394 578 408 c 0,837,838
 577 414 577 414 577 414 c 2,839,840
 577 415 577 415 586.5 413 c 128,-1,841
 596 411 596 411 607.5 408.5 c 128,-1,842
 619 406 619 406 625 405 c 0,843,844
 630 403 630 403 631 403 c 256,845,846
 632 403 632 403 649 398 c 0,847,848
 665 393 665 393 680 387 c 0,849,850
 685 386 685 386 688 384 c 0,851,852
 709 376 709 376 736 362 c 0,853,854
 746 356 746 356 753 352 c 0,855,856
 761 347 761 347 763 346 c 256,857,858
 765 345 765 345 766 344 c 0,859,860
 768 343 768 343 770 341 c 0,861,862
 772 340 772 340 773 339 c 0,863,864
 779 335 779 335 783 332 c 0,865,866
 785 331 785 331 787 330 c 0,867,868
 788 329 788 329 790.5 327 c 128,-1,869
 793 325 793 325 800 319 c 0,870,871
 816 306 816 306 832 289 c 0,872,873
 836 285 836 285 846 272.5 c 128,-1,874
 856 260 856 260 858 257 c 0,875,876
 859 255 859 255 862 252 c 0,877,878
 864 248 864 248 870 240 c 0,879,880
 876 231 876 231 877 230 c 0,881,882
 878 227 878 227 884 217 c 128,-1,883
 890 207 890 207 893 201 c 0,884,885
 903 184 903 184 910 168 c 0,886,887
 912 162 912 162 913 160 c 0,888,889
 922 141 922 141 931 113 c 0,890,891
 950 58 950 58 956 11 c 0,892,893
 959 -7 959 -7 959.5 -18 c 128,-1,894
 960 -29 960 -29 960 -61 c 2,481,-1
112 5 m 0,895,896
 120 2 120 2 129 5 c 0,897,898
 141 7 141 7 142 20 c 0,899,900
 143 27 143 27 147 31 c 0,901,902
 147 32 147 32 149 35 c 0,903,904
 154 41 154 41 161 44 c 0,905,906
 164 45 164 45 167 49 c 0,907,908
 173 54 173 54 171 60 c 0,909,910
 168 69 168 69 159 73 c 0,911,912
 153 75 153 75 149 75 c 0,913,914
 145 74 145 74 141.5 72 c 128,-1,915
 138 70 138 70 128 64 c 0,916,917
 122 60 122 60 115 51 c 0,918,919
 107 40 107 40 104 25 c 0,920,921
 103 17 103 17 104 13 c 0,922,923
 106 7 106 7 112 5 c 0,895,896
253 218 m 0,924,925
 262 215 262 215 269 219 c 0,926,927
 273 222 273 222 276 227 c 0,928,929
 278 230 278 230 281 235 c 128,-1,930
 284 240 284 240 284 240 c 2,931,932
 285 240 285 240 287 238 c 0,933,934
 290 237 290 237 295 235 c 0,935,936
 301 234 301 234 309 234 c 0,937,938
 318 234 318 234 322 235 c 0,939,940
 333 239 333 239 339 249 c 0,941,942
 347 265 347 265 339 278 c 2,943,-1
 337 281 l 1,944,-1
 341 283 l 2,945,946
 345 285 345 285 348 286 c 0,947,948
 363 292 363 292 362 302 c 0,949,950
 361 314 361 314 350 318 c 0,951,952
 341 322 341 322 325 315 c 0,953,954
 322 314 322 314 317 312 c 0,955,956
 311 310 311 310 302.5 305.5 c 128,-1,957
 294 301 294 301 291 299 c 0,958,959
 287 297 287 297 285 295 c 0,960,961
 281 293 281 293 272.5 285 c 128,-1,962
 264 277 264 277 260 273 c 0,963,964
 258 271 258 271 257 269 c 0,965,966
 255 267 255 267 250 260 c 256,967,968
 245 253 245 253 241 244 c 0,969,970
 238 239 238 239 238 235 c 0,971,972
 238 229 238 229 242 224 c 0,973,974
 246 220 246 220 253 218 c 0,924,925
717 416 m 0,975,976
 716 415 716 415 715 416 c 0,977,978
 714 416 714 416 711 417 c 256,979,980
 708 418 708 418 703 420 c 0,981,982
 692 424 692 424 679 428 c 0,983,984
 669 431 669 431 665.5 432 c 128,-1,985
 662 433 662 433 662 433 c 2,986,987
 661 433 661 433 656 435 c 0,988,989
 645 438 645 438 624.5 441.5 c 128,-1,990
 604 445 604 445 593 446 c 0,991,992
 586 447 586 447 578 447 c 0,993,994
 570 448 570 448 565 449 c 0,995,996
 560 449 560 449 560 450 c 256,997,998
 560 451 560 451 555.5 457.5 c 128,-1,999
 551 464 551 464 550 465 c 0,1000,1001
 549 465 549 465 549 468.5 c 128,-1,1002
 549 472 549 472 549 484 c 2,1003,-1
 549 502 l 1,1004,-1
 578 502 l 1,1005,-1
 608 503 l 1,1006,-1
 611 505 l 2,1007,1008
 615 507 615 507 615 507 c 257,1009,1010
 615 507 615 507 616 509 c 0,1011,1012
 619 512 619 512 619 519 c 0,1013,1014
 619 530 619 530 609 534 c 2,1015,-1
 606 535 l 1,1016,-1
 577 536 l 1,1017,-1
 549 536 l 1,1018,-1
 549 560 l 1,1019,-1
 549 583 l 1,1020,-1
 547 587 l 2,1021,1022
 543 595 543 595 529 595 c 0,1023,1024
 514 595 514 595 509 586 c 2,1025,-1
 508 583 l 1,1026,-1
 508 560 l 1,1027,-1
 507 536 l 1,1028,-1
 480 536 l 1,1029,-1
 452 535 l 1,1030,-1
 448 534 l 2,1031,1032
 440 530 440 530 439 521 c 0,1033,1034
 438 504 438 504 454 503 c 0,1035,1036
 458 502 458 502 458 502 c 2,1037,1038
 458 501 458 501 456 500 c 0,1039,1040
 453 498 453 498 446 490 c 128,-1,1041
 439 482 439 482 437 479 c 0,1042,1043
 435 477 435 477 433 475 c 2,1044,1045
 433 475 433 475 428.5 468 c 128,-1,1046
 424 461 424 461 423 459 c 0,1047,1048
 418 451 418 451 413 439 c 0,1049,1050
 411 433 411 433 410 432 c 2,1051,1052
 410 432 410 432 406 435 c 0,1053,1054
 402 439 402 439 398 443 c 0,1055,1056
 393 447 393 447 392 448 c 256,1057,1058
 391 449 391 449 391 449 c 2,1059,1060
 390 449 390 449 384 454 c 0,1061,1062
 371 465 371 465 370 465 c 2,1063,1064
 370 465 370 465 368 467 c 0,1065,1066
 367 468 367 468 366 468 c 256,1067,1068
 365 468 365 468 364 470 c 0,1069,1070
 363 471 363 471 362 471 c 0,1071,1072
 361 472 361 472 357 474 c 0,1073,1074
 354 477 354 477 353 477 c 0,1075,1076
 352 478 352 478 350 479 c 0,1077,1078
 348 481 348 481 347 481 c 0,1079,1080
 345 483 345 483 335 489 c 0,1081,1082
 330 492 330 492 327 494 c 0,1083,1084
 315 500 315 500 315 501 c 256,1085,1086
 315 502 315 502 316 508 c 128,-1,1087
 317 514 317 514 318 517 c 0,1088,1089
 324 539 324 539 335 555 c 0,1090,1091
 339 561 339 561 339 561 c 2,1092,1093
 340 561 340 561 341 563 c 0,1094,1095
 343 566 343 566 349 572 c 128,-1,1096
 355 578 355 578 359 582 c 0,1097,1098
 368 589 368 589 381 598 c 0,1099,1100
 383 599 383 599 385 601 c 0,1101,1102
 386 602 386 602 387 603 c 0,1103,1104
 394 607 394 607 399 611 c 0,1105,1106
 401 612 401 612 401 612 c 2,1107,1108
 402 612 402 612 403 614 c 0,1109,1110
 404 615 404 615 405 616 c 0,1111,1112
 407 616 407 616 412 620 c 0,1113,1114
 418 624 418 624 419 625 c 0,1115,1116
 422 627 422 627 430 633 c 0,1117,1118
 435 637 435 637 437 638 c 256,1119,1120
 439 639 439 639 441 641 c 0,1121,1122
 446 644 446 644 450 647 c 0,1123,1124
 452 648 452 648 459 654 c 0,1125,1126
 466 659 466 659 468 660 c 0,1127,1128
 474 665 474 665 480 670 c 0,1129,1130
 484 673 484 673 484 673 c 2,1131,1132
 485 673 485 673 494.5 681 c 128,-1,1133
 504 689 504 689 505 691 c 0,1134,1135
 506 692 506 692 509 694 c 0,1136,1137
 513 697 513 697 524 708 c 0,1138,1139
 528 711 528 711 529 711 c 2,1140,1141
 529 711 529 711 532 709 c 0,1142,1143
 541 700 541 700 560 684 c 128,-1,1144
 579 668 579 668 588 660 c 0,1145,1146
 607 647 607 647 611 644 c 0,1147,1148
 613 643 613 643 615 641 c 0,1149,1150
 618 639 618 639 619 638 c 0,1151,1152
 625 635 625 635 630 631 c 0,1153,1154
 633 628 633 628 637 625 c 0,1155,1156
 646 619 646 619 649 617 c 0,1157,1158
 651 616 651 616 652 615 c 0,1159,1160
 654 614 654 614 660 609 c 0,1161,1162
 663 607 663 607 664 606 c 0,1163,1164
 666 605 666 605 672 601 c 0,1165,1166
 679 596 679 596 682 594 c 0,1167,1168
 693 586 693 586 706 574 c 0,1169,1170
 721 558 721 558 730 540 c 0,1171,1172
 744 511 744 511 743 486 c 0,1173,1174
 742 457 742 457 727 431 c 0,1175,1176
 726 429 726 429 722 423.5 c 128,-1,1177
 718 418 718 418 717 416 c 0,975,976
542 756 m 0,1178,1179
 539 755 539 755 531 755 c 0,1180,1181
 519 754 519 754 513 756 c 0,1182,1183
 510 757 510 757 508 757 c 0,1184,1185
 500 759 500 759 493 769 c 0,1186,1187
 489 775 489 775 489 786 c 0,1188,1189
 488 806 488 806 501 815 c 0,1190,1191
 516 826 516 826 543 821 c 0,1192,1193
 565 816 565 816 568 795 c 0,1194,1195
 570 779 570 779 564 769 c 0,1196,1197
 557 759 557 759 548 757 c 0,1198,1199
 546 757 546 757 542 756 c 0,1178,1179
EndSplineSet
EndChar

StartChar: B
Encoding: 66 66 3
Width: 1090
GlyphClass: 1
Flags: W
LayerCount: 2
Fore
SplineSet
374 -128 m 0,0,1
 394 -130 394 -130 413 -126 c 0,2,3
 441 -121 441 -121 471 -102 c 0,4,5
 482 -95 482 -95 494.5 -84.5 c 128,-1,6
 507 -74 507 -74 512 -67 c 0,7,8
 521 -55 521 -55 527 -32 c 0,9,10
 529 -25 529 -25 530 -25 c 2,11,12
 530 -25 530 -25 531 -30 c 0,13,14
 537 -54 537 -54 546 -65 c 0,15,16
 551 -71 551 -71 566.5 -84.5 c 128,-1,17
 582 -98 582 -98 591 -104 c 0,18,19
 616 -121 616 -121 644 -126 c 0,20,21
 664 -130 664 -130 684 -128 c 0,22,23
 687 -128 687 -128 713.5 -124 c 128,-1,24
 740 -120 740 -120 774 -116 c 0,25,26
 809 -111 809 -111 835.5 -107.5 c 128,-1,27
 862 -104 862 -104 864 -103 c 0,28,29
 870 -103 870 -103 878 -104 c 256,30,31
 886 -105 886 -105 891 -105 c 0,32,33
 906 -105 906 -105 926 -112 c 0,34,35
 941 -117 941 -117 949 -124 c 2,36,-1
 952 -127 l 1,37,-1
 953 -125 l 2,38,39
 954 -124 954 -124 962.5 -110 c 128,-1,40
 971 -96 971 -96 982 -78 c 2,41,-1
 1010 -33 l 1,42,-1
 1004 -28 l 2,43,44
 995 -19 995 -19 980 -12 c 0,45,46
 949 4 949 4 914 10 c 0,47,48
 904 12 904 12 895.5 12.5 c 128,-1,49
 887 13 887 13 869 13 c 0,50,51
 859 13 859 13 851 13 c 128,-1,52
 843 13 843 13 840 13 c 0,53,54
 836 14 836 14 833 13.5 c 128,-1,55
 830 13 830 13 819 12 c 0,56,57
 803 9 803 9 775.5 5 c 128,-1,58
 748 1 748 1 725.5 -2 c 128,-1,59
 703 -5 703 -5 701 -5 c 0,60,61
 679 -5 679 -5 666 -1 c 0,62,63
 661 1 661 1 651 6.5 c 128,-1,64
 641 12 641 12 633 18 c 0,65,66
 628 22 628 22 618.5 32.5 c 128,-1,67
 609 43 609 43 610 43 c 256,68,69
 611 43 611 43 621 44 c 0,70,71
 666 51 666 51 719 69 c 0,72,73
 730 72 730 72 729 73 c 2,74,75
 729 73 729 73 720.5 94.5 c 128,-1,76
 712 116 712 116 700 146 c 256,77,78
 688 176 688 176 679.5 198 c 128,-1,79
 671 220 671 220 670 221 c 2,80,-1
 669 224 l 1,81,-1
 681 231 l 2,82,83
 709 248 709 248 724.5 260.5 c 128,-1,84
 740 273 740 273 750 286 c 0,85,86
 772 315 772 315 779 349 c 0,87,88
 783 365 783 365 784 385 c 128,-1,89
 785 405 785 405 783 418 c 0,90,91
 778 450 778 450 767 479 c 0,92,93
 753 516 753 516 719 545 c 0,94,95
 712 550 712 550 698 561 c 0,96,97
 656 593 656 593 626 620 c 0,98,99
 601 642 601 642 570 677 c 2,100,-1
 566 682 l 1,101,-1
 570 684 l 2,102,103
 611 708 611 708 609 756 c 0,104,105
 608 778 608 778 596 796 c 0,106,107
 593 801 593 801 585.5 808.5 c 128,-1,108
 578 816 578 816 573 819 c 0,109,110
 560 828 560 828 545 831 c 0,111,112
 529 834 529 834 513 831 c 0,113,114
 490 826 490 826 474 809 c 0,115,116
 463 799 463 799 457 786 c 0,117,118
 442 755 442 755 456 720 c 0,119,120
 465 698 465 698 489 684 c 2,121,-1
 493 682 l 1,122,-1
 488 676 l 2,123,124
 457 641 457 641 426 614 c 0,125,126
 413 603 413 603 394.5 588 c 128,-1,127
 376 573 376 573 359 560 c 0,128,129
 346 550 346 550 341 546 c 0,130,131
 320 528 320 528 306 507 c 0,132,133
 283 473 283 473 275 420 c 0,134,135
 274 412 274 412 274 396 c 128,-1,136
 274 380 274 380 275 372 c 0,137,138
 278 352 278 352 282 339.5 c 128,-1,139
 286 327 286 327 294 311 c 0,140,141
 306 286 306 286 321 271 c 0,142,143
 337 256 337 256 376 232 c 2,144,-1
 390 224 l 1,145,-1
 389 221 l 2,146,147
 388 220 388 220 379.5 198 c 128,-1,148
 371 176 371 176 359 146 c 256,149,150
 347 116 347 116 338.5 94.5 c 128,-1,151
 330 73 330 73 330 73 c 2,152,153
 329 72 329 72 332 71 c 128,-1,154
 335 70 335 70 347 66 c 0,155,156
 397 49 397 49 444 43 c 2,157,-1
 449 42 l 1,158,-1
 447 39 l 2,159,160
 438 28 438 28 429.5 21 c 128,-1,161
 421 14 421 14 406 5 c 0,162,163
 396 -1 396 -1 384 -3 c 256,164,165
 372 -5 372 -5 358 -5 c 0,166,167
 356 -5 356 -5 335 -2 c 128,-1,168
 314 1 314 1 287.5 4.5 c 128,-1,169
 261 8 261 8 242 11 c 0,170,171
 230 13 230 13 226.5 13.5 c 128,-1,172
 223 14 223 14 219 13 c 0,173,174
 212 13 212 13 190 13 c 0,175,176
 173 13 173 13 164.5 12.5 c 128,-1,177
 156 12 156 12 146 10 c 0,178,179
 114 5 114 5 81 -11 c 0,180,181
 70 -16 70 -16 65 -19.5 c 128,-1,182
 60 -23 60 -23 54 -29 c 2,183,-1
 50 -33 l 1,184,-1
 77 -79 l 2,185,186
 89 -97 89 -97 97 -111 c 128,-1,187
 105 -125 105 -125 106 -125 c 2,188,-1
 107 -127 l 1,189,-1
 109 -125 l 2,190,191
 114 -120 114 -120 121 -116 c 0,192,193
 144 -105 144 -105 168 -105 c 0,194,195
 172 -105 172 -105 180 -104 c 256,196,197
 188 -103 188 -103 194 -103 c 0,198,199
 196 -104 196 -104 207.5 -105 c 128,-1,200
 219 -106 219 -106 232 -108 c 0,201,202
 304 -118 304 -118 337.5 -123 c 128,-1,203
 371 -128 371 -128 374 -128 c 0,0,1
387 -88 m 0,204,205
 378 -89 378 -89 364 -89 c 128,-1,206
 350 -89 350 -89 342 -88 c 0,207,208
 320 -86 320 -86 293 -82 c 0,209,210
 265 -78 265 -78 239 -74 c 0,211,212
 223 -72 223 -72 214 -71 c 0,213,214
 208 -70 208 -70 204 -69.5 c 128,-1,215
 200 -69 200 -69 191 -69 c 0,216,217
 177 -69 177 -69 169 -70 c 128,-1,218
 161 -71 161 -71 139 -76 c 0,219,220
 130 -78 130 -78 125 -83 c 2,221,-1
 124 -85 l 1,222,-1
 122 -82 l 2,223,224
 121 -81 121 -81 116.5 -73 c 128,-1,225
 112 -65 112 -65 100 -46 c 2,226,-1
 95 -39 l 1,227,-1
 100 -37 l 2,228,229
 123 -25 123 -25 155 -20 c 0,230,231
 168 -18 168 -18 175.5 -17.5 c 128,-1,232
 183 -17 183 -17 198 -17 c 0,233,234
 215 -17 215 -17 222 -18 c 128,-1,235
 229 -19 229 -19 242 -22 c 0,236,237
 259 -27 259 -27 270 -29 c 128,-1,238
 281 -31 281 -31 309 -35 c 0,239,240
 342 -41 342 -41 349.5 -41.5 c 128,-1,241
 357 -42 357 -42 364 -42 c 0,242,243
 377 -42 377 -42 388 -39 c 0,244,245
 400 -36 400 -36 417 -28.5 c 128,-1,246
 434 -21 434 -21 441 -15 c 0,247,248
 462 1 462 1 484 34 c 2,249,-1
 490 43 l 1,250,-1
 499 43 l 1,251,-1
 509 43 l 1,252,-1
 508 35 l 2,253,254
 506 1 506 1 490 -24 c 0,255,256
 474 -48 474 -48 457 -62 c 0,257,258
 433 -83 433 -83 387 -88 c 0,204,205
726 -87 m 0,259,260
 675 -93 675 -93 635 -80 c 0,261,262
 602 -69 602 -69 577 -36 c 0,263,264
 552 -4 552 -4 550 35 c 2,265,-1
 550 43 l 1,266,-1
 559 43 l 1,267,-1
 569 43 l 1,268,-1
 576 32 l 2,269,270
 599 -2 599 -2 620 -17 c 0,271,272
 635 -27 635 -27 658 -35 c 0,273,274
 676 -41 676 -41 695 -42 c 0,275,276
 700 -42 700 -42 703.5 -42 c 128,-1,277
 707 -42 707 -42 717.5 -40.5 c 128,-1,278
 728 -39 728 -39 752 -35 c 0,279,280
 791 -29 791 -29 810 -24 c 0,281,282
 819 -21 819 -21 825 -20 c 0,283,284
 843 -16 843 -16 872.5 -17.5 c 128,-1,285
 902 -19 902 -19 925 -25 c 0,286,287
 935 -27 935 -27 949 -32.5 c 128,-1,288
 963 -38 963 -38 963 -39 c 2,289,290
 963 -39 963 -39 956.5 -50 c 128,-1,291
 950 -61 950 -61 943.5 -72 c 128,-1,292
 937 -83 937 -83 936 -84 c 256,293,294
 935 -85 935 -85 933 -83 c 0,295,296
 927 -78 927 -78 919 -76 c 0,297,298
 897 -71 897 -71 889 -70 c 128,-1,299
 881 -69 881 -69 868 -69 c 0,300,301
 853 -69 853 -69 846 -70 c 0,302,303
 839 -72 839 -72 819 -74 c 0,304,305
 798 -77 798 -77 777 -80 c 0,306,307
 758 -83 758 -83 748 -84.5 c 128,-1,308
 738 -86 738 -86 726 -87 c 0,259,260
553 75 m 0,309,310
 545 75 545 75 531 75 c 128,-1,311
 517 75 517 75 510 75 c 0,312,313
 470 77 470 77 423 87 c 0,314,315
 413 89 413 89 396.5 93 c 128,-1,316
 380 97 380 97 380 98 c 2,317,318
 380 98 380 98 395 101.5 c 128,-1,319
 410 105 410 105 423 107 c 0,320,321
 470 116 470 116 527 116 c 128,-1,322
 584 116 584 116 632 108 c 0,323,324
 645 106 645 106 662 102 c 128,-1,325
 679 98 679 98 679 98 c 2,326,327
 679 97 679 97 662 93 c 128,-1,328
 645 89 645 89 629 86 c 0,329,330
 587 77 587 77 553 75 c 0,309,310
410 146 m 0,331,332
 399 144 399 144 398 144 c 0,333,334
 397 143 397 143 398 146 c 0,335,336
 399 147 399 147 403 157.5 c 128,-1,337
 407 168 407 168 412 182 c 0,338,339
 417 195 417 195 421 205 c 128,-1,340
 425 215 425 215 425 215 c 2,341,342
 426 216 426 216 435 217 c 128,-1,343
 444 218 444 218 455 219 c 0,344,345
 529 228 529 228 603 220 c 0,346,347
 613 218 613 218 623 217 c 128,-1,348
 633 216 633 216 633 215 c 2,349,350
 633 215 633 215 637.5 204 c 128,-1,351
 642 193 642 193 647.5 179 c 128,-1,352
 653 165 653 165 657 154.5 c 128,-1,353
 661 144 661 144 661 144 c 2,354,355
 661 143 661 143 655 145 c 0,356,357
 618 152 618 152 569 156 c 0,358,359
 562 156 562 156 545.5 156.5 c 128,-1,360
 529 157 529 157 513 156.5 c 128,-1,361
 497 156 497 156 490 156 c 0,362,363
 447 153 447 153 410 146 c 0,331,332
433 257 m 0,364,365
 424 255 424 255 422 255 c 256,366,367
 420 255 420 255 409.5 259 c 128,-1,368
 399 263 399 263 390 268 c 0,369,370
 372 278 372 278 357 292 c 0,371,372
 342 307 342 307 333 325 c 0,373,374
 316 358 316 358 315 396 c 0,375,376
 314 425 314 425 327 458 c 0,377,378
 339 488 339 488 363 511 c 0,379,380
 371 519 371 519 440 577 c 0,381,382
 464 597 464 597 482.5 614 c 128,-1,383
 501 631 501 631 523 655 c 0,384,385
 529 662 529 662 529 662 c 2,386,387
 530 662 530 662 541 650 c 0,388,389
 549 641 549 641 565.5 624.5 c 128,-1,390
 582 608 582 608 590 601 c 0,391,392
 597 594 597 594 608.5 584.5 c 128,-1,393
 620 575 620 575 652 549 c 0,394,395
 668 535 668 535 681 524 c 128,-1,396
 694 513 694 513 697 510 c 0,397,398
 725 481 725 481 738 441 c 0,399,400
 745 417 745 417 744 395 c 0,401,402
 741 334 741 334 703 295 c 0,403,404
 681 271 681 271 645 257 c 2,405,-1
 639 255 l 1,406,-1
 631 256 l 2,407,408
 585 263 585 263 532.5 263.5 c 128,-1,409
 480 264 480 264 433 257 c 0,364,365
522 346 m 0,410,411
 525 345 525 345 531 345 c 256,412,413
 537 345 537 345 541 347 c 0,414,415
 544 349 544 349 546 352 c 0,416,417
 549 356 549 356 549.5 360 c 128,-1,418
 550 364 550 364 550 387 c 2,419,-1
 550 414 l 1,420,-1
 577 414 l 2,421,422
 599 414 599 414 604 414.5 c 128,-1,423
 609 415 609 415 612 417 c 0,424,425
 620 421 620 421 620 434 c 128,-1,426
 620 447 620 447 613 451 c 0,427,428
 609 453 609 453 604 453.5 c 128,-1,429
 599 454 599 454 577 454 c 2,430,-1
 550 454 l 1,431,-1
 550 482 l 2,432,433
 550 507 550 507 549 511.5 c 128,-1,434
 548 516 548 516 545 520 c 0,435,436
 540 525 540 525 530 525 c 0,437,438
 521 525 521 525 516 521 c 0,439,440
 513 519 513 519 511 515 c 2,441,-1
 509 511 l 1,442,-1
 509 483 l 1,443,-1
 508 454 l 1,444,-1
 481 454 l 1,445,-1
 453 454 l 1,446,-1
 450 452 l 2,447,448
 444 450 444 450 442 444 c 0,449,450
 440 441 440 441 440 434 c 256,451,452
 440 427 440 427 442 424 c 0,453,454
 444 419 444 419 450 416 c 0,455,456
 452 415 452 415 455 414.5 c 128,-1,457
 458 414 458 414 471 414 c 0,458,459
 488 414 488 414 498 414 c 2,460,-1
 508 414 l 1,461,-1
 508 388 l 2,462,463
 508 363 508 363 509 359 c 0,464,465
 511 349 511 349 522 346 c 0,410,411
539 714 m 0,466,467
 519 711 519 711 506 718 c 0,468,469
 500 722 500 722 496 728 c 0,470,471
 490 737 490 737 489.5 752 c 128,-1,472
 489 767 489 767 495 776 c 0,473,474
 498 783 498 783 505 787 c 0,475,476
 521 797 521 797 545 791 c 0,477,478
 553 788 553 788 559 783 c 0,479,480
 564 778 564 778 567 770 c 0,481,482
 570 761 570 761 569 748.5 c 128,-1,483
 568 736 568 736 564 729 c 0,484,485
 560 723 560 723 554 719 c 256,486,487
 548 715 548 715 539 714 c 0,466,467
EndSplineSet
EndChar

StartChar: K
Encoding: 75 75 4
Width: 1090
GlyphClass: 1
Flags: W
LayerCount: 2
Fore
SplineSet
497 -132 m 0,0,1
 523 -133 523 -133 561 -132.5 c 128,-1,2
 599 -132 599 -132 627 -131 c 0,3,4
 706 -127 706 -127 771.5 -116 c 128,-1,5
 837 -105 837 -105 874 -90 c 0,6,7
 882 -87 882 -87 891 -82 c 128,-1,8
 900 -77 900 -77 903 -74 c 2,9,-1
 904 -72 l 1,10,-1
 885 0 l 1,11,-1
 866 72 l 1,12,-1
 875 127 l 2,13,14
 882 166 882 166 883.5 174.5 c 128,-1,15
 885 183 885 183 886 185 c 0,16,17
 889 189 889 189 901 195 c 0,18,19
 913 202 913 202 925.5 212 c 128,-1,20
 938 222 938 222 964 245 c 0,21,22
 985 263 985 263 997 279 c 128,-1,23
 1009 295 1009 295 1019 315 c 0,24,25
 1036 351 1036 351 1040 396 c 0,26,27
 1041 404 1041 404 1040.5 416 c 128,-1,28
 1040 428 1040 428 1039 435 c 0,29,30
 1032 474 1032 474 1006 512 c 0,31,32
 997 524 997 524 985 537.5 c 128,-1,33
 973 551 973 551 963 559 c 0,34,35
 907 603 907 603 824 599 c 0,36,37
 779 598 779 598 719 576 c 0,38,39
 663 555 663 555 648 546 c 2,40,-1
 644 544 l 1,41,-1
 645 545 l 2,42,43
 645 548 645 548 646 556.5 c 128,-1,44
 647 565 647 565 647 569 c 0,45,46
 647 593 647 593 637 614 c 0,47,48
 626 638 626 638 605 654.5 c 128,-1,49
 584 671 584 671 560 676 c 0,50,51
 528 683 528 683 498 671.5 c 128,-1,52
 468 660 468 660 448 634 c 0,53,54
 441 625 441 625 436 615 c 0,55,56
 425 591 425 591 426 564 c 0,57,58
 426 551 426 551 428 544 c 0,59,60
 429 543 429 543 424 546 c 0,61,62
 417 551 417 551 409.5 554 c 128,-1,63
 402 557 402 557 372 568 c 0,64,65
 358 574 358 574 350 577 c 0,66,67
 333 584 333 584 306 590.5 c 128,-1,68
 279 597 279 597 258 598 c 0,69,70
 251 599 251 599 233.5 598.5 c 128,-1,71
 216 598 216 598 209 598 c 0,72,73
 150 590 150 590 108 556 c 0,74,75
 85 538 85 538 66 511 c 0,76,77
 38 472 38 472 33 434 c 0,78,79
 30 414 30 414 34 383 c 0,80,81
 42 320 42 320 78 276 c 0,82,83
 85 266 85 266 97 254.5 c 128,-1,84
 109 243 109 243 130 225 c 0,85,86
 148 210 148 210 155 205 c 128,-1,87
 162 200 162 200 172 195 c 0,88,89
 185 188 185 188 187 184 c 0,90,91
 188 182 188 182 190 171 c 128,-1,92
 192 160 192 160 198 127 c 2,93,-1
 208 73 l 1,94,-1
 188 1 l 1,95,-1
 169 -70 l 1,96,-1
 171 -72 l 2,97,98
 182 -82 182 -82 198 -89 c 0,99,100
 235 -104 235 -104 304 -116 c 0,101,102
 388 -130 388 -130 497 -132 c 0,0,1
602 -92 m 0,103,104
 595 -92 595 -92 572 -92.5 c 128,-1,105
 549 -93 549 -93 526 -93 c 128,-1,106
 503 -93 503 -93 495 -93 c 0,107,108
 320 -89 320 -89 229 -56 c 0,109,110
 220 -53 220 -53 219 -53 c 0,111,112
 218 -52 218 -52 218 -52 c 257,113,114
 218 -52 218 -52 226.5 -48.5 c 128,-1,115
 235 -45 235 -45 242 -43 c 0,116,117
 322 -15 322 -15 445 -8 c 0,118,119
 465 -7 465 -7 480.5 -6.5 c 128,-1,120
 496 -6 496 -6 522 -5 c 0,121,122
 729 -3 729 -3 847 -47 c 0,123,124
 856 -50 856 -50 856 -51 c 2,125,126
 856 -51 856 -51 848 -54 c 0,127,128
 765 -85 765 -85 602 -92 c 0,103,104
240 6 m 0,129,130
 233 4 233 4 232 4 c 0,131,132
 231 3 231 3 231 5 c 1,133,134
 232 5 232 5 234.5 15 c 128,-1,135
 237 25 237 25 241 38 c 0,136,137
 245 52 245 52 247.5 61.5 c 128,-1,138
 250 71 250 71 250 71 c 2,139,140
 251 72 251 72 263 74.5 c 128,-1,141
 275 77 275 77 287 79 c 0,142,143
 401 99 401 99 555 97 c 0,144,145
 618 97 618 97 668 93.5 c 128,-1,146
 718 90 718 90 765 82 c 0,147,148
 781 80 781 80 802 76 c 128,-1,149
 823 72 823 72 823 71 c 1,150,151
 824 71 824 71 826.5 61 c 128,-1,152
 829 51 829 51 832.5 38 c 128,-1,153
 836 25 836 25 838.5 14.5 c 128,-1,154
 841 4 841 4 841 4 c 257,155,156
 841 4 841 4 838 5 c 0,157,158
 827 8 827 8 805 13 c 0,159,160
 695 38 695 38 520 36 c 0,161,162
 485 36 485 36 462 35 c 128,-1,163
 439 34 439 34 411 32 c 0,164,165
 310 25 310 25 240 6 c 0,129,130
256 111 m 0,166,167
 246 109 246 109 245 109 c 0,168,169
 244 108 244 108 244 109 c 2,170,171
 244 109 244 109 241.5 121.5 c 128,-1,172
 239 134 239 134 236 152 c 0,173,174
 232 175 232 175 230.5 185 c 128,-1,175
 229 195 229 195 230 195 c 1,176,177
 230 196 230 196 242 199 c 128,-1,178
 254 202 254 202 263 203 c 0,179,180
 303 212 303 212 356 218 c 128,-1,181
 409 224 409 224 460 225 c 0,182,183
 473 226 473 226 475 226 c 2,184,185
 475 226 475 226 487.5 226.5 c 128,-1,186
 500 227 500 227 517 227 c 0,187,188
 690 228 690 228 807 205 c 0,189,190
 817 203 817 203 830.5 199.5 c 128,-1,191
 844 196 844 196 844 196 c 257,192,193
 844 196 844 196 842 183 c 128,-1,194
 840 170 840 170 837.5 153 c 128,-1,195
 835 136 835 136 832.5 123 c 128,-1,196
 830 110 830 110 830 110 c 257,197,198
 830 110 830 110 825 111 c 0,199,200
 812 114 812 114 790.5 118 c 128,-1,201
 769 122 769 122 751 124 c 0,202,203
 708 130 708 130 662 133 c 128,-1,204
 616 136 616 136 557 136 c 0,205,206
 371 138 371 138 256 111 c 0,166,167
205 228 m 0,207,208
 201 227 201 227 201 227 c 2,209,210
 200 227 200 227 188 236.5 c 128,-1,211
 176 246 176 246 163.5 256.5 c 128,-1,212
 151 267 151 267 148 269 c 0,213,214
 140 275 140 275 130 285 c 128,-1,215
 120 295 120 295 115 302 c 0,216,217
 80 342 80 342 80 404 c 0,218,219
 80 454 80 454 104 489 c 0,220,221
 131 530 131 530 172 546 c 0,222,223
 216 563 216 563 275 556 c 0,224,225
 314 551 314 551 356 534.5 c 128,-1,226
 398 518 398 518 424 497 c 0,227,228
 428 493 428 493 437 484 c 0,229,230
 478 442 478 442 502 374 c 0,231,232
 512 343 512 343 514 311 c 0,233,234
 515 304 515 304 515.5 288 c 128,-1,235
 516 272 516 272 516 269 c 2,236,-1
 516 267 l 1,237,-1
 500 266 l 1,238,239
 398 264 398 264 326 254.5 c 128,-1,240
 254 245 254 245 205 228 c 0,207,208
897 247 m 0,241,242
 887 239 887 239 879.5 233 c 128,-1,243
 872 227 872 227 872 227 c 257,244,245
 872 227 872 227 872 228 c 1,246,247
 871 228 871 228 861 231 c 0,248,249
 812 246 812 246 737.5 255 c 128,-1,250
 663 264 663 264 573 267 c 2,251,-1
 556 267 l 1,252,-1
 557 283 l 2,253,254
 557 314 557 314 560 332.5 c 128,-1,255
 563 351 563 351 572 376 c 0,256,257
 594 442 594 442 636 485 c 0,258,259
 658 507 658 507 694 525 c 0,260,261
 747 550 747 550 803 557 c 0,262,263
 813 558 813 558 830.5 558 c 128,-1,264
 848 558 848 558 856 557 c 0,265,266
 914 550 914 550 949 514 c 0,267,268
 960 503 960 503 970 489 c 0,269,270
 991 457 991 457 993 409 c 0,271,272
 994 364 994 364 978 331 c 0,273,274
 969 313 969 313 948 291 c 0,275,276
 939 282 939 282 929.5 274 c 128,-1,277
 920 266 920 266 897 247 c 0,241,242
538 381 m 256,278,279
 537 377 537 377 536 377 c 2,280,281
 536 377 536 377 532 390 c 0,282,283
 526 410 526 410 523 419.5 c 128,-1,284
 520 429 520 429 517 436 c 128,-1,285
 514 443 514 443 509 453 c 0,286,287
 494 483 494 483 487.5 498 c 128,-1,288
 481 513 481 513 473 539 c 0,289,290
 469 551 469 551 468 557 c 128,-1,291
 467 563 467 563 467 572 c 0,292,293
 468 604 468 604 484 620 c 0,294,295
 497 632 497 632 518 636 c 0,296,297
 524 637 524 637 535 637 c 128,-1,298
 546 637 546 637 551 636 c 0,299,300
 572 632 572 632 587 617 c 0,301,302
 599 604 599 604 604 588 c 0,303,304
 609 571 609 571 605 554 c 0,305,306
 605 551 605 551 598.5 534 c 128,-1,307
 592 517 592 517 587 504 c 0,308,309
 582 490 582 490 568 463 c 0,310,311
 562 449 562 449 559 443 c 0,312,313
 557 436 557 436 554 430 c 256,314,315
 551 424 551 424 548 414 c 0,316,317
 545 405 545 405 542 395 c 256,318,319
 539 385 539 385 538 381 c 256,278,279
515 719 m 1,320,-1
 515 680 l 1,321,-1
 536 680 l 1,322,-1
 557 680 l 1,323,-1
 557 708 l 2,324,325
 557 719 557 719 557.5 730 c 128,-1,326
 558 741 558 741 558 746 c 2,327,-1
 558 757 l 1,328,-1
 568 757 l 2,329,330
 584 757 584 757 599 757.5 c 128,-1,331
 614 758 614 758 616 758 c 0,332,333
 622 760 622 760 625 766 c 0,334,335
 626 770 626 770 626 777 c 256,336,337
 626 784 626 784 625 787 c 0,338,339
 622 792 622 792 617 795 c 0,340,341
 615 796 615 796 610.5 796 c 128,-1,342
 606 796 606 796 586 796 c 2,343,-1
 557 796 l 1,344,-1
 557 825 l 2,345,346
 557 849 557 849 556 853.5 c 128,-1,347
 555 858 555 858 552 862 c 0,348,349
 547 866 547 866 537 866 c 0,350,351
 528 866 528 866 523 863 c 0,352,353
 520 861 520 861 518 857 c 2,354,-1
 516 853 l 1,355,-1
 516 825 l 1,356,-1
 515 796 l 1,357,-1
 489 796 l 2,358,359
 467 796 467 796 462 795.5 c 128,-1,360
 457 795 457 795 454 793 c 0,361,362
 447 788 447 788 447 777 c 0,363,364
 447 765 447 765 454 761 c 0,365,366
 457 758 457 758 462.5 757.5 c 128,-1,367
 468 757 468 757 489 757 c 2,368,-1
 515 757 l 1,369,-1
 515 719 l 1,320,-1
EndSplineSet
EndChar

StartChar: M
Encoding: 77 77 5
Width: 1090
GlyphClass: 1
Flags: W
LayerCount: 2
Fore
SplineSet
362 -125 m 1,0,-1
 362 -125 l 1,1,2
 362 -125 362 -125 407 -125 c 128,-1,3
 452 -125 452 -125 528 -125 c 128,-1,4
 604 -125 604 -125 695 -125 c 2,5,-1
 1029 -125 l 1,6,-1
 1029 -123 l 2,7,8
 1029 -117 1029 -117 1028 -98 c 128,-1,9
 1027 -79 1027 -79 1026 -58 c 128,-1,10
 1025 -37 1025 -37 1024 -26 c 0,11,12
 1017 50 1017 50 996 120 c 0,13,14
 992 133 992 133 985.5 150.5 c 128,-1,15
 979 168 979 168 975 179 c 0,16,17
 974 181 974 181 971 187 c 0,18,19
 968 194 968 194 967 196 c 0,20,21
 965 201 965 201 959.5 212 c 128,-1,22
 954 223 954 223 949 232.5 c 128,-1,23
 944 242 944 242 943 243 c 2,24,25
 943 243 943 243 941 247 c 0,26,27
 938 251 938 251 936 255 c 0,28,29
 934 258 934 258 933 260 c 256,30,31
 932 262 932 262 927 269.5 c 128,-1,32
 922 277 922 277 917.5 284 c 128,-1,33
 913 291 913 291 912 291 c 0,34,35
 911 292 911 292 911 293 c 0,36,37
 910 295 910 295 908 297 c 0,38,39
 906 300 906 300 905 301 c 0,40,41
 900 308 900 308 895 315 c 0,42,43
 893 317 893 317 892 319 c 0,44,45
 890 321 890 321 888 323 c 256,46,47
 886 325 886 325 884 328 c 256,48,49
 882 331 882 331 881 332 c 0,50,51
 879 333 879 333 878 335 c 0,52,53
 872 343 872 343 855.5 359 c 128,-1,54
 839 375 839 375 828 383 c 0,55,56
 825 386 825 386 822 388 c 0,57,58
 815 395 815 395 812 396 c 0,59,60
 811 397 811 397 808 399 c 0,61,62
 798 407 798 407 797 407 c 2,63,64
 797 407 797 407 789 412 c 0,65,66
 781 418 781 418 777 420 c 0,67,68
 762 429 762 429 761 429 c 2,69,70
 761 429 761 429 757 431 c 0,71,72
 753 434 753 434 747 437 c 2,73,-1
 741 440 l 1,74,-1
 741 481 l 1,75,-1
 741 523 l 1,76,-1
 745 525 l 2,77,78
 749 528 749 528 752 530 c 0,79,80
 756 533 756 533 760 536 c 0,81,82
 767 540 767 540 775 547 c 0,83,84
 784 553 784 553 791 557 c 0,85,86
 799 563 799 563 806 568 c 0,87,88
 810 571 810 571 814 573 c 0,89,90
 818 576 818 576 821 579 c 0,91,92
 825 581 825 581 829 584 c 0,93,94
 833 586 833 586 837 589 c 256,95,96
 841 592 841 592 844 594 c 0,97,98
 848 597 848 597 852 600 c 0,99,100
 856 602 856 602 860 605 c 0,101,102
 863 608 863 608 867 610 c 2,103,-1
 871 613 l 1,104,-1
 871 711 l 1,105,-1
 871 810 l 1,106,-1
 791 810 l 1,107,-1
 710 810 l 1,108,-1
 710 774 l 1,109,-1
 710 738 l 1,110,-1
 661 738 l 1,111,-1
 611 738 l 1,112,-1
 611 774 l 1,113,-1
 611 810 l 1,114,-1
 531 810 l 1,115,-1
 450 810 l 1,116,-1
 450 774 l 1,117,-1
 450 738 l 1,118,-1
 400 738 l 1,119,-1
 350 738 l 1,120,-1
 350 774 l 1,121,-1
 350 810 l 1,122,-1
 270 810 l 1,123,-1
 190 810 l 1,124,-1
 190 712 l 1,125,-1
 190 613 l 1,126,-1
 193 611 l 2,127,128
 195 609 195 609 198 607 c 0,129,130
 202 605 202 605 205 603 c 0,131,132
 214 596 214 596 220 592 c 0,133,134
 224 590 224 590 224 589 c 0,135,136
 225 588 225 588 229 586 c 0,137,138
 233 583 233 583 235 581 c 0,139,140
 238 579 238 579 242 576 c 0,141,142
 252 570 252 570 257 566 c 0,143,144
 261 563 261 563 265 561 c 0,145,146
 269 558 269 558 273 555 c 256,147,148
 277 552 277 552 281 549 c 0,149,150
 285 547 285 547 290 543 c 0,151,152
 295 540 295 540 298 538 c 256,153,154
 301 536 301 536 304 533 c 0,155,156
 308 531 308 531 310 529 c 0,157,158
 313 527 313 527 317 524 c 256,159,160
 321 521 321 521 324 519 c 2,161,-1
 327 517 l 1,162,-1
 327 482 l 1,163,-1
 327 447 l 1,164,-1
 326 448 l 2,165,166
 325 448 325 448 320 448 c 0,167,168
 316 449 316 449 313 449 c 0,169,170
 303 452 303 452 291 447 c 0,171,172
 285 444 285 444 275 441 c 0,173,174
 253 434 253 434 242 424 c 0,175,176
 240 422 240 422 237 421 c 0,177,178
 234 419 234 419 232 417 c 256,179,180
 230 415 230 415 230 415 c 1,181,182
 230 416 230 416 221 406.5 c 128,-1,183
 212 397 212 397 206 390 c 0,184,185
 204 387 204 387 203 386 c 256,186,187
 202 385 202 385 200 383 c 0,188,189
 199 381 199 381 198 380 c 2,190,191
 198 380 198 380 197 378 c 0,192,193
 195 376 195 376 195 375 c 1,194,195
 194 375 194 375 191 370 c 0,196,197
 187 365 187 365 187 365 c 2,198,199
 187 364 187 364 185 362 c 0,200,201
 184 360 184 360 184 359 c 1,202,203
 183 359 183 359 179.5 352 c 128,-1,204
 176 345 176 345 175 342 c 0,205,206
 170 327 170 327 169 300 c 0,207,208
 169 291 169 291 168 285 c 0,209,210
 165 268 165 268 149 240 c 0,211,212
 145 232 145 232 136 219 c 128,-1,213
 127 206 127 206 123 201 c 0,214,215
 122 200 122 200 121 198 c 0,216,217
 119 195 119 195 119 195 c 2,218,219
 118 195 118 195 117 193 c 0,220,221
 115 190 115 190 115 190 c 2,222,223
 114 190 114 190 113 188 c 256,224,225
 112 186 112 186 111 185 c 256,226,227
 110 184 110 184 109 183 c 0,228,229
 106 179 106 179 102 174 c 0,230,231
 100 172 100 172 97 169 c 0,232,233
 95 166 95 166 93 163 c 0,234,235
 91 161 91 161 89 158 c 0,236,237
 87 156 87 156 85 154 c 256,238,239
 83 152 83 152 82 150 c 0,240,241
 81 149 81 149 77 144 c 0,242,243
 68 132 68 132 62 122 c 0,244,245
 56 114 56 114 55 112 c 256,246,247
 54 110 54 110 52 107 c 0,248,249
 46 96 46 96 40 82 c 0,250,251
 30 58 30 58 32 32 c 0,252,253
 35 0 35 0 45 -21 c 0,254,255
 49 -30 49 -30 52 -33 c 0,256,257
 52 -34 52 -34 55 -38 c 0,258,259
 67 -54 67 -54 82 -67 c 0,260,261
 87 -71 87 -71 99 -77 c 128,-1,262
 111 -83 111 -83 122 -87 c 2,263,-1
 128 -89 l 1,264,-1
 137 -89 l 2,265,266
 151 -88 151 -88 165 -85 c 0,267,268
 170 -84 170 -84 170 -84 c 2,269,270
 171 -84 171 -84 174 -87 c 0,271,272
 184 -103 184 -103 199 -108 c 0,273,274
 210 -113 210 -113 222 -112 c 0,275,276
 240 -111 240 -111 250 -105 c 0,277,278
 252 -103 252 -103 253 -102 c 0,279,280
 257 -100 257 -100 266 -87 c 0,281,282
 269 -82 269 -82 279 -65 c 0,283,284
 285 -56 285 -56 286 -55 c 0,285,286
 287 -53 287 -53 288 -51 c 256,287,288
 289 -49 289 -49 291 -46 c 256,289,290
 293 -43 293 -43 294 -41 c 256,291,292
 295 -39 295 -39 296 -38 c 2,293,294
 296 -38 296 -38 297 -36 c 0,295,296
 299 -33 299 -33 299 -33 c 257,297,298
 299 -33 299 -33 301 -31 c 0,299,300
 302 -29 302 -29 306.5 -23.5 c 128,-1,301
 311 -18 311 -18 312 -16 c 0,302,303
 313 -15 313 -15 315 -13 c 0,304,305
 318 -10 318 -10 326.5 -2 c 128,-1,306
 335 6 335 6 342.5 13 c 128,-1,307
 350 20 350 20 351 20 c 2,308,309
 351 20 351 20 354 23 c 0,310,311
 357 25 357 25 358 25 c 2,312,313
 358 25 358 25 361 28 c 0,314,315
 365 30 365 30 367 32 c 0,316,317
 375 37 375 37 382.5 42 c 128,-1,318
 390 47 390 47 391 47 c 2,319,320
 391 47 391 47 393 48 c 256,321,322
 395 49 395 49 401 52 c 256,323,324
 407 55 407 55 408 56 c 0,325,326
 419 62 419 62 440 70.5 c 128,-1,327
 461 79 461 79 477 84 c 0,328,329
 486 87 486 87 500.5 94.5 c 128,-1,330
 515 102 515 102 525 109 c 2,331,-1
 528 111 l 1,332,-1
 528 107 l 2,333,334
 530 93 530 93 524 71 c 0,335,336
 520 54 520 54 515 42 c 0,337,338
 505 20 505 20 497 9 c 0,339,340
 492 1 492 1 488 -3 c 0,341,342
 485 -6 485 -6 476.5 -15 c 128,-1,343
 468 -24 468 -24 458 -33 c 0,344,345
 447 -43 447 -43 442 -48 c 0,346,347
 438 -52 438 -52 433 -56 c 128,-1,348
 428 -60 428 -60 416 -72 c 0,349,350
 407 -80 407 -80 405 -82 c 0,351,352
 402 -85 402 -85 396 -91 c 0,353,354
 387 -99 387 -99 374.5 -111.5 c 128,-1,355
 362 -124 362 -124 362 -125 c 1,0,-1
962 -63 m 2,356,-1
 962 -98 l 1,357,-1
 702 -98 l 2,358,359
 630 -98 630 -98 571 -98 c 128,-1,360
 512 -98 512 -98 476.5 -97.5 c 128,-1,361
 441 -97 441 -97 441 -97 c 1,362,363
 442 -97 442 -97 445 -94 c 0,364,365
 448 -92 448 -92 451 -89 c 256,366,367
 454 -86 454 -86 458 -83 c 256,368,369
 462 -80 462 -80 464 -79 c 0,370,371
 466 -77 466 -77 468 -75 c 0,372,373
 473 -72 473 -72 482 -65 c 0,374,375
 520 -35 520 -35 538 -8 c 0,376,377
 548 7 548 7 556 25 c 0,378,379
 558 30 558 30 558 32 c 0,380,381
 566 49 566 49 570 70 c 0,382,383
 577 108 577 108 566 141 c 2,384,-1
 564 147 l 1,385,-1
 566 149 l 2,386,387
 568 152 568 152 568 153 c 2,388,389
 568 153 568 153 571 158 c 0,390,391
 574 162 574 162 575 163 c 256,392,393
 576 164 576 164 579.5 171 c 128,-1,394
 583 178 583 178 585 181 c 0,395,396
 598 209 598 209 601 241 c 0,397,398
 602 260 602 260 596 267 c 0,399,400
 591 272 591 272 579 272 c 0,401,402
 572 272 572 272 568 271 c 0,403,404
 563 269 563 269 562 267 c 0,405,406
 559 263 559 263 560 258 c 0,407,408
 560 255 560 255 560 244.5 c 128,-1,409
 560 234 560 234 560 229 c 0,410,411
 559 218 559 218 555 209 c 0,412,413
 554 205 554 205 549.5 195.5 c 128,-1,414
 545 186 545 186 543 184 c 0,415,416
 542 182 542 182 540 179 c 0,417,418
 535 171 535 171 527 163 c 0,419,420
 523 157 523 157 512.5 148 c 128,-1,421
 502 139 502 139 498 137 c 0,422,423
 497 136 497 136 494 134 c 0,424,425
 492 133 492 133 487 130 c 128,-1,426
 482 127 482 127 481 126 c 0,427,428
 480 126 480 126 476 124 c 256,429,430
 472 122 472 122 470 121 c 0,431,432
 469 121 469 121 463 118 c 0,433,434
 458 116 458 116 458 116 c 2,435,436
 457 116 457 116 451 113 c 256,437,438
 445 110 445 110 445 110 c 2,439,440
 444 110 444 110 439 108 c 0,441,442
 433 106 433 106 433 106 c 2,443,444
 432 106 432 106 428 104 c 0,445,446
 423 102 423 102 418 100 c 0,447,448
 392 91 392 91 377 81 c 0,449,450
 374 79 374 79 374 79 c 2,451,452
 373 79 373 79 370 76 c 0,453,454
 366 74 366 74 365 74 c 0,455,456
 364 73 364 73 361 71 c 0,457,458
 357 68 357 68 357 68 c 2,459,460
 356 68 356 68 353 66 c 0,461,462
 350 63 350 63 349 63 c 2,463,464
 349 63 349 63 346 61 c 0,465,466
 343 58 343 58 342 57 c 0,467,468
 340 56 340 56 338 55 c 0,469,470
 336 53 336 53 332 50 c 0,471,472
 323 43 323 43 319 39 c 0,473,474
 316 37 316 37 315 37 c 2,475,476
 315 37 315 37 306 28 c 128,-1,477
 297 19 297 19 294 16 c 0,478,479
 291 12 291 12 289 11 c 0,480,481
 288 9 288 9 286 7 c 0,482,483
 285 5 285 5 284 4 c 256,484,485
 283 3 283 3 282 1 c 256,486,487
 281 -1 281 -1 280 -1 c 2,488,489
 280 -1 280 -1 276.5 -6 c 128,-1,490
 273 -11 273 -11 272 -13 c 0,491,492
 258 -34 258 -34 247 -54 c 0,493,494
 239 -68 239 -68 236 -72.5 c 128,-1,495
 233 -77 233 -77 227 -81 c 0,496,497
 223 -85 223 -85 219 -86 c 0,498,499
 215 -86 215 -86 212 -86 c 0,500,501
 205 -84 205 -84 200 -70 c 0,502,503
 199 -68 199 -68 201 -67 c 0,504,505
 202 -65 202 -65 202 -65 c 2,506,507
 203 -65 203 -65 204 -63 c 0,508,509
 206 -60 206 -60 206 -60 c 2,510,511
 210 -56 210 -56 216.5 -45.5 c 128,-1,512
 223 -35 223 -35 226 -29 c 0,513,514
 227 -25 227 -25 229.5 -18.5 c 128,-1,515
 232 -12 232 -12 232 -10 c 0,516,517
 234 -5 234 -5 230 1 c 0,518,519
 228 4 228 4 224 5 c 0,520,521
 220 7 220 7 218 7 c 0,522,523
 210 7 210 7 202 -7 c 0,524,525
 199 -10 199 -10 198 -12 c 0,526,527
 197 -13 197 -13 194 -20 c 0,528,529
 189 -30 189 -30 186 -34 c 0,530,531
 178 -44 178 -44 160 -49 c 0,532,533
 154 -51 154 -51 145 -51 c 256,534,535
 136 -51 136 -51 131 -49 c 0,536,537
 116 -45 116 -45 99 -31 c 0,538,539
 91 -24 91 -24 87 -19 c 0,540,541
 85 -17 85 -17 85 -16 c 0,542,543
 84 -15 84 -15 81 -9.5 c 128,-1,544
 78 -4 78 -4 77 0 c 0,545,546
 71 16 71 16 71 38 c 0,547,548
 72 48 72 48 73 55 c 0,549,550
 79 75 79 75 86 89 c 0,551,552
 88 92 88 92 91.5 98 c 128,-1,553
 95 104 95 104 96 105 c 0,554,555
 97 105 97 105 98 107 c 0,556,557
 100 109 100 109 101 110 c 256,558,559
 102 111 102 111 106 118 c 0,560,561
 111 124 111 124 112 125 c 256,562,563
 113 126 113 126 114 128 c 256,564,565
 115 130 115 130 119 134 c 0,566,567
 128 147 128 147 135 156 c 0,568,569
 139 162 139 162 139 163 c 1,570,571
 140 163 140 163 141 165 c 0,572,573
 143 167 143 167 147 174 c 0,574,575
 149 176 149 176 150 177 c 256,576,577
 151 178 151 178 157 187 c 0,578,579
 163 195 163 195 164 197 c 0,580,581
 165 198 165 198 166 199 c 0,582,583
 170 206 170 206 179 219 c 0,584,585
 184 226 184 226 184 227 c 0,586,587
 186 229 186 229 190.5 236.5 c 128,-1,588
 195 244 195 244 197 249 c 0,589,590
 205 265 205 265 208 282 c 0,591,592
 209 287 209 287 208 297 c 0,593,594
 207 311 207 311 210 320 c 0,595,596
 213 330 213 330 223 347 c 0,597,598
 228 354 228 354 229 356 c 0,599,600
 230 359 230 359 231 359 c 2,601,602
 231 359 231 359 232 361 c 0,603,604
 234 364 234 364 234 364 c 257,605,606
 234 364 234 364 236 367 c 0,607,608
 237 369 237 369 238 369 c 1,609,610
 238 370 238 370 239 372 c 0,611,612
 242 376 242 376 248 382 c 128,-1,613
 254 388 254 388 256 389 c 256,614,615
 258 390 258 390 260 392 c 0,616,617
 263 394 263 394 273 399 c 128,-1,618
 283 404 283 404 294 408 c 0,619,620
 300 411 300 411 302 412 c 256,621,622
 304 413 304 413 310 414 c 0,623,624
 317 414 317 414 325 411 c 0,625,626
 331 407 331 407 343 407 c 0,627,628
 350 407 350 407 362 413 c 0,629,630
 368 416 368 416 372 417 c 256,631,632
 376 418 376 418 379 420 c 0,633,634
 383 422 383 422 386 422 c 0,635,636
 388 423 388 423 394 425 c 0,637,638
 402 428 402 428 402 426 c 0,639,640
 401 424 401 424 401 421 c 0,641,642
 401 410 401 410 411 406 c 0,643,644
 414 404 414 404 422 404 c 256,645,646
 430 404 430 404 433 406 c 0,647,648
 440 410 440 410 441 424 c 0,649,650
 443 447 443 447 453 469 c 0,651,652
 455 473 455 473 458 479.5 c 128,-1,653
 461 486 461 486 462 486 c 2,654,655
 462 486 462 486 464 489 c 0,656,657
 465 491 465 491 465 491 c 2,658,659
 466 492 466 492 467 494 c 0,660,661
 472 501 472 501 480 509.5 c 128,-1,662
 488 518 488 518 489 518 c 256,663,664
 490 518 490 518 498 510 c 0,665,666
 521 487 521 487 532 461 c 0,667,668
 537 452 537 452 540 438 c 256,669,670
 543 424 543 424 544 405 c 0,671,672
 544 395 544 395 544.5 392.5 c 128,-1,673
 545 390 545 390 545 388 c 0,674,675
 550 380 550 380 563 380 c 0,676,677
 580 380 580 380 583 395 c 0,678,679
 584 401 584 401 582.5 418 c 128,-1,680
 581 435 581 435 579 448 c 0,681,682
 578 450 578 450 580 449 c 0,683,684
 581 449 581 449 586 449 c 0,685,686
 597 447 597 447 630 439 c 0,687,688
 638 437 638 437 651 432.5 c 128,-1,689
 664 428 664 428 671 426 c 0,690,691
 675 424 675 424 679 422 c 0,692,693
 683 421 683 421 685 420 c 0,694,695
 688 418 688 418 690 418 c 0,696,697
 691 417 691 417 698 414 c 128,-1,698
 705 411 705 411 713 407 c 256,699,700
 721 403 721 403 726 400.5 c 128,-1,701
 731 398 731 398 744 391 c 0,702,703
 748 388 748 388 750 387 c 0,704,705
 752 385 752 385 752 385 c 2,706,707
 753 385 753 385 756 383 c 0,708,709
 760 380 760 380 761 379 c 0,710,711
 764 378 764 378 776 369 c 0,712,713
 779 367 779 367 783 364 c 0,714,715
 788 360 788 360 790 359 c 0,716,717
 793 357 793 357 802 348 c 0,718,719
 819 334 819 334 833 316 c 0,720,721
 836 313 836 313 837 312 c 0,722,723
 838 310 838 310 840 308 c 0,724,725
 841 306 841 306 842 305 c 256,726,727
 843 304 843 304 844 303 c 0,728,729
 845 301 845 301 846 301 c 2,730,731
 846 301 846 301 848 298 c 0,732,733
 850 296 850 296 850 296 c 257,734,735
 850 296 850 296 852 293 c 0,736,737
 853 291 853 291 854 290 c 0,738,739
 858 285 858 285 860 282 c 0,740,741
 860 281 860 281 861 280 c 256,742,743
 862 279 862 279 863 277 c 0,744,745
 865 275 865 275 866 274 c 0,746,747
 866 273 866 273 867 272 c 0,748,749
 868 270 868 270 871 266 c 0,750,751
 873 262 873 262 874 260 c 256,752,753
 875 258 875 258 876 258 c 1,754,755
 876 257 876 257 878 254 c 128,-1,756
 880 251 880 251 886 240 c 0,757,758
 901 214 901 214 911 189 c 0,759,760
 915 180 915 180 915 179 c 0,761,762
 917 175 917 175 922 161 c 128,-1,763
 927 147 927 147 931 136 c 0,764,765
 955 66 955 66 960 4 c 0,766,767
 961 -9 961 -9 961.5 -23 c 128,-1,768
 962 -37 962 -37 962 -63 c 2,356,-1
114 14 m 0,769,770
 117 13 117 13 124 13 c 0,771,772
 135 13 135 13 140 18 c 0,773,774
 144 22 144 22 145 31 c 0,775,776
 145 40 145 40 153 48 c 0,777,778
 157 52 157 52 163 56 c 0,779,780
 172 61 172 61 173 66 c 0,781,782
 175 73 175 73 168 81 c 0,783,784
 166 84 166 84 160 87 c 0,785,786
 153 90 153 90 144 86 c 0,787,788
 131 79 131 79 118 64 c 0,789,790
 115 61 115 61 111 53 c 0,791,792
 105 40 105 40 105 28 c 0,793,794
 105 23 105 23 108 18 c 0,795,796
 110 15 110 15 114 14 c 0,769,770
254 241 m 0,797,798
 263 238 263 238 270 242 c 0,799,800
 274 243 274 243 276 247 c 0,801,802
 279 251 279 251 279 251 c 2,803,804
 279 252 279 252 282 257.5 c 128,-1,805
 285 263 285 263 286 263 c 1,806,807
 286 264 286 264 291 262 c 0,808,809
 295 259 295 259 298 259 c 0,810,811
 301 258 301 258 310 258 c 128,-1,812
 319 258 319 258 323 258 c 0,813,814
 330 260 330 260 336 267 c 0,815,816
 349 281 349 281 344 298 c 0,817,818
 342 304 342 304 340 307 c 0,819,820
 339 308 339 308 340 309 c 256,821,822
 341 310 341 310 344 311 c 256,823,824
 347 312 347 312 353 315 c 256,825,826
 359 318 359 318 361 320 c 0,827,828
 367 327 367 327 362 338 c 0,829,830
 359 345 359 345 352 348 c 0,831,832
 349 349 349 349 344 349 c 256,833,834
 339 349 339 349 336 348 c 128,-1,835
 333 347 333 347 322 343 c 0,836,837
 318 341 318 341 309 336.5 c 128,-1,838
 300 332 300 332 297 330 c 0,839,840
 287 323 287 323 281 318 c 0,841,842
 277 315 277 315 270.5 308.5 c 128,-1,843
 264 302 264 302 262 299 c 0,844,845
 260 297 260 297 259 296 c 256,846,847
 258 295 258 295 252.5 287 c 128,-1,848
 247 279 247 279 245 273 c 0,849,850
 240 264 240 264 240 259 c 0,851,852
 240 246 240 246 254 241 c 0,797,798
367 453 m 0,853,854
 361 450 361 450 361 450 c 257,855,856
 361 450 361 450 361 460.5 c 128,-1,857
 361 471 361 471 361 486 c 2,858,-1
 361 523 l 1,859,-1
 400 523 l 2,860,861
 417 523 417 523 428.5 523 c 128,-1,862
 440 523 440 523 440 522 c 1,863,864
 441 522 441 522 437 517 c 0,865,866
 434 512 434 512 428 504 c 0,867,868
 421 491 421 491 415 475 c 2,869,-1
 413 471 l 1,870,-1
 408 469 l 2,871,872
 375 457 375 457 367 453 c 0,853,854
700 490 m 2,873,874
 700 477 700 477 700 467.5 c 128,-1,875
 700 458 700 458 700 458 c 257,876,877
 700 458 700 458 697 459 c 0,878,879
 695 460 695 460 693 460 c 0,880,881
 691 461 691 461 685 463 c 256,882,883
 679 465 679 465 670 468 c 128,-1,884
 661 471 661 471 658 471 c 0,885,886
 656 472 656 472 646 474 c 0,887,888
 637 476 637 476 624.5 478.5 c 128,-1,889
 612 481 612 481 607 482 c 0,890,891
 601 482 601 482 595 483 c 0,892,893
 584 485 584 485 567 486 c 0,894,895
 562 487 562 487 562 488 c 0,896,897
 561 490 561 490 560 492 c 0,898,899
 558 494 558 494 556 498 c 0,900,901
 553 501 553 501 553 502 c 0,902,903
 552 503 552 503 551 504 c 0,904,905
 548 510 548 510 540 519 c 0,906,907
 538 522 538 522 538 522 c 2,908,909
 538 523 538 523 562 523 c 128,-1,910
 586 523 586 523 619 523 c 2,911,-1
 700 523 l 1,912,-1
 700 490 l 2,873,874
484 561 m 1,913,-1
 479 558 l 1,914,-1
 409 558 l 1,915,-1
 339 558 l 1,916,-1
 338 559 l 2,917,918
 336 561 336 561 332 564 c 256,919,920
 328 567 328 567 324 569 c 0,921,922
 321 572 321 572 318 574 c 0,923,924
 309 580 309 580 302 585 c 0,925,926
 299 588 299 588 296 590 c 0,927,928
 281 600 281 600 274 606 c 0,929,930
 271 608 271 608 270 608 c 2,931,932
 270 608 270 608 268 610 c 2,933,-1
 265 612 l 1,934,-1
 530 612 l 1,935,-1
 795 612 l 1,936,-1
 793 610 l 2,937,938
 790 608 790 608 790 608 c 2,939,940
 789 608 789 608 786 606 c 0,941,942
 779 600 779 600 764 590 c 0,943,944
 761 588 761 588 758 585 c 0,945,946
 754 582 754 582 750 579 c 0,947,948
 744 575 744 575 736 569 c 0,949,950
 733 567 733 567 729 564 c 0,951,952
 724 560 724 560 723 559 c 2,953,-1
 721 558 l 1,954,-1
 610 558 l 1,955,-1
 498 558 l 1,956,-1
 496 560 l 2,957,958
 493 561 493 561 491 563 c 2,959,-1
 488 564 l 1,960,-1
 484 561 l 1,913,-1
831 712 m 1,961,-1
 831 648 l 1,962,-1
 531 648 l 1,963,-1
 231 648 l 1,964,-1
 231 712 l 1,965,-1
 231 775 l 1,966,-1
 271 775 l 1,967,-1
 311 775 l 1,968,-1
 311 739 l 1,969,-1
 311 703 l 1,970,-1
 401 703 l 1,971,-1
 491 703 l 1,972,-1
 491 739 l 1,973,-1
 491 775 l 1,974,-1
 530 775 l 1,975,-1
 570 775 l 1,976,-1
 570 739 l 1,977,-1
 570 703 l 1,978,-1
 660 703 l 1,979,-1
 750 703 l 1,980,-1
 750 739 l 1,981,-1
 750 775 l 1,982,-1
 790 775 l 1,983,-1
 831 775 l 1,984,-1
 831 712 l 1,961,-1
EndSplineSet
EndChar

StartChar: N
Encoding: 78 78 6
Width: 1090
GlyphClass: 1
Flags: W
LayerCount: 2
Fore
SplineSet
306 -147 m 1,0,-1
 306 -148 l 1,1,-1
 667 -148 l 1,2,-1
 1028 -148 l 1,3,-1
 1028 -57 l 2,4,5
 1028 -18 1028 -18 1027.5 13.5 c 128,-1,6
 1027 45 1027 45 1027 51 c 0,7,8
 1023 156 1023 156 1017 201 c 0,9,10
 998 354 998 354 931 475 c 0,11,12
 901 528 901 528 870 566 c 0,13,14
 809 641 809 641 721 685 c 0,15,16
 650 720 650 720 565 727 c 1,17,-1
 561 727 l 1,18,-1
 556 736 l 2,19,20
 531 780 531 780 492 810 c 2,21,-1
 486 814 l 1,22,-1
 482 810 l 1,23,24
 431 772 431 772 412 714 c 0,25,26
 411 708 411 708 410 708 c 1,27,28
 410 707 410 707 401 717 c 0,29,30
 351 769 351 769 290 803 c 0,31,32
 256 822 256 822 220 835 c 2,33,-1
 215 837 l 1,34,-1
 214 832 l 1,35,36
 212 793 212 793 218 748 c 0,37,38
 223 710 223 710 236 671 c 2,39,-1
 240 661 l 1,40,-1
 233 654 l 2,41,42
 223 643 223 643 211.5 629 c 128,-1,43
 200 615 200 615 195 607 c 0,44,45
 191 601 191 601 186 593 c 0,46,47
 175 575 175 575 171 559 c 0,48,49
 170 552 170 552 168.5 537 c 128,-1,50
 167 522 167 522 167 514 c 0,51,52
 167 494 167 494 150 460 c 0,53,54
 140 440 140 440 128.5 421.5 c 128,-1,55
 117 403 117 403 95 374 c 0,56,57
 65 333 65 333 50 305.5 c 128,-1,58
 35 278 35 278 31 252 c 0,59,60
 30 248 30 248 30 234 c 128,-1,61
 30 220 30 220 31 212 c 0,62,63
 35 179 35 179 45 158 c 0,64,65
 58 132 58 132 81 112 c 0,66,67
 94 100 94 100 119 90 c 2,68,-1
 126 88 l 1,69,-1
 135 88 l 2,70,71
 149 88 149 88 163 92 c 0,72,73
 167 93 167 93 168 93 c 0,74,75
 169 94 169 94 173 87 c 0,76,77
 181 75 181 75 191 69 c 0,78,79
 204 61 204 61 220 62 c 0,80,81
 241 63 241 63 252 74 c 0,82,83
 257 79 257 79 262 87 c 128,-1,84
 267 95 267 95 277 114 c 256,85,86
 287 133 287 133 291.5 140 c 128,-1,87
 296 147 296 147 300 153 c 0,88,89
 314 175 314 175 336 197 c 0,90,91
 370 230 370 230 420 256 c 0,92,93
 434 263 434 263 444 267.5 c 128,-1,94
 454 272 454 272 477 281 c 0,95,96
 499 289 499 289 521 306 c 2,97,-1
 526 310 l 1,98,-1
 526 306 l 2,99,100
 527 275 527 275 515 239 c 0,101,102
 503 204 503 204 482 178 c 0,103,104
 478 174 478 174 459 154 c 128,-1,105
 440 134 440 134 402 95 c 0,106,107
 374 67 374 67 363.5 54 c 128,-1,108
 353 41 353 41 345 26 c 0,109,110
 324 -12 324 -12 314 -43 c 0,111,112
 308 -62 308 -62 306 -75.5 c 128,-1,113
 304 -89 304 -89 303 -109 c 0,114,115
 302 -141 302 -141 306 -147 c 1,0,-1
957 -101 m 2,116,-1
 957 -107 l 1,117,-1
 653 -107 l 1,118,-1
 349 -107 l 1,119,-1
 349 -101 l 2,120,121
 348 -83 348 -83 352 -61 c 0,122,123
 363 -11 363 -11 402 38 c 0,124,125
 426 68 426 68 466 103 c 0,126,127
 520 148 520 148 540 185 c 0,128,129
 549 201 549 201 557 223.5 c 128,-1,130
 565 246 565 246 568 264 c 0,131,132
 575 307 575 307 563 345 c 1,133,-1
 562 350 l 1,134,-1
 565 354 l 2,135,136
 582 380 582 380 591 410 c 0,137,138
 597 431 597 431 599 455 c 0,139,140
 600 477 600 477 593 484 c 0,141,142
 590 487 590 487 586 489 c 0,143,144
 582 490 582 490 576 490 c 0,145,146
 555 488 555 488 558 473 c 0,147,148
 558 469 558 469 558 458 c 128,-1,149
 558 447 558 447 558 441 c 0,150,151
 556 423 556 423 547 404 c 0,152,153
 524 352 524 352 475 325 c 0,154,155
 468 321 468 321 453 314 c 128,-1,156
 438 307 438 307 423 301 c 0,157,158
 403 293 403 293 390 286 c 128,-1,159
 377 279 377 279 358 265 c 0,160,161
 345 255 345 255 326.5 239.5 c 128,-1,162
 308 224 308 224 299 213 c 0,163,164
 274 184 274 184 245 128 c 0,165,166
 238 113 238 113 234.5 107.5 c 128,-1,167
 231 102 231 102 227 98 c 0,168,169
 214 86 214 86 205 95 c 0,170,171
 202 99 202 99 199 106 c 2,172,-1
 197 111 l 1,173,-1
 202 117 l 2,174,175
 218 138 218 138 226 162 c 0,176,177
 230 174 230 174 231 177 c 0,178,179
 231 182 231 182 228 188 c 0,180,181
 223 196 223 196 214 194 c 0,182,183
 204 192 204 192 191 163 c 0,184,185
 181 142 181 142 164 135 c 0,186,187
 155 130 155 130 145 130 c 0,188,189
 132 130 132 130 121 135 c 0,190,191
 111 140 111 140 99 150 c 0,192,193
 82 166 82 166 75 185 c 0,194,195
 69 203 69 203 69 225 c 0,196,197
 69 238 69 238 72 249 c 0,198,199
 80 281 80 281 96 305 c 0,200,201
 119 338 119 338 143.5 376 c 128,-1,202
 168 414 168 414 182 437 c 0,203,204
 199 466 199 466 205 497 c 2,205,-1
 207 504 l 1,206,-1
 206 517 l 2,207,208
 205 527 205 527 205.5 531 c 128,-1,209
 206 535 206 535 208 542 c 0,210,211
 212 558 212 558 232 590 c 0,212,213
 240 603 240 603 250 614 c 2,214,-1
 255 620 l 1,215,-1
 259 612 l 2,216,217
 266 599 266 599 271 594 c 128,-1,218
 276 589 276 589 282 589 c 0,219,220
 297 589 297 589 302 604 c 0,221,222
 304 609 304 609 303 612.5 c 128,-1,223
 302 616 302 616 298 624 c 0,224,225
 264 690 264 690 256 766 c 0,226,227
 255 774 255 774 255 775 c 256,228,229
 255 776 255 776 264 771 c 0,230,231
 310 747 310 747 348 713 c 0,232,233
 354 708 354 708 361.5 700.5 c 128,-1,234
 369 693 369 693 369 693 c 2,235,236
 369 692 369 692 366 691 c 0,237,238
 356 686 356 686 341 678 c 128,-1,239
 326 670 326 670 324 668 c 256,240,241
 322 666 322 666 320 663 c 0,242,243
 319 660 319 660 319 656 c 0,244,245
 320 643 320 643 330 637 c 0,246,247
 333 635 333 635 337 635 c 256,248,249
 341 635 341 635 345 637 c 0,250,251
 368 649 368 649 377 653 c 0,252,253
 383 655 383 655 391.5 658 c 128,-1,254
 400 661 400 661 400 661 c 257,255,256
 400 661 400 661 400 659 c 0,257,258
 398 653 398 653 401 646 c 0,259,260
 403 640 403 640 409 637 c 0,261,262
 412 635 412 635 420 635 c 256,263,264
 428 635 428 635 431 637 c 0,265,266
 436 640 436 640 438 646 c 0,267,268
 438 648 438 648 439 657 c 0,269,270
 443 699 443 699 463 732 c 0,271,272
 468 740 468 740 477 751 c 128,-1,273
 486 762 486 762 487 762 c 256,274,275
 488 762 488 762 494.5 754.5 c 128,-1,276
 501 747 501 747 505 743 c 0,277,278
 528 713 528 713 537 677 c 0,279,280
 542 657 542 657 542 632 c 0,281,282
 542 623 542 623 542.5 619.5 c 128,-1,283
 543 616 543 616 546 614 c 0,284,285
 551 608 551 608 563 609 c 0,286,287
 578 610 578 610 581 625 c 0,288,289
 582 632 582 632 581 648.5 c 128,-1,290
 580 665 580 665 578 679 c 0,291,292
 577 686 577 686 577 686 c 257,293,294
 577 686 577 686 589.5 683.5 c 128,-1,295
 602 681 602 681 610 679 c 0,296,297
 673 662 673 662 729.5 627.5 c 128,-1,298
 786 593 786 593 823 548 c 0,299,300
 828 542 828 542 832.5 536.5 c 128,-1,301
 837 531 837 531 844 520 c 0,302,303
 867 488 867 488 885 451 c 0,304,305
 900 422 900 422 911 392.5 c 128,-1,306
 922 363 922 363 933 323 c 0,307,308
 944 285 944 285 950 253.5 c 128,-1,309
 956 222 956 222 959 179 c 0,310,311
 960 171 960 171 960 75 c 0,312,313
 960 26 960 26 960 -1.5 c 128,-1,314
 960 -29 960 -29 959.5 -46 c 128,-1,315
 959 -63 959 -63 958 -80 c 0,316,317
 957 -95 957 -95 957 -101 c 2,116,-1
113 201 m 0,318,319
 115 200 115 200 122 200 c 0,320,321
 129 201 129 201 133 203 c 0,322,323
 136 204 136 204 138 207 c 0,324,325
 142 212 142 212 142 219 c 0,326,327
 142 227 142 227 148 236 c 0,328,329
 153 243 153 243 161 248 c 0,330,331
 168 253 168 253 170 258 c 0,332,333
 171 260 171 260 171 264 c 0,334,335
 171 267 171 267 169 271 c 0,336,337
 163 285 163 285 151 285 c 0,338,339
 145 285 145 285 136 278 c 0,340,341
 110 258 110 258 104 227 c 0,342,343
 101 211 101 211 108 204 c 0,344,345
 110 202 110 202 113 201 c 0,318,319
253 454 m 256,346,347
 261 451 261 451 267 454 c 0,348,349
 272 456 272 456 278 468 c 0,350,351
 282 476 282 476 283 478 c 2,352,-1
 284 480 l 1,353,-1
 287 478 l 2,354,355
 294 473 294 473 306.5 472.5 c 128,-1,356
 319 472 319 472 327 476 c 0,357,358
 338 482 338 482 342 499 c 0,359,360
 345 513 345 513 339 525 c 2,361,-1
 337 529 l 1,362,-1
 346 534 l 2,363,364
 355 538 355 538 357 540 c 0,365,366
 359 541 359 541 361 545 c 0,367,368
 362 548 362 548 362 553 c 0,369,370
 361 568 361 568 351 573 c 0,371,372
 344 576 344 576 334 573 c 0,373,374
 323 569 323 569 309 561 c 0,375,376
 274 542 274 542 253 509 c 0,377,378
 245 496 245 496 240 483 c 0,379,380
 235 471 235 471 241 462 c 0,381,382
 245 457 245 457 253 454 c 256,346,347
EndSplineSet
EndChar

StartChar: P
Encoding: 80 80 7
Width: 1090
GlyphClass: 1
Flags: W
LayerCount: 2
Fore
SplineSet
215 -133 m 1,0,-1
 216 -135 l 1,1,-1
 533 -135 l 1,2,-1
 849 -135 l 1,3,-1
 851 -128 l 2,4,5
 863 -95 863 -95 868 -61 c 0,6,7
 870 -48 870 -48 870.5 -38.5 c 128,-1,8
 871 -29 871 -29 871 -12 c 256,9,10
 871 5 871 5 870.5 15 c 128,-1,11
 870 25 870 25 868 38 c 0,12,13
 858 112 858 112 816 174 c 0,14,15
 763 252 763 252 682 292 c 0,16,17
 675 295 675 295 664.5 300 c 128,-1,18
 654 305 654 305 653 305 c 0,19,20
 651 305 651 305 659 309 c 0,21,22
 680 320 680 320 699 338 c 0,23,24
 744 384 744 384 746 446 c 0,25,26
 748 505 748 505 712 550 c 0,27,28
 700 566 700 566 684 578 c 0,29,30
 653 602 653 602 617 608 c 0,31,32
 607 610 607 610 606.5 610.5 c 128,-1,33
 606 611 606 611 611 616 c 0,34,35
 654 652 654 652 652 709 c 0,36,37
 650 747 650 747 629 775 c 0,38,39
 620 787 620 787 607 798 c 0,40,41
 585 816 585 816 557 822 c 0,42,43
 511 831 511 831 473 809 c 0,44,45
 426 781 426 781 415 730 c 0,46,47
 409 698 409 698 418 669 c 0,48,49
 428 638 428 638 454 616 c 0,50,51
 459 611 459 611 458.5 610.5 c 128,-1,52
 458 610 458 610 448 608 c 0,53,54
 394 599 394 599 357 555 c 0,55,56
 326 520 326 520 320 474 c 0,57,58
 319 467 319 467 319 452 c 0,59,60
 319 431 319 431 323 415 c 0,61,62
 330 382 330 382 352 353.5 c 128,-1,63
 374 325 374 325 405 309 c 0,64,65
 413 305 413 305 411 305 c 0,66,67
 410 305 410 305 399.5 300 c 128,-1,68
 389 295 389 295 381 291 c 0,69,70
 301 252 301 252 249 175 c 0,71,72
 190 88 190 88 193 -19 c 0,73,74
 193 -42 193 -42 196 -61 c 0,75,76
 202 -98 202 -98 215 -133 c 1,0,-1
821 -93 m 2,77,-1
 820 -95 l 1,78,-1
 532 -95 l 1,79,-1
 245 -95 l 1,80,-1
 243 -90 l 1,81,82
 225 -29 225 -29 237 40 c 0,83,84
 252 131 252 131 322 201 c 0,85,86
 357 236 357 236 401 257 c 0,87,88
 412 263 412 263 417 263 c 0,89,90
 445 267 445 267 451 291 c 0,91,92
 452 295 452 295 452 304 c 0,93,94
 452 312 452 312 451 317 c 0,95,96
 444 337 444 337 418 349 c 0,97,98
 408 353 408 353 395 366 c 0,99,100
 373 387 373 387 364 413 c 0,101,102
 353 449 353 449 363 485 c 0,103,104
 370 509 370 509 388 530 c 128,-1,105
 406 551 406 551 430 561 c 0,106,107
 444 567 444 567 467 571 c 0,108,109
 480 572 480 572 488 581 c 256,110,111
 496 590 496 590 497 606 c 0,112,113
 498 618 498 618 493 629 c 0,114,115
 491 633 491 633 489 635 c 128,-1,116
 487 637 487 637 480 644 c 0,117,118
 459 665 459 665 454 689 c 0,119,120
 451 705 451 705 454 722 c 0,121,122
 459 744 459 744 477 761 c 0,123,124
 493 778 493 778 516 783 c 0,125,126
 533 786 533 786 549 783 c 0,127,128
 572 778 572 778 589 760 c 0,129,130
 606 743 606 743 610 720 c 0,131,132
 614 704 614 704 610 687 c 0,133,134
 605 663 605 663 585 645 c 0,135,136
 575 635 575 635 571 626 c 0,137,138
 562 607 562 607 572 587 c 0,139,140
 576 579 576 579 584 575 c 0,141,142
 589 573 589 573 592.5 572 c 128,-1,143
 596 571 596 571 606 569 c 0,144,145
 641 564 641 564 668 539 c 0,146,147
 701 508 701 508 706 466 c 0,148,149
 712 414 712 414 680 376 c 0,150,151
 673 368 673 368 663.5 360 c 128,-1,152
 654 352 654 352 649 350 c 0,153,154
 625 340 625 340 617 324 c 0,155,156
 612 314 612 314 613 302 c 0,157,158
 615 269 615 269 646 264 c 0,159,160
 651 263 651 263 653.5 262 c 128,-1,161
 656 261 656 261 664 257 c 0,162,163
 709 235 709 235 743 200 c 0,164,165
 806 137 806 137 825 57 c 0,166,167
 838 0 838 0 829 -58 c 0,168,169
 825 -79 825 -79 821 -93 c 2,77,-1
EndSplineSet
EndChar

StartChar: Q
Encoding: 81 81 8
Width: 1090
GlyphClass: 1
Flags: W
LayerCount: 2
Fore
SplineSet
483 -147 m 0,0,1
 494 -147 494 -147 518.5 -147 c 128,-1,2
 543 -147 543 -147 567.5 -146.5 c 128,-1,3
 592 -146 592 -146 602 -146 c 0,4,5
 667 -143 667 -143 720 -137 c 0,6,7
 830 -124 830 -124 876 -100 c 0,8,9
 880 -98 880 -98 886 -94.5 c 128,-1,10
 892 -91 892 -91 893 -89 c 2,11,12
 893 -89 893 -89 892.5 -85 c 128,-1,13
 892 -81 892 -81 888 -66 c 128,-1,14
 884 -51 884 -51 875 -17 c 2,15,-1
 856 54 l 1,16,-1
 864 101 l 1,17,-1
 872 148 l 1,18,-1
 899 192 l 1,19,-1
 925 237 l 1,20,-1
 942 365 l 2,21,22
 947 400 947 400 951.5 436.5 c 128,-1,23
 956 473 956 473 960 502 c 128,-1,24
 964 531 964 531 966 546 c 0,25,26
 969 568 969 568 971 583.5 c 128,-1,27
 973 599 973 599 973 599 c 2,28,29
 972 600 972 600 959 606 c 2,30,-1
 945 613 l 1,31,-1
 936 598 l 2,32,33
 933 591 933 591 909.5 551.5 c 128,-1,34
 886 512 886 512 856 462 c 0,35,36
 827 412 827 412 806 377 c 128,-1,37
 785 342 785 342 784 342 c 1,38,39
 784 342 784 342 784 363.5 c 128,-1,40
 784 385 784 385 783.5 421.5 c 128,-1,41
 783 458 783 458 783 502 c 0,42,43
 782 546 782 546 781.5 582.5 c 128,-1,44
 781 619 781 619 781 641 c 128,-1,45
 781 663 781 663 781 663 c 1,46,47
 780 663 780 663 770 665 c 128,-1,48
 760 667 760 667 750 668.5 c 128,-1,49
 740 670 740 670 740 670 c 257,50,51
 740 670 740 670 732 648 c 128,-1,52
 724 626 724 626 710 589.5 c 128,-1,53
 696 553 696 553 680 509 c 0,54,55
 619 349 619 349 619 350 c 2,56,57
 619 350 619 350 614.5 373.5 c 128,-1,58
 610 397 610 397 602.5 435.5 c 128,-1,59
 595 474 595 474 586 521 c 256,60,61
 577 568 577 568 570 607 c 128,-1,62
 563 646 563 646 558.5 669.5 c 128,-1,63
 554 693 554 693 554 693 c 1,64,-1
 553 695 l 1,65,-1
 533 695 l 1,66,-1
 513 695 l 1,67,-1
 513 693 l 1,68,69
 513 693 513 693 508 668.5 c 128,-1,70
 503 644 503 644 496 606 c 128,-1,71
 489 568 489 568 481 525 c 128,-1,72
 473 482 473 482 466 444 c 128,-1,73
 459 406 459 406 454 384 c 0,74,75
 452 369 452 369 450 359 c 128,-1,76
 448 349 448 349 447 348 c 0,77,78
 447 347 447 347 386 508 c 0,79,80
 370 553 370 553 356 589.5 c 128,-1,81
 342 626 342 626 334 648 c 128,-1,82
 326 670 326 670 326 670 c 2,83,84
 325 670 325 670 315 668.5 c 128,-1,85
 305 667 305 667 295.5 665 c 128,-1,86
 286 663 286 663 285 663 c 1,87,88
 285 663 285 663 285 641 c 128,-1,89
 285 619 285 619 284.5 582.5 c 128,-1,90
 284 546 284 546 283 502 c 0,91,92
 283 458 283 458 282.5 421.5 c 128,-1,93
 282 385 282 385 281.5 363.5 c 128,-1,94
 281 342 281 342 281 342 c 257,95,96
 281 342 281 342 258 381 c 128,-1,97
 235 420 235 420 202 476 c 0,98,99
 169 531 169 531 145.5 570.5 c 128,-1,100
 122 610 122 610 122 611 c 0,101,102
 121 612 121 612 119 611.5 c 128,-1,103
 117 611 117 611 107 606 c 0,104,105
 93 601 93 601 93 600 c 2,106,107
 93 600 93 600 97.5 566 c 128,-1,108
 102 532 102 532 108 484 c 0,109,110
 112 453 112 453 117 417.5 c 128,-1,111
 122 382 122 382 126.5 351.5 c 128,-1,112
 131 321 131 321 133 302 c 2,113,-1
 142 236 l 1,114,-1
 168 191 l 1,115,-1
 194 147 l 1,116,-1
 202 101 l 1,117,-1
 210 54 l 1,118,-1
 192 -16 l 1,119,-1
 173 -86 l 1,120,-1
 175 -88 l 2,121,122
 193 -105 193 -105 248 -119 c 0,123,124
 342 -142 342 -142 483 -147 c 0,0,1
604 -107 m 0,125,126
 598 -108 598 -108 583 -108 c 128,-1,127
 568 -108 568 -108 549.5 -108 c 128,-1,128
 531 -108 531 -108 516 -108 c 128,-1,129
 501 -108 501 -108 495 -108 c 0,130,131
 353 -104 353 -104 263 -82 c 0,132,133
 250 -78 250 -78 235.5 -73.5 c 128,-1,134
 221 -69 221 -69 221 -69 c 2,135,136
 221 -68 221 -68 222 -68 c 256,137,138
 223 -68 223 -68 231 -65 c 0,139,140
 311 -32 311 -32 457 -24 c 0,141,142
 495 -22 495 -22 542 -22.5 c 128,-1,143
 589 -23 589 -23 627 -25 c 0,144,145
 756 -33 756 -33 837 -64 c 0,146,147
 846 -67 846 -67 846 -68 c 2,148,149
 846 -68 846 -68 838 -71 c 0,150,151
 795 -87 795 -87 739 -95.5 c 128,-1,152
 683 -104 683 -104 604 -107 c 0,125,126
246 -10 m 0,153,154
 236 -13 236 -13 235 -13 c 0,155,156
 234 -14 234 -14 234 -13 c 256,157,158
 234 -12 234 -12 237 -2.5 c 128,-1,159
 240 7 240 7 243 20 c 2,160,-1
 252 52 l 1,161,-1
 248 76 l 2,162,163
 245 101 245 101 245 101 c 2,164,165
 246 102 246 102 260 105 c 128,-1,166
 274 108 274 108 283 109 c 0,167,168
 393 130 393 130 554 129 c 0,169,170
 628 128 628 128 685.5 123 c 128,-1,171
 743 118 743 118 794 108 c 0,172,173
 804 106 804 106 812.5 104 c 128,-1,174
 821 102 821 102 821 102 c 2,175,176
 822 102 822 102 821 94.5 c 128,-1,177
 820 87 820 87 818 76 c 2,178,-1
 815 51 l 1,179,-1
 823 20 l 2,180,181
 826 7 826 7 828.5 -2.5 c 128,-1,182
 831 -12 831 -12 832 -12 c 1,183,184
 832 -13 832 -13 831 -13 c 0,185,186
 829 -12 829 -12 811.5 -8 c 128,-1,187
 794 -4 794 -4 786 -2 c 0,188,189
 747 6 747 6 704 10.5 c 128,-1,190
 661 15 661 15 602 18 c 0,191,192
 593 18 593 18 574.5 18 c 128,-1,193
 556 18 556 18 534 18 c 128,-1,194
 512 18 512 18 493.5 18 c 128,-1,195
 475 18 475 18 466 18 c 0,196,197
 328 12 328 12 246 -10 c 0,153,154
248 149 m 0,198,199
 238 146 238 146 238 146 c 2,200,201
 237 146 237 146 236 147.5 c 128,-1,202
 235 149 235 149 229 159.5 c 128,-1,203
 223 170 223 170 208 199 c 0,204,205
 199 217 199 217 191.5 231 c 128,-1,206
 184 245 184 245 183 247 c 2,207,-1
 180 252 l 1,208,-1
 187 250 l 2,209,210
 215 240 215 240 245 241 c 0,211,212
 279 243 279 243 308 257 c 0,213,214
 322 264 322 264 334 273 c 0,215,216
 349 284 349 284 362 299 c 2,217,-1
 366 304 l 1,218,-1
 370 301 l 2,219,220
 392 284 392 284 419 278 c 0,221,222
 433 275 433 275 448 276 c 0,223,224
 493 278 493 278 526 310 c 2,225,-1
 533 317 l 1,226,-1
 535 314 l 2,227,228
 561 282 561 282 598 275 c 0,229,230
 654 264 654 264 697 299 c 2,231,-1
 701 302 l 1,232,-1
 706 296 l 2,233,234
 718 281 718 281 731 270 c 0,235,236
 769 240 769 240 820 238 c 0,237,238
 850 237 850 237 879 247 c 2,239,-1
 885 249 l 1,240,-1
 882 242 l 2,241,242
 880 240 880 240 872 225 c 128,-1,243
 864 210 864 210 855 191 c 0,244,245
 845 173 845 173 838 159.5 c 128,-1,246
 831 146 831 146 831 146 c 257,247,248
 831 146 831 146 824 148 c 0,249,250
 744 168 744 168 622 173 c 0,251,252
 580 175 580 175 529 175 c 128,-1,253
 478 175 478 175 436 173 c 0,254,255
 323 167 323 167 248 149 c 0,198,199
837 279 m 0,256,257
 826 278 826 278 817 279 c 0,258,259
 811 280 811 280 804 281.5 c 128,-1,260
 797 283 797 283 797 284 c 2,261,262
 797 284 797 284 810 306.5 c 128,-1,263
 823 329 823 329 842 361.5 c 128,-1,264
 861 394 861 394 880 426.5 c 128,-1,265
 899 459 899 459 912 481.5 c 128,-1,266
 925 504 925 504 925 504 c 257,267,268
 925 504 925 504 920.5 474 c 128,-1,269
 916 444 916 444 909 403 c 2,270,-1
 893 302 l 1,271,-1
 891 300 l 2,272,273
 885 295 885 295 872 289 c 0,274,275
 856 281 856 281 837 279 c 0,256,257
256 284 m 0,276,277
 242 281 242 281 228 283 c 0,278,279
 213 285 213 285 197 292 c 0,280,281
 193 294 193 294 185.5 298.5 c 128,-1,282
 178 303 178 303 176 304 c 2,283,-1
 174 306 l 1,284,-1
 158 404 l 2,285,286
 151 445 151 445 146.5 473.5 c 128,-1,287
 142 502 142 502 142 502 c 257,288,289
 142 502 142 502 160.5 470.5 c 128,-1,290
 179 439 179 439 204 395 c 0,291,292
 230 351 230 351 248.5 319 c 128,-1,293
 267 287 267 287 267 287 c 2,294,295
 268 286 268 286 256 284 c 0,276,277
745 514 m 2,296,297
 746 486 746 486 746 446.5 c 128,-1,298
 746 407 746 407 745 379 c 2,299,-1
 745 311 l 1,300,-1
 742 314 l 2,301,302
 739 317 739 317 737 321 c 0,303,304
 731 329 731 329 724 334 c 0,305,306
 700 350 700 350 678 335 c 0,307,308
 673 332 673 332 670 329 c 0,309,310
 664 322 664 322 654 318 c 0,311,312
 649 316 649 316 649 316 c 257,313,314
 649 316 649 316 663 355 c 128,-1,315
 677 394 677 394 697 449 c 2,316,-1
 745 581 l 1,317,-1
 745 514 l 2,296,297
327 323 m 0,318,319
 326 320 326 320 323 317 c 2,320,-1
 320 315 l 1,321,-1
 320 448 l 1,322,-1
 320 581 l 1,323,-1
 325 570 l 2,324,325
 326 566 326 566 335 540.5 c 128,-1,326
 344 515 344 515 357 480 c 128,-1,327
 370 445 370 445 383 410 c 128,-1,328
 396 375 396 375 404.5 351 c 128,-1,329
 413 327 413 327 414 324 c 2,330,-1
 416 319 l 1,331,-1
 414 320 l 2,332,333
 403 324 403 324 396 331 c 0,334,335
 390 337 390 337 384 340 c 256,336,337
 378 343 378 343 375 343 c 0,338,339
 364 346 364 346 352 343 c 0,340,341
 336 339 336 339 327 323 c 0,318,319
559 464 m 0,342,343
 569 406 569 406 576 364 c 128,-1,344
 583 322 583 322 583 322 c 2,345,346
 583 321 583 321 576 327 c 0,347,348
 572 330 572 330 569 337 c 0,349,350
 560 356 560 356 536 358 c 0,351,352
 510 359 510 359 495 337 c 0,353,354
 491 329 491 329 488 328 c 0,355,356
 486 327 486 327 485 326 c 2,357,-1
 484 325 l 1,358,-1
 484 326 l 2,359,360
 484 327 484 327 488.5 353 c 128,-1,361
 493 379 493 379 500.5 420 c 128,-1,362
 508 461 508 461 516 506.5 c 128,-1,363
 524 552 524 552 531 593 c 0,364,365
 533 607 533 607 533 607 c 2,366,367
 534 607 534 607 541 565 c 128,-1,368
 548 523 548 523 559 464 c 0,342,343
62 602 m 0,369,370
 66 602 66 602 75.5 602 c 128,-1,371
 85 602 85 602 88 603 c 0,372,373
 109 608 109 608 124 621 c 0,374,375
 153 647 153 647 151 685 c 0,376,377
 150 708 150 708 138 726 c 0,378,379
 135 730 135 730 128 737.5 c 128,-1,380
 121 745 121 745 116 748 c 0,381,382
 95 762 95 762 68 761 c 0,383,384
 37 760 37 760 15 738 c 0,385,386
 -10 714 -10 714 -8 679 c 0,387,388
 -7 647 -7 647 15 625 c 0,389,390
 28 612 28 612 44 606 c 0,391,392
 53 603 53 603 62 602 c 0,369,370
86 644 m 0,393,394
 74 641 74 641 61 643 c 0,395,396
 31 649 31 649 33 685 c 0,397,398
 34 702 34 702 42 710 c 0,399,400
 52 720 52 720 72 720 c 0,401,402
 85 720 85 720 93 716 c 0,403,404
 105 710 105 710 109 695 c 0,405,406
 113 681 113 681 109 668 c 0,407,408
 104 649 104 649 86 644 c 0,393,394
985 602 m 0,409,410
 998 600 998 600 1011 603 c 0,411,412
 1033 607 1033 607 1049.5 622.5 c 128,-1,413
 1066 638 1066 638 1072 659 c 0,414,415
 1079 684 1079 684 1072 707 c 0,416,417
 1066 724 1066 724 1052 738 c 0,418,419
 1034 756 1034 756 1011 760 c 0,420,421
 996 763 996 763 980 760 c 0,422,423
 957 755 957 755 939 738 c 0,424,425
 921 720 921 720 917 697 c 0,426,427
 916 692 916 692 916 681.5 c 128,-1,428
 916 671 916 671 917 666 c 0,429,430
 919 655 919 655 923 647 c 0,431,432
 943 607 943 607 985 602 c 0,409,410
1009 644 m 0,433,434
 998 641 998 641 987 643 c 0,435,436
 964 647 964 647 958 668 c 0,437,438
 954 681 954 681 958 695 c 0,439,440
 963 713 963 713 981 719 c 0,441,442
 986 720 986 720 996 720 c 0,443,444
 1010 720 1010 720 1018 716 c 256,445,446
 1026 712 1026 712 1030 703 c 0,447,448
 1034 695 1034 695 1034 681 c 0,449,450
 1034 668 1034 668 1030 660 c 0,451,452
 1024 648 1024 648 1009 644 c 0,433,434
276 667 m 0,453,454
 290 665 290 665 304 668 c 0,455,456
 333 674 333 674 351 698 c 0,457,458
 360 710 360 710 363 722 c 0,459,460
 370 747 370 747 363 771 c 0,461,462
 350 810 350 810 311 822 c 0,463,464
 300 826 300 826 286 826 c 0,465,466
 267 826 267 826 252 818 c 0,467,468
 221 803 221 803 210 771 c 0,469,470
 207 760 207 760 207 745 c 256,471,472
 207 730 207 730 211 719 c 0,473,474
 218 698 218 698 236 683.5 c 128,-1,475
 254 669 254 669 276 667 c 0,453,454
301 709 m 0,476,477
 290 706 290 706 277 708 c 0,478,479
 268 709 268 709 262 713 c 0,480,481
 252 719 252 719 249 733 c 0,482,483
 245 746 245 746 249 760 c 0,484,485
 254 779 254 779 274 784 c 0,486,487
 287 787 287 787 300 784 c 0,488,489
 318 779 318 779 324 760 c 0,490,491
 325 755 325 755 325 746 c 0,492,493
 325 726 325 726 315 717 c 0,494,495
 310 711 310 711 301 709 c 0,476,477
768 667 m 0,496,497
 783 665 783 665 797 668 c 0,498,499
 825 674 825 674 844 698 c 0,500,501
 852 710 852 710 856 722 c 0,502,503
 863 747 863 747 855 771 c 0,504,505
 843 810 843 810 804 822 c 0,506,507
 793 826 793 826 779 826 c 0,508,509
 759 826 759 826 744 818 c 0,510,511
 714 803 714 803 703 771 c 0,512,513
 700 760 700 760 700 745 c 256,514,515
 700 730 700 730 704 719 c 0,516,517
 711 698 711 698 729 683.5 c 128,-1,518
 747 669 747 669 768 667 c 0,496,497
794 709 m 0,519,520
 782 706 782 706 770 708 c 0,521,522
 761 709 761 709 755 713 c 0,523,524
 745 719 745 719 742 733 c 0,525,526
 738 746 738 746 742 760 c 0,527,528
 747 779 747 779 767 784 c 0,529,530
 780 787 780 787 793 784 c 0,531,532
 811 779 811 779 817 760 c 0,533,534
 818 755 818 755 818 746 c 0,535,536
 818 726 818 726 808 717 c 0,537,538
 802 711 802 711 794 709 c 0,519,520
524 696 m 0,539,540
 559 693 559 693 585 715 c 0,541,542
 606 733 606 733 612 759 c 0,543,544
 615 775 615 775 612 791 c 0,545,546
 605 825 605 825 574 844 c 0,547,548
 554 856 554 856 529 855 c 0,549,550
 498 854 498 854 477 832 c 0,551,552
 452 807 452 807 453 772 c 0,553,554
 455 741 455 741 477 718 c 0,555,556
 490 706 490 706 506 700 c 0,557,558
 515 697 515 697 524 696 c 0,539,540
542 738 m 0,559,560
 528 736 528 736 516 739 c 0,561,562
 504 743 504 743 499 754 c 0,563,564
 495 762 495 762 495 776 c 0,565,566
 495 795 495 795 504 805 c 0,567,568
 510 810 510 810 519 813 c 0,569,570
 523 814 523 814 533 814 c 256,571,572
 543 814 543 814 547 813 c 0,573,574
 557 810 557 810 562 804 c 0,575,576
 572 795 572 795 572 776 c 0,577,578
 572 767 572 767 571 762 c 0,579,580
 565 741 565 741 542 738 c 0,559,560
EndSplineSet
EndChar

StartChar: R
Encoding: 82 82 9
Width: 1090
GlyphClass: 1
Flags: W
LayerCount: 2
Fore
SplineSet
130 -80 m 1,0,-1
 130 -150 l 1,1,-1
 530 -150 l 1,2,-1
 930 -150 l 1,3,-1
 930 -80 l 1,4,-1
 930 -10 l 1,5,-1
 885 -10 l 1,6,-1
 840 -10 l 1,7,-1
 840 50 l 1,8,-1
 840 110 l 1,9,-1
 791 160 l 1,10,-1
 741 210 l 1,11,-1
 741 350 l 1,12,-1
 741 490 l 1,13,-1
 806 540 l 1,14,-1
 871 590 l 1,15,-1
 871 700 l 1,16,-1
 871 810 l 1,17,-1
 791 810 l 1,18,-1
 710 810 l 1,19,-1
 710 769 l 1,20,-1
 710 729 l 1,21,-1
 661 729 l 1,22,-1
 611 729 l 1,23,-1
 611 769 l 1,24,-1
 611 810 l 1,25,-1
 531 810 l 1,26,-1
 450 810 l 1,27,-1
 450 769 l 1,28,-1
 450 729 l 1,29,-1
 400 729 l 1,30,-1
 350 729 l 1,31,-1
 350 769 l 1,32,-1
 350 810 l 1,33,-1
 270 810 l 1,34,-1
 190 810 l 1,35,-1
 190 700 l 1,36,-1
 190 590 l 1,37,-1
 255 540 l 1,38,-1
 320 490 l 1,39,-1
 320 350 l 1,40,-1
 320 210 l 1,41,-1
 270 160 l 1,42,-1
 220 110 l 1,43,-1
 220 50 l 1,44,-1
 220 -10 l 1,45,-1
 175 -10 l 1,46,-1
 130 -10 l 1,47,-1
 130 -80 l 1,0,-1
891 -80 m 1,48,-1
 891 -110 l 1,49,-1
 531 -110 l 1,50,-1
 170 -110 l 1,51,-1
 170 -80 l 1,52,-1
 170 -50 l 1,53,-1
 531 -50 l 1,54,-1
 891 -50 l 1,55,-1
 891 -80 l 1,48,-1
800 30 m 1,56,-1
 800 -10 l 1,57,-1
 531 -10 l 1,58,-1
 261 -10 l 1,59,-1
 261 30 l 1,60,-1
 261 70 l 1,61,-1
 531 70 l 1,62,-1
 800 70 l 1,63,-1
 800 30 l 1,56,-1
755 140 m 1,64,-1
 785 110 l 1,65,-1
 530 110 l 2,66,67
 460 110 460 110 402.5 110 c 128,-1,68
 345 110 345 110 310.5 110 c 128,-1,69
 276 110 276 110 276 110 c 257,70,71
 276 110 276 110 284.5 119 c 128,-1,72
 293 128 293 128 306 140 c 2,73,-1
 336 170 l 1,74,-1
 531 170 l 1,75,-1
 725 170 l 1,76,-1
 755 140 l 1,64,-1
700 350 m 1,77,-1
 700 210 l 1,78,-1
 531 210 l 1,79,-1
 361 210 l 1,80,-1
 361 350 l 1,81,-1
 361 490 l 1,82,-1
 531 490 l 1,83,-1
 700 490 l 1,84,-1
 700 350 l 1,77,-1
758 560 m 1,85,-1
 721 530 l 1,86,-1
 531 530 l 1,87,-1
 340 530 l 1,88,-1
 303 560 l 1,89,-1
 266 590 l 1,90,-1
 398 590 l 2,91,92
 435 590 435 590 482.5 590 c 128,-1,93
 530 590 530 590 578 590 c 128,-1,94
 626 590 626 590 663 590 c 2,95,-1
 795 590 l 1,96,-1
 758 560 l 1,85,-1
831 700 m 1,97,-1
 831 630 l 1,98,-1
 531 630 l 1,99,-1
 231 630 l 1,100,-1
 231 700 l 1,101,-1
 231 770 l 1,102,-1
 271 770 l 1,103,-1
 311 770 l 1,104,-1
 311 730 l 1,105,-1
 311 689 l 1,106,-1
 401 689 l 1,107,-1
 491 689 l 1,108,-1
 491 730 l 1,109,-1
 491 770 l 1,110,-1
 530 770 l 1,111,-1
 570 770 l 1,112,-1
 570 730 l 1,113,-1
 570 689 l 1,114,-1
 660 689 l 1,115,-1
 750 689 l 1,116,-1
 750 730 l 1,117,-1
 750 770 l 1,118,-1
 790 770 l 1,119,-1
 831 770 l 1,120,-1
 831 700 l 1,97,-1
EndSplineSet
EndChar

StartChar: a
Encoding: 97 97 10
Width: 1090
GlyphClass: 1
Flags: W
LayerCount: 2
Fore
SplineSet
361 -126 m 257,0,1
 361 -126 361 -126 406.5 -126 c 128,-1,2
 452 -126 452 -126 527.5 -126.5 c 128,-1,3
 603 -127 603 -127 695 -127 c 2,4,-1
 1029 -127 l 1,5,-1
 1029 -117 l 2,6,7
 1028 -96 1028 -96 1026.5 -71.5 c 128,-1,8
 1025 -47 1025 -47 1024 -32 c 0,9,10
 1015 60 1015 60 985 137 c 0,11,12
 980 149 980 149 979 152 c 0,13,14
 978 154 978 154 974 162 c 0,15,16
 971 169 971 169 965.5 180.5 c 128,-1,17
 960 192 960 192 957 197 c 256,18,19
 954 202 954 202 953 205 c 0,20,21
 950 209 950 209 945 218 c 128,-1,22
 940 227 940 227 938 230 c 0,23,24
 937 231 937 231 935 235 c 0,25,26
 932 239 932 239 931 239 c 1,27,28
 931 240 931 240 927 246 c 256,29,30
 923 252 923 252 922 253 c 2,31,32
 922 253 922 253 919 258 c 0,33,34
 914 264 914 264 909 271 c 128,-1,35
 904 278 904 278 902 280 c 2,36,37
 902 280 902 280 900 282 c 0,38,39
 898 285 898 285 892 293 c 0,40,41
 891 294 891 294 890 295 c 256,42,43
 889 296 889 296 885 301 c 0,44,45
 877 309 877 309 866 320 c 0,46,47
 857 329 857 329 853.5 332.5 c 128,-1,48
 850 336 850 336 841 344 c 0,49,50
 831 352 831 352 828.5 354 c 128,-1,51
 826 356 826 356 820 360 c 0,52,53
 813 366 813 366 811 367 c 0,54,55
 809 369 809 369 809 369 c 2,56,57
 808 369 808 369 806 370 c 0,58,59
 804 372 804 372 803 372 c 2,60,61
 803 372 803 372 798 375 c 0,62,63
 794 379 794 379 793 379 c 2,64,65
 793 379 793 379 791 380 c 256,66,67
 789 381 789 381 786 383 c 128,-1,68
 783 385 783 385 783 385 c 2,69,70
 782 385 782 385 781 386 c 0,71,72
 779 387 779 387 776 389 c 0,73,74
 774 390 774 390 771 392 c 0,75,76
 768 393 768 393 765 395 c 0,77,78
 760 398 760 398 759.5 398.5 c 128,-1,79
 759 399 759 399 759 400 c 0,80,81
 760 402 760 402 761 402 c 0,82,83
 762 403 762 403 765 409 c 0,84,85
 767 412 767 412 767 412 c 2,86,87
 768 413 768 413 772.5 422 c 128,-1,88
 777 431 777 431 779 437 c 0,89,90
 788 464 788 464 786 491 c 0,91,92
 785 525 785 525 767 560 c 0,93,94
 764 566 764 566 762 570 c 0,95,96
 756 578 756 578 753 581 c 0,97,98
 753 582 753 582 751 584 c 0,99,100
 749 587 749 587 741 594.5 c 128,-1,101
 733 602 733 602 731 604 c 0,102,103
 728 606 728 606 725 608 c 0,104,105
 721 612 721 612 713 617 c 0,106,107
 708 620 708 620 706 622 c 0,108,109
 703 623 703 623 703 623 c 257,110,111
 703 623 703 623 700 625 c 0,112,113
 698 627 698 627 698 627 c 2,114,115
 697 627 697 627 695 628 c 0,116,117
 693 630 693 630 693 630 c 2,118,119
 692 630 692 630 690 632 c 0,120,121
 688 633 688 633 688 633 c 257,122,123
 688 633 688 633 680 638 c 0,124,125
 673 643 673 643 672 644 c 0,126,127
 671 644 671 644 663 650 c 0,128,129
 662 651 662 651 659 653 c 0,130,131
 655 655 655 655 654 657 c 0,132,133
 649 660 649 660 644 663 c 0,134,135
 641 665 641 665 641 666 c 0,136,137
 640 667 640 667 639 667 c 2,138,139
 639 667 639 667 637 668 c 0,140,141
 636 670 636 670 635 670 c 256,142,143
 634 670 634 670 633 672 c 0,144,145
 631 673 631 673 631 673 c 2,146,147
 630 673 630 673 627 676 c 0,148,149
 623 679 623 679 619 682 c 0,150,151
 613 687 613 687 605 694 c 128,-1,152
 597 701 597 701 596 702 c 256,153,154
 595 703 595 703 592 705 c 0,155,156
 590 707 590 707 584 712.5 c 128,-1,157
 578 718 578 718 573 723 c 2,158,-1
 568 728 l 1,159,-1
 572 730 l 2,160,161
 578 733 578 733 584 737 c 0,162,163
 593 743 593 743 599 750 c 0,164,165
 601 753 601 753 601 753 c 2,166,167
 602 754 602 754 606 762 c 0,168,169
 615 781 615 781 610 802 c 0,170,171
 606 818 606 818 594 830 c 0,172,173
 584 840 584 840 573 846 c 0,174,175
 570 847 570 847 569 848 c 0,176,177
 565 850 565 850 554 853 c 0,178,179
 548 855 548 855 545.5 855 c 128,-1,180
 543 855 543 855 532 855 c 256,181,182
 521 855 521 855 518 855 c 128,-1,183
 515 855 515 855 511 854 c 0,184,185
 503 852 503 852 495 848.5 c 128,-1,186
 487 845 487 845 485 843 c 0,187,188
 484 842 484 842 483 842 c 2,189,190
 483 842 483 842 478.5 838.5 c 128,-1,191
 474 835 474 835 470 831 c 0,192,193
 451 812 451 812 452 785 c 0,194,195
 453 762 453 762 468 746 c 0,196,197
 471 744 471 744 475 740.5 c 128,-1,198
 479 737 479 737 479 737 c 2,199,200
 480 737 480 737 482 735 c 256,201,202
 484 733 484 733 491 730 c 2,203,-1
 495 728 l 1,204,-1
 490 722 l 2,205,206
 484 717 484 717 480 713 c 0,207,208
 476 710 476 710 473 707 c 0,209,210
 468 702 468 702 445 683 c 0,211,212
 441 680 441 680 440 680 c 2,213,214
 440 680 440 680 439 679 c 256,215,216
 438 678 438 678 429 671.5 c 128,-1,217
 420 665 420 665 419 664 c 256,218,219
 418 663 418 663 416 662 c 0,220,221
 413 659 413 659 404 653 c 0,222,223
 403 652 403 652 399 650 c 0,224,225
 395 647 395 647 390 643.5 c 128,-1,226
 385 640 385 640 373 632 c 0,227,228
 359 623 359 623 357 622 c 0,229,230
 356 620 356 620 351 617 c 0,231,232
 344 613 344 613 337 608 c 0,233,234
 323 598 323 598 311 583 c 0,235,236
 298 568 298 568 289 547 c 0,237,238
 284 533 284 533 281 523 c 0,239,240
 281 520 281 520 278 522 c 256,241,242
 275 524 275 524 263 528.5 c 128,-1,243
 251 533 251 533 243 536 c 0,244,245
 217 545 217 545 217 544 c 1,246,247
 216 544 216 544 215.5 530.5 c 128,-1,248
 215 517 215 517 216 507 c 0,249,250
 218 453 218 453 238 403 c 0,251,252
 241 396 241 396 240.5 394.5 c 128,-1,253
 240 393 240 393 235 389 c 0,254,255
 231 386 231 386 221 375.5 c 128,-1,256
 211 365 211 365 206 361 c 0,257,258
 199 353 199 353 197 349 c 0,259,260
 196 347 196 347 193 344 c 0,261,262
 179 326 179 326 175 313 c 0,263,264
 170 299 170 299 169 274 c 0,265,266
 169 260 169 260 164 248 c 0,267,268
 160 237 160 237 152 224 c 0,269,270
 150 219 150 219 145 211.5 c 128,-1,271
 140 204 140 204 139 203 c 256,272,273
 138 202 138 202 134 197 c 0,274,275
 131 192 131 192 127 187 c 256,276,277
 123 182 123 182 122 180 c 0,278,279
 120 178 120 178 119 176 c 0,280,281
 118 175 118 175 116 173 c 0,282,283
 115 172 115 172 113 170 c 0,284,285
 112 168 112 168 111 167 c 256,286,287
 110 166 110 166 107 162 c 0,288,289
 103 158 103 158 102 157 c 256,290,291
 101 156 101 156 98 152 c 0,292,293
 95 149 95 149 94 147 c 0,294,295
 90 143 90 143 82 133.5 c 128,-1,296
 74 124 74 124 71 120 c 0,297,298
 70 118 70 118 69 118 c 0,299,300
 68 117 68 117 64.5 111.5 c 128,-1,301
 61 106 61 106 59 104 c 0,302,303
 57 101 57 101 57 101 c 2,304,305
 56 99 56 99 51.5 92 c 128,-1,306
 47 85 47 85 45 80 c 0,307,308
 30 51 30 51 32 21 c 0,309,310
 36 -19 36 -19 55 -44 c 0,311,312
 59 -49 59 -49 60.5 -50.5 c 128,-1,313
 62 -52 62 -52 67 -58 c 0,314,315
 79 -69 79 -69 86 -74 c 0,316,317
 99 -83 99 -83 114 -88 c 0,318,319
 117 -88 117 -88 121 -90 c 256,320,321
 125 -92 125 -92 131 -92 c 0,322,323
 147 -92 147 -92 161 -89 c 0,324,325
 167 -88 167 -88 169 -88 c 0,326,327
 171 -87 171 -87 175 -92 c 0,328,329
 176 -93 176 -93 177 -95 c 0,330,331
 178 -96 178 -96 179 -97 c 2,332,333
 179 -97 179 -97 183 -100.5 c 128,-1,334
 187 -104 187 -104 189 -105 c 0,335,336
 197 -111 197 -111 211 -114 c 0,337,338
 220 -115 220 -115 233.5 -112.5 c 128,-1,339
 247 -110 247 -110 252 -105 c 0,340,341
 253 -104 253 -104 254 -104 c 256,342,343
 255 -104 255 -104 260 -97.5 c 128,-1,344
 265 -91 265 -91 269 -86 c 0,345,346
 272 -82 272 -82 272 -81 c 1,347,348
 273 -81 273 -81 273 -80 c 0,349,350
 274 -79 274 -79 278.5 -71.5 c 128,-1,351
 283 -64 283 -64 286 -59 c 0,352,353
 295 -46 295 -46 295 -45 c 0,354,355
 296 -44 296 -44 298 -41 c 256,356,357
 300 -38 300 -38 300 -38 c 2,358,359
 301 -38 301 -38 303 -35 c 256,360,361
 305 -32 305 -32 310 -27 c 0,362,363
 321 -14 321 -14 336 -1 c 0,364,365
 347 8 347 8 349 10 c 0,366,367
 356 15 356 15 361 18 c 0,368,369
 362 18 362 18 367 22 c 0,370,371
 371 25 371 25 372 25 c 2,372,373
 372 25 372 25 374 26 c 0,374,375
 377 28 377 28 377 28 c 2,376,377
 378 28 378 28 379 29 c 0,378,379
 382 31 382 31 394 37.5 c 128,-1,380
 406 44 406 44 416 48 c 0,381,382
 432 55 432 55 443 60 c 0,383,384
 449 62 449 62 453 63 c 0,385,386
 456 64 456 64 457 64 c 256,387,388
 458 64 458 64 462 66 c 0,389,390
 465 67 465 67 472 69 c 0,391,392
 491 75 491 75 503 82 c 0,393,394
 505 83 505 83 509 85 c 0,395,396
 519 90 519 90 523 93 c 0,397,398
 524 94 524 94 525 94 c 2,399,400
 525 94 525 94 527 96 c 2,401,-1
 528 97 l 1,402,-1
 528 93 l 2,403,404
 529 68 529 68 518 39 c 0,405,406
 515 31 515 31 509 20 c 128,-1,407
 503 9 503 9 500 5 c 0,408,409
 500 4 500 4 498 1 c 0,410,411
 488 -13 488 -13 466 -32 c 0,412,413
 453 -43 453 -43 449 -46.5 c 128,-1,414
 445 -50 445 -50 441 -54 c 0,415,416
 436 -58 436 -58 431 -63 c 0,417,418
 405 -85 405 -85 404 -87 c 0,419,420
 402 -88 402 -88 396 -93 c 0,421,422
 390 -99 390 -99 385 -103 c 256,423,424
 380 -107 380 -107 370.5 -116.5 c 128,-1,425
 361 -126 361 -126 361 -126 c 257,0,1
962 -69 m 2,426,-1
 962 -104 l 1,427,-1
 920 -104 l 1,428,-1
 879 -104 l 1,429,-1
 879 -99 l 2,430,431
 878 -83 878 -83 878 -64.5 c 128,-1,432
 878 -46 878 -46 877.5 -31.5 c 128,-1,433
 877 -17 877 -17 877 -14 c 0,434,435
 873 29 873 29 864 67 c 0,436,437
 857 91 857 91 846.5 120.5 c 128,-1,438
 836 150 836 150 825 175 c 0,439,440
 819 187 819 187 810 203.5 c 128,-1,441
 801 220 801 220 795 231 c 0,442,443
 792 234 792 234 792 235 c 0,444,445
 790 238 790 238 785.5 244.5 c 128,-1,446
 781 251 781 251 781 251 c 2,447,448
 780 252 780 252 777 256 c 0,449,450
 771 265 771 265 761 276 c 0,451,452
 750 290 750 290 736 300 c 0,453,454
 729 305 729 305 724 308 c 0,455,456
 722 310 722 310 716 313.5 c 128,-1,457
 710 317 710 317 708 318 c 256,458,459
 706 319 706 319 703 321 c 0,460,461
 697 324 697 324 684.5 330 c 128,-1,462
 672 336 672 336 664 339 c 0,463,464
 655 343 655 343 649 346 c 0,465,466
 644 348 644 348 644 348 c 2,467,468
 643 348 643 348 640 349 c 0,469,470
 637 351 637 351 635 352 c 0,471,472
 633 352 633 352 627 354 c 0,473,474
 622 356 622 356 619 357 c 256,475,476
 616 358 616 358 613 359 c 0,477,478
 598 365 598 365 586 368 c 0,479,480
 581 369 581 369 581 370 c 1,481,482
 580 370 580 370 580 390 c 0,483,484
 580 409 580 409 579 412 c 0,485,486
 579 416 579 416 579 416 c 257,487,488
 579 416 579 416 585 415 c 256,489,490
 591 414 591 414 595 414 c 0,491,492
 599 413 599 413 606 412 c 0,493,494
 612 410 612 410 615 410 c 0,495,496
 622 408 622 408 647 401 c 0,497,498
 657 398 657 398 668 394.5 c 128,-1,499
 679 391 679 391 684 388 c 0,500,501
 688 387 688 387 688 387 c 2,502,503
 689 387 689 387 692 385 c 0,504,505
 695 384 695 384 704 380 c 0,506,507
 710 377 710 377 721.5 371.5 c 128,-1,508
 733 366 733 366 738 364 c 0,509,510
 743 361 743 361 745 360 c 0,511,512
 749 357 749 357 755 354 c 0,513,514
 759 352 759 352 760 351 c 256,515,516
 761 350 761 350 764 349 c 0,517,518
 766 347 766 347 766 347 c 2,519,520
 767 347 767 347 768 346 c 256,521,522
 769 345 769 345 771 344 c 256,523,524
 773 343 773 343 776 340 c 0,525,526
 780 338 780 338 781 337 c 0,527,528
 784 335 784 335 787 332 c 0,529,530
 789 330 789 330 790 330 c 2,531,532
 790 330 790 330 794 327 c 256,533,534
 798 324 798 324 801 321 c 0,535,536
 808 316 808 316 822.5 302 c 128,-1,537
 837 288 837 288 840 282 c 0,538,539
 841 281 841 281 842 281 c 1,540,541
 842 280 842 280 848 273 c 128,-1,542
 854 266 854 266 855 264 c 0,543,544
 857 262 857 262 857 262 c 2,545,546
 858 261 858 261 863 253 c 0,547,548
 891 214 891 214 909 175 c 0,549,550
 910 172 910 172 912 168 c 256,551,552
 914 164 914 164 916 159 c 256,553,554
 918 154 918 154 919 153 c 0,555,556
 921 147 921 147 926.5 132 c 128,-1,557
 932 117 932 117 937 103 c 0,558,559
 953 55 953 55 959 9 c 0,560,561
 961 -9 961 -9 961.5 -23.5 c 128,-1,562
 962 -38 962 -38 962 -69 c 2,426,-1
208 -63 m 0,563,564
 202 -65 202 -65 195 -63 c 0,565,566
 186 -61 186 -61 181 -56 c 0,567,568
 172 -47 172 -47 184 -37 c 0,569,570
 190 -32 190 -32 192 -27 c 0,571,572
 199 -15 199 -15 206 -8 c 0,573,574
 215 1 215 1 225 -2 c 0,575,576
 239 -7 239 -7 233 -23 c 0,577,578
 227 -37 227 -37 222 -46 c 0,579,580
 219 -51 219 -51 218 -54 c 0,581,582
 215 -60 215 -60 208 -63 c 0,563,564
135 -5 m 0,583,584
 131 -7 131 -7 124 -7 c 0,585,586
 114 -7 114 -7 109 -4 c 0,587,588
 101 0 101 0 102 11 c 0,589,590
 103 26 103 26 114 40 c 0,591,592
 115 42 115 42 121 47.5 c 128,-1,593
 127 53 127 53 127 53 c 2,594,595
 128 53 128 53 129 54 c 256,596,597
 130 55 130 55 131 56 c 0,598,599
 133 57 133 57 137 59 c 0,600,601
 147 65 147 65 155 65 c 0,602,603
 162 65 162 65 169 60 c 128,-1,604
 176 55 176 55 176 48 c 0,605,606
 177 43 177 43 173 39 c 0,607,608
 171 37 171 37 165 34 c 0,609,610
 158 30 158 30 153 25 c 0,611,612
 146 17 146 17 145 8 c 256,613,614
 144 -1 144 -1 135 -5 c 0,583,584
552 121 m 0,615,616
 546 120 546 120 542 121 c 0,617,618
 530 123 530 123 525 128 c 0,619,620
 519 133 519 133 522 141 c 0,621,622
 523 144 523 144 528 149 c 0,623,624
 535 156 535 156 538 160 c 0,625,626
 539 162 539 162 542 166 c 0,627,628
 552 181 552 181 556 194 c 0,629,630
 563 214 563 214 559 237 c 0,631,632
 559 242 559 242 563 245 c 0,633,634
 567 249 567 249 579 249 c 0,635,636
 585 250 585 250 590 248 c 0,637,638
 597 247 597 247 599 243 c 0,639,640
 600 243 600 243 601 242 c 0,641,642
 603 239 603 239 603 227 c 0,643,644
 603 188 603 188 580 153 c 0,645,646
 579 150 579 150 575 144.5 c 128,-1,647
 571 139 571 139 570 138 c 0,648,649
 564 132 564 132 563 130 c 0,650,651
 563 129 563 129 559 126 c 0,652,653
 556 123 556 123 552 121 c 0,615,616
248 220 m 256,654,655
 245 218 245 218 240 218 c 0,656,657
 231 218 231 218 226 221 c 0,658,659
 220 224 220 224 217 229 c 0,660,661
 216 232 216 232 216 237 c 0,662,663
 216 241 216 241 218 246 c 0,664,665
 223 255 223 255 225 258 c 0,666,667
 226 259 226 259 227 261 c 0,668,669
 239 279 239 279 260 295 c 0,670,671
 262 297 262 297 265 299 c 128,-1,672
 268 301 268 301 268 301 c 2,673,674
 269 301 269 301 270 302 c 0,675,676
 274 304 274 304 283 309 c 0,677,678
 287 311 287 311 289 312 c 256,679,680
 291 313 291 313 294 314 c 128,-1,681
 297 315 297 315 306 318 c 0,682,683
 312 321 312 321 320 321 c 2,684,-1
 329 321 l 1,685,-1
 331 319 l 2,686,687
 336 316 336 316 339 310 c 0,688,689
 345 296 345 296 332 290 c 0,690,691
 326 287 326 287 318 284 c 0,692,693
 315 283 315 283 315 283 c 2,694,695
 315 282 315 282 318 279 c 0,696,697
 325 266 325 266 317 249 c 0,698,699
 311 237 311 237 297 235 c 0,700,701
 288 234 288 234 278 235 c 0,702,703
 267 236 267 236 263 240 c 0,704,705
 262 241 262 241 261 239 c 0,706,707
 260 238 260 238 257 233 c 0,708,709
 251 222 251 222 248 220 c 256,654,655
357 353 m 0,710,711
 351 351 351 351 345 353 c 0,712,713
 333 359 333 359 333 371 c 0,714,715
 333 379 333 379 343 384 c 0,716,717
 348 387 348 387 351 389 c 0,718,719
 353 390 353 390 353 390 c 2,720,721
 354 390 354 390 355 391 c 0,722,723
 358 394 358 394 366.5 398 c 128,-1,724
 375 402 375 402 381 404 c 0,725,726
 387 407 387 407 399 410 c 128,-1,727
 411 413 411 413 411 413 c 2,728,729
 412 413 412 413 411 407 c 0,730,731
 408 392 408 392 410 379 c 0,732,733
 410 374 410 374 410 374 c 257,734,735
 410 374 410 374 402 372 c 0,736,737
 395 370 395 370 393 369 c 256,738,739
 391 368 391 368 390 368 c 2,740,741
 390 368 390 368 385 366 c 0,742,743
 379 363 379 363 372 360 c 0,744,745
 368 358 368 358 364 356 c 256,746,747
 360 354 360 354 357 353 c 0,710,711
584 499 m 1,748,-1
 553 499 l 1,749,-1
 553 482 l 1,750,-1
 553 466 l 1,751,-1
 552 467 l 2,752,753
 551 469 551 469 550 470 c 0,754,755
 547 474 547 474 545 477 c 0,756,757
 544 477 544 477 542 480 c 0,758,759
 539 483 539 483 530.5 491.5 c 128,-1,760
 522 500 522 500 519 503 c 0,761,762
 504 515 504 515 491 523 c 2,763,-1
 488 524 l 1,764,-1
 485 522 l 2,765,766
 482 520 482 520 481 519 c 0,767,768
 474 515 474 515 473 514 c 256,769,770
 472 513 472 513 471 513 c 2,771,772
 471 513 471 513 463 506 c 2,773,-1
 455 499 l 1,774,-1
 452 500 l 2,775,776
 445 500 445 500 441 506 c 0,777,778
 436 513 436 513 439 523 c 0,779,780
 440 530 440 530 448 534 c 2,781,-1
 452 535 l 1,782,-1
 481 535 l 1,783,-1
 510 536 l 1,784,-1
 510 559 l 2,785,786
 510 578 510 578 510.5 583 c 128,-1,787
 511 588 511 588 513 591 c 256,788,789
 515 594 515 594 520 597 c 0,790,791
 523 598 523 598 532 598 c 0,792,793
 539 598 539 598 540.5 597.5 c 128,-1,794
 542 597 542 597 544 596 c 0,795,796
 551 593 551 593 553 586 c 0,797,798
 553 583 553 583 553 559 c 2,799,-1
 553 536 l 1,800,-1
 583 535 l 1,801,-1
 613 535 l 1,802,-1
 617 534 l 2,803,804
 627 529 627 529 627 517 c 0,805,806
 627 506 627 506 618 502 c 2,807,-1
 615 500 l 1,808,-1
 584 499 l 1,748,-1
EndSplineSet
EndChar

StartChar: b
Encoding: 98 98 11
Width: 1090
GlyphClass: 1
Flags: W
LayerCount: 2
Fore
SplineSet
374 -102 m 1,0,-1
 374 -102 l 1,1,2
 394 -104 394 -104 413 -101 c 0,3,4
 441 -95 441 -95 471 -76 c 0,5,6
 482 -69 482 -69 494.5 -59 c 128,-1,7
 507 -49 507 -49 512 -41 c 0,8,9
 521 -29 521 -29 527 -7 c 0,10,11
 529 1 529 1 530 1 c 2,12,13
 530 1 530 1 531 -5 c 0,14,15
 537 -29 537 -29 546 -40 c 0,16,17
 551 -46 551 -46 566.5 -59.5 c 128,-1,18
 582 -73 582 -73 591 -79 c 0,19,20
 616 -95 616 -95 644 -101 c 0,21,22
 664 -104 664 -104 684 -102 c 0,23,24
 687 -102 687 -102 713.5 -98.5 c 128,-1,25
 740 -95 740 -95 774 -90 c 0,26,27
 809 -85 809 -85 835.5 -81.5 c 128,-1,28
 862 -78 862 -78 864 -78 c 0,29,30
 870 -78 870 -78 878 -79 c 256,31,32
 886 -80 886 -80 891 -80 c 0,33,34
 906 -80 906 -80 926 -86 c 0,35,36
 941 -91 941 -91 949 -99 c 2,37,-1
 952 -101 l 1,38,-1
 953 -99 l 2,39,40
 954 -98 954 -98 962.5 -84.5 c 128,-1,41
 971 -71 971 -71 982 -52 c 2,42,-1
 1010 -8 l 1,43,-1
 1004 -2 l 2,44,45
 995 6 995 6 980 14 c 0,46,47
 949 30 949 30 914 35 c 0,48,49
 904 37 904 37 895.5 37.5 c 128,-1,50
 887 38 887 38 869 38 c 0,51,52
 859 38 859 38 851 38.5 c 128,-1,53
 843 39 843 39 840 39 c 0,54,55
 836 39 836 39 833 39 c 128,-1,56
 830 39 830 39 819 37 c 0,57,58
 803 34 803 34 775.5 30.5 c 128,-1,59
 748 27 748 27 725.5 24 c 128,-1,60
 703 21 703 21 701 21 c 0,61,62
 679 21 679 21 666 25 c 0,63,64
 661 26 661 26 651 32 c 128,-1,65
 641 38 641 38 633 43 c 0,66,67
 628 47 628 47 618.5 57.5 c 128,-1,68
 609 68 609 68 610 68 c 256,69,70
 611 68 611 68 621 70 c 0,71,72
 666 76 666 76 719 94 c 0,73,74
 730 98 730 98 729 99 c 2,75,76
 729 99 729 99 720.5 120.5 c 128,-1,77
 712 142 712 142 700 171 c 0,78,79
 688 201 688 201 679.5 223 c 128,-1,80
 671 245 671 245 670 246 c 2,81,-1
 669 249 l 1,82,-1
 681 256 l 2,83,84
 709 273 709 273 724.5 285.5 c 128,-1,85
 740 298 740 298 750 312 c 0,86,87
 772 340 772 340 779 374 c 0,88,89
 782 391 782 391 783.5 411 c 128,-1,90
 785 431 785 431 783 443 c 0,91,92
 778 475 778 475 767 505 c 0,93,94
 753 541 753 541 719 571 c 0,95,96
 712 576 712 576 698 587 c 0,97,98
 656 618 656 618 626 646 c 0,99,100
 601 668 601 668 570 703 c 2,101,-1
 566 707 l 1,102,-1
 570 710 l 1,103,104
 611 734 611 734 609 781 c 0,105,106
 608 804 608 804 596 822 c 0,107,108
 593 826 593 826 585.5 834 c 128,-1,109
 578 842 578 842 573 845 c 0,110,111
 560 853 560 853 545 857 c 0,112,113
 529 860 529 860 513 856 c 0,114,115
 490 851 490 851 474 835 c 0,116,117
 463 824 463 824 457 812 c 0,118,119
 442 780 442 780 456 746 c 0,120,121
 465 724 465 724 489 710 c 2,122,-1
 493 707 l 1,123,-1
 488 702 l 2,124,125
 457 666 457 666 426 640 c 0,126,127
 413 629 413 629 394.5 613.5 c 128,-1,128
 376 598 376 598 359 585 c 0,129,130
 346 575 346 575 341 571 c 0,131,132
 320 553 320 553 306 532 c 0,133,134
 283 498 283 498 275 445 c 0,135,136
 274 438 274 438 274 422 c 128,-1,137
 274 406 274 406 275 397 c 0,138,139
 278 378 278 378 282 365 c 128,-1,140
 286 352 286 352 294 336 c 0,141,142
 306 311 306 311 321 297 c 0,143,144
 337 281 337 281 376 257 c 2,145,-1
 390 249 l 1,146,-1
 389 246 l 2,147,148
 388 245 388 245 379.5 223 c 128,-1,149
 371 201 371 201 359 171 c 0,150,151
 347 142 347 142 338.5 120.5 c 128,-1,152
 330 99 330 99 330 99 c 2,153,154
 329 98 329 98 332 97 c 128,-1,155
 335 96 335 96 347 92 c 0,156,157
 397 75 397 75 444 69 c 2,158,-1
 449 68 l 1,159,-1
 447 65 l 2,160,161
 438 54 438 54 429.5 47 c 128,-1,162
 421 40 421 40 406 31 c 0,163,164
 396 25 396 25 384 23 c 256,165,166
 372 21 372 21 358 21 c 0,167,168
 356 21 356 21 335 23.5 c 128,-1,169
 314 26 314 26 287.5 30 c 128,-1,170
 261 34 261 34 242 37 c 0,171,172
 230 39 230 39 226.5 39 c 128,-1,173
 223 39 223 39 219 39 c 0,174,175
 212 38 212 38 190 38 c 0,176,177
 173 38 173 38 164.5 37.5 c 128,-1,178
 156 37 156 37 146 36 c 0,179,180
 114 31 114 31 81 15 c 0,181,182
 70 9 70 9 65 5.5 c 128,-1,183
 60 2 60 2 54 -4 c 2,184,-1
 50 -8 l 1,185,-1
 77 -53 l 2,186,187
 89 -72 89 -72 97 -85.5 c 128,-1,188
 105 -99 105 -99 106 -100 c 2,189,-1
 107 -101 l 1,190,-1
 109 -99 l 2,191,192
 114 -95 114 -95 121 -91 c 0,193,194
 144 -80 144 -80 168 -80 c 0,195,196
 172 -80 172 -80 180 -79 c 256,197,198
 188 -78 188 -78 194 -78 c 0,199,200
 196 -78 196 -78 207.5 -79.5 c 128,-1,201
 219 -81 219 -81 232 -83 c 0,202,203
 304 -93 304 -93 337.5 -97.5 c 128,-1,204
 371 -102 371 -102 374 -102 c 1,0,-1
498 20 m 2,205,-1
 495 13 l 1,206,-1
 469 13 l 1,207,-1
 442 12 l 1,208,-1
 445 14 l 2,209,210
 467 32 467 32 487 64 c 2,211,-1
 490 68 l 1,212,-1
 499 68 l 1,213,-1
 509 68 l 1,214,-1
 508 62 l 2,215,216
 507 42 507 42 498 20 c 2,205,-1
613 15 m 2,217,-1
 615 12 l 1,218,-1
 589 12 l 1,219,-1
 563 12 l 1,220,-1
 562 15 l 2,221,222
 552 36 552 36 550 61 c 2,223,-1
 550 68 l 1,224,-1
 559 68 l 1,225,-1
 569 68 l 1,226,-1
 576 57 l 2,227,228
 583 46 583 46 588 40 c 0,229,230
 592 35 592 35 600.5 26.5 c 128,-1,231
 609 18 609 18 613 15 c 2,217,-1
684 115 m 0,232,233
 685 113 685 113 685 113 c 1,234,235
 684 113 684 113 676 115 c 0,236,237
 609 132 609 132 531.5 132 c 128,-1,238
 454 132 454 132 386 116 c 0,239,240
 375 114 375 114 375 114 c 257,241,242
 375 114 375 114 381 128.5 c 128,-1,243
 387 143 387 143 393 157.5 c 128,-1,244
 399 172 399 172 400 173 c 2,245,246
 400 173 400 173 413 175.5 c 128,-1,247
 426 178 426 178 437 180 c 0,248,249
 484 186 484 186 538 185.5 c 128,-1,250
 592 185 592 185 638 177 c 0,251,252
 660 174 660 174 661 173 c 0,253,254
 661 172 661 172 664.5 164 c 128,-1,255
 668 156 668 156 672 145 c 0,256,257
 677 134 677 134 680.5 125 c 128,-1,258
 684 116 684 116 684 115 c 0,232,233
435 236 m 0,259,260
 427 234 427 234 426 234 c 2,261,-1
 424 234 l 1,262,-1
 425 237 l 2,263,264
 427 241 427 241 433 258 c 2,265,-1
 440 275 l 1,266,-1
 440 283 l 1,267,-1
 441 291 l 1,268,-1
 442 291 l 2,269,270
 449 292 449 292 464 293.5 c 128,-1,271
 479 295 479 295 493 296 c 0,272,273
 499 297 499 297 514.5 297 c 128,-1,274
 530 297 530 297 545.5 297 c 128,-1,275
 561 297 561 297 567 296 c 0,276,277
 581 295 581 295 596.5 293.5 c 128,-1,278
 612 292 612 292 617 291 c 2,279,-1
 619 291 l 1,280,-1
 619 283 l 1,281,-1
 619 275 l 1,282,-1
 628 254 l 2,283,284
 631 246 631 246 633.5 240 c 128,-1,285
 636 234 636 234 636 234 c 257,286,287
 636 234 636 234 629 235 c 0,288,289
 611 238 611 238 586 240 c 0,290,291
 507 247 507 247 435 236 c 0,259,260
536 367 m 0,292,293
 529 365 529 365 522 367 c 0,294,295
 511 370 511 370 508 381 c 0,296,297
 508 385 508 385 508 411 c 2,298,-1
 508 438 l 1,299,-1
 498 438 l 2,300,301
 489 438 489 438 469 438 c 2,302,-1
 449 439 l 1,303,-1
 445 441 l 2,304,305
 439 444 439 444 437 451 c 0,306,307
 434 459 434 459 437 468 c 0,308,309
 439 475 439 475 445 478 c 2,310,-1
 449 480 l 1,311,-1
 479 480 l 1,312,-1
 508 481 l 1,313,-1
 508 509 l 2,314,315
 508 537 508 537 508 540 c 0,316,317
 511 552 511 552 524 554 c 0,318,319
 531 556 531 556 538 554 c 0,320,321
 548 551 548 551 550 540 c 0,322,323
 551 537 551 537 551 509 c 2,324,-1
 551 481 l 1,325,-1
 581 480 l 1,326,-1
 611 480 l 1,327,-1
 615 478 l 2,328,329
 619 476 619 476 621 473 c 0,330,331
 624 468 624 468 624 459 c 0,332,333
 624 451 624 451 621 446 c 0,334,335
 619 443 619 443 615 441 c 2,336,-1
 611 439 l 1,337,-1
 581 438 l 1,338,-1
 551 438 l 1,339,-1
 551 411 l 2,340,341
 551 385 551 385 551 381 c 0,342,343
 548 369 548 369 536 367 c 0,292,293
EndSplineSet
EndChar

StartChar: k
Encoding: 107 107 12
Width: 1090
GlyphClass: 1
Flags: W
LayerCount: 2
Fore
SplineSet
497 -144 m 0,0,1
 523 -145 523 -145 561 -144.5 c 128,-1,2
 599 -144 599 -144 627 -142 c 0,3,4
 706 -138 706 -138 771.5 -127.5 c 128,-1,5
 837 -117 837 -117 874 -102 c 0,6,7
 882 -98 882 -98 891 -93 c 128,-1,8
 900 -88 900 -88 903 -85 c 2,9,-1
 904 -84 l 1,10,-1
 885 -11 l 1,11,-1
 866 61 l 1,12,-1
 875 116 l 2,13,14
 882 155 882 155 883.5 163.5 c 128,-1,15
 885 172 885 172 886 174 c 0,16,17
 889 178 889 178 901 184 c 256,18,19
 913 190 913 190 925.5 200 c 128,-1,20
 938 210 938 210 964 233 c 0,21,22
 985 252 985 252 997 267.5 c 128,-1,23
 1009 283 1009 283 1019 304 c 0,24,25
 1036 340 1036 340 1040 384 c 0,26,27
 1041 392 1041 392 1040.5 404.5 c 128,-1,28
 1040 417 1040 417 1039 424 c 0,29,30
 1032 462 1032 462 1006 500 c 0,31,32
 997 512 997 512 985 525.5 c 128,-1,33
 973 539 973 539 963 547 c 0,34,35
 907 591 907 591 824 588 c 0,36,37
 779 586 779 586 719 565 c 0,38,39
 663 544 663 544 648 535 c 2,40,-1
 644 532 l 1,41,-1
 645 534 l 2,42,43
 645 537 645 537 646 545.5 c 128,-1,44
 647 554 647 554 647 557 c 0,45,46
 647 582 647 582 637 602 c 0,47,48
 626 626 626 626 605 643 c 128,-1,49
 584 660 584 660 560 665 c 0,50,51
 528 671 528 671 498 660 c 128,-1,52
 468 649 468 649 448 623 c 0,53,54
 441 614 441 614 436 603 c 0,55,56
 425 580 425 580 426 553 c 0,57,58
 426 539 426 539 428 533 c 0,59,60
 429 532 429 532 424 535 c 0,61,62
 417 539 417 539 409.5 542.5 c 128,-1,63
 402 546 402 546 372 557 c 0,64,65
 357 562 357 562 350 566 c 0,66,67
 333 572 333 572 306 578.5 c 128,-1,68
 279 585 279 585 258 587 c 0,69,70
 251 588 251 588 233.5 587.5 c 128,-1,71
 216 587 216 587 209 586 c 0,72,73
 150 579 150 579 108 545 c 0,74,75
 85 527 85 527 66 499 c 0,76,77
 38 460 38 460 33 422 c 0,78,79
 30 402 30 402 34 372 c 0,80,81
 42 309 42 309 78 264 c 0,82,83
 85 255 85 255 97 243.5 c 128,-1,84
 109 232 109 232 130 214 c 0,85,86
 148 199 148 199 155 193.5 c 128,-1,87
 162 188 162 188 172 183 c 0,88,89
 185 176 185 176 187 172 c 0,90,91
 188 171 188 171 190 159.5 c 128,-1,92
 192 148 192 148 198 116 c 2,93,-1
 208 61 l 1,94,-1
 188 -10 l 1,95,-1
 169 -82 l 1,96,-1
 171 -83 l 1,97,98
 182 -93 182 -93 198 -100 c 0,99,100
 235 -116 235 -116 304 -127 c 0,101,102
 388 -141 388 -141 497 -144 c 0,0,1
240 -58 m 1,103,-1
 240 -58 l 1,104,105
 234 -60 234 -60 233 -60 c 0,106,107
 232 -61 232 -61 232 -60 c 256,108,109
 232 -59 232 -59 235 -49 c 128,-1,110
 238 -39 238 -39 241 -25 c 0,111,112
 245 -11 245 -11 248 -1 c 128,-1,113
 251 9 251 9 251 9 c 257,114,115
 251 9 251 9 265 12 c 128,-1,116
 279 15 279 15 291 17 c 0,117,118
 366 30 366 30 468 35 c 0,119,120
 480 35 480 35 508 35 c 128,-1,121
 536 35 536 35 564.5 35 c 128,-1,122
 593 35 593 35 605 35 c 0,123,124
 712 30 712 30 788 17 c 0,125,126
 799 14 799 14 811 11.5 c 128,-1,127
 823 9 823 9 823 9 c 2,128,129
 824 9 824 9 826.5 -1 c 128,-1,130
 829 -11 829 -11 832 -25 c 0,131,132
 836 -38 836 -38 838.5 -48.5 c 128,-1,133
 841 -59 841 -59 841 -59 c 2,134,135
 841 -60 841 -60 840 -60 c 0,136,137
 838 -59 838 -59 825.5 -56 c 128,-1,138
 813 -53 813 -53 804 -51 c 0,139,140
 717 -33 717 -33 600 -28 c 0,141,142
 589 -27 589 -27 562 -27 c 128,-1,143
 535 -27 535 -27 508 -27 c 128,-1,144
 481 -27 481 -27 469 -28 c 0,145,146
 395 -31 395 -31 339.5 -38 c 128,-1,147
 284 -45 284 -45 240 -58 c 1,103,-1
269 58 m 0,148,149
 259 56 259 56 258 56 c 0,150,151
 257 55 257 55 257 57 c 0,152,153
 256 61 256 61 254 75 c 128,-1,154
 252 89 252 89 250 101.5 c 128,-1,155
 248 114 248 114 249 115 c 2,156,157
 249 115 249 115 259 117.5 c 128,-1,158
 269 120 269 120 278 122 c 0,159,160
 356 139 356 139 471 144 c 0,161,162
 477 144 477 144 492 144.5 c 128,-1,163
 507 145 507 145 521 145 c 0,164,165
 678 147 678 147 784 125 c 0,166,167
 793 123 793 123 808.5 119.5 c 128,-1,168
 824 116 824 116 825 115 c 0,169,170
 826 115 826 115 821 86 c 0,171,172
 819 74 819 74 818 65 c 128,-1,173
 817 56 817 56 816 56 c 2,174,175
 816 56 816 56 810 58 c 0,176,177
 735 77 735 77 621 82 c 0,178,179
 581 84 581 84 531.5 84 c 128,-1,180
 482 84 482 84 441 82 c 0,181,182
 342 76 342 76 269 58 c 0,148,149
846 194 m 0,183,184
 839 187 839 187 839 187 c 2,185,186
 838 187 838 187 833 189 c 0,187,188
 821 191 821 191 799.5 195 c 128,-1,189
 778 199 778 199 759 202 c 0,190,191
 716 208 716 208 676.5 211.5 c 128,-1,192
 637 215 637 215 582 216 c 0,193,194
 572 216 572 216 565 216.5 c 128,-1,195
 558 217 558 217 558 217 c 2,196,197
 557 217 557 217 557.5 229 c 128,-1,198
 558 241 558 241 558 256.5 c 128,-1,199
 558 272 558 272 558.5 285 c 128,-1,200
 559 298 559 298 559 301 c 0,201,202
 562 328 562 328 569 353 c 0,203,204
 591 426 591 426 638 473 c 0,205,206
 658 494 658 494 690 510 c 0,207,208
 743 535 743 535 792 542 c 0,209,210
 804 544 804 544 811 544.5 c 128,-1,211
 818 545 818 545 831 545 c 0,212,213
 855 545 855 545 872 541 c 0,214,215
 929 530 929 530 962 488 c 0,216,217
 992 449 992 449 993 397 c 0,218,219
 995 352 995 352 978 318 c 0,220,221
 969 299 969 299 955.5 285 c 128,-1,222
 942 271 942 271 910 248 c 0,223,224
 870 218 870 218 846 194 c 0,183,184
825 238 m 0,225,226
 827 237 827 237 828 237 c 2,227,228
 828 237 828 237 834 243 c 0,229,230
 850 264 850 264 874 286 c 0,231,232
 888 299 888 299 901 312 c 128,-1,233
 914 325 914 325 917 330 c 0,234,235
 934 351 934 351 938 371 c 0,236,237
 940 382 940 382 939 400 c 128,-1,238
 938 418 938 418 934 431 c 0,239,240
 928 451 928 451 911 466 c 256,241,242
 894 481 894 481 865 490 c 0,243,244
 802 508 802 508 745 486 c 0,245,246
 731 481 731 481 710.5 469.5 c 128,-1,247
 690 458 690 458 682 451 c 0,248,249
 676 446 676 446 667 435.5 c 128,-1,250
 658 425 658 425 651 417 c 0,251,252
 638 400 638 400 627 381 c 128,-1,253
 616 362 616 362 612 348 c 0,254,255
 608 336 608 336 605 314.5 c 128,-1,256
 602 293 602 293 601 271 c 2,257,-1
 600 262 l 1,258,-1
 614 262 l 2,259,260
 735 259 735 259 798 245 c 0,261,262
 817 241 817 241 825 238 c 0,225,226
245 191 m 0,263,264
 235 189 235 189 234 189 c 2,265,266
 234 189 234 189 233 189 c 0,267,268
 232 191 232 191 222 200 c 128,-1,269
 212 209 212 209 205 215 c 0,270,271
 187 229 187 229 164 247 c 0,272,273
 128 274 128 274 112 293 c 0,274,275
 102 305 102 305 95 319 c 0,276,277
 82 346 82 346 80 382 c 128,-1,278
 78 418 78 418 89 448 c 0,279,280
 102 487 102 487 135 513 c 0,281,282
 163 535 163 535 201 543 c 0,283,284
 235 549 235 549 275 544 c 0,285,286
 314 539 314 539 356 522.5 c 128,-1,287
 398 506 398 506 424 485 c 0,288,289
 429 481 429 481 437.5 472 c 128,-1,290
 446 463 446 463 452 456 c 0,291,292
 483 418 483 418 502 363 c 0,293,294
 511 334 511 334 514 295 c 0,295,296
 514 289 514 289 514.5 275 c 128,-1,297
 515 261 515 261 515 247 c 128,-1,298
 515 233 515 233 515 226 c 2,299,-1
 515 217 l 1,300,-1
 497 217 l 2,301,302
 416 215 416 215 365 210 c 0,303,304
 338 207 338 207 303.5 201.5 c 128,-1,305
 269 196 269 196 245 191 c 0,263,264
238 243 m 2,306,-1
 243 237 l 1,307,-1
 248 238 l 1,308,309
 309 257 309 257 446 262 c 0,310,311
 463 262 463 262 467 262 c 2,312,-1
 471 262 l 1,313,-1
 471 268 l 1,314,315
 467 325 467 325 458 350 c 0,316,317
 454 363 454 363 444 380.5 c 128,-1,318
 434 398 434 398 423 413 c 0,319,320
 413 425 413 425 402.5 437 c 128,-1,321
 392 449 392 449 386 453 c 0,322,323
 378 459 378 459 362.5 468 c 128,-1,324
 347 477 347 477 337 482 c 0,325,326
 278 508 278 508 213 492 c 0,327,328
 176 482 176 482 157 463 c 0,329,330
 141 448 141 448 136 425 c 0,331,332
 134 415 134 415 133 400.5 c 128,-1,333
 132 386 132 386 133 378 c 0,334,335
 135 355 135 355 150 335 c 0,336,337
 160 322 160 322 197 286 c 0,338,339
 212 270 212 270 221 260.5 c 128,-1,340
 230 251 230 251 238 243 c 2,306,-1
538 370 m 0,341,342
 537 365 537 365 536 365 c 2,343,344
 536 365 536 365 532 378 c 0,345,346
 526 398 526 398 523 408 c 128,-1,347
 520 418 520 418 517 424.5 c 128,-1,348
 514 431 514 431 509 442 c 0,349,350
 494 472 494 472 487.5 487 c 128,-1,351
 481 502 481 502 473 527 c 0,352,353
 469 539 469 539 468 545.5 c 128,-1,354
 467 552 467 552 467 561 c 0,355,356
 468 592 468 592 484 609 c 0,357,358
 497 621 497 621 518 625 c 0,359,360
 524 626 524 626 535 626 c 128,-1,361
 546 626 546 626 551 625 c 0,362,363
 572 620 572 620 587 605 c 0,364,365
 599 592 599 592 604 576 c 256,366,367
 609 560 609 560 605 543 c 0,368,369
 605 539 605 539 598.5 522 c 128,-1,370
 592 505 592 505 587 493 c 0,371,372
 582 478 582 478 568 451 c 0,373,374
 562 437 562 437 559 431 c 0,375,376
 557 425 557 425 554 419 c 0,377,378
 551 412 551 412 548 403 c 0,379,380
 545 393 545 393 542 384 c 0,381,382
 539 374 539 374 538 370 c 0,341,342
536 467 m 0,383,384
 536 466 536 466 536 466 c 1,385,386
 537 466 537 466 538.5 471.5 c 128,-1,387
 540 477 540 477 541 481 c 0,388,389
 543 489 543 489 552 506 c 0,390,391
 555 511 555 511 560 524 c 128,-1,392
 565 537 565 537 567 543 c 0,393,394
 569 552 569 552 566 562 c 0,395,396
 560 582 560 582 534 580 c 0,397,398
 514 579 514 579 508 562 c 0,399,400
 507 558 507 558 507 550 c 0,401,402
 507 543 507 543 509 537 c 0,403,404
 513 523 513 523 523 501 c 0,405,406
 527 493 527 493 531.5 481 c 128,-1,407
 536 469 536 469 536 467 c 0,383,384
515 707 m 1,408,-1
 515 669 l 1,409,-1
 536 669 l 1,410,-1
 557 669 l 1,411,-1
 557 696 l 2,412,413
 557 708 557 708 557.5 719 c 128,-1,414
 558 730 558 730 558 734 c 2,415,-1
 558 745 l 1,416,-1
 568 745 l 2,417,418
 584 745 584 745 599 745.5 c 128,-1,419
 614 746 614 746 616 747 c 0,420,421
 622 749 622 749 625 755 c 0,422,423
 626 758 626 758 626 765 c 256,424,425
 626 772 626 772 625 776 c 0,426,427
 622 781 622 781 617 783 c 0,428,429
 615 784 615 784 610.5 784.5 c 128,-1,430
 606 785 606 785 586 785 c 2,431,-1
 557 785 l 1,432,-1
 557 813 l 2,433,434
 557 837 557 837 556 841.5 c 128,-1,435
 555 846 555 846 552 850 c 0,436,437
 547 855 547 855 537 855 c 0,438,439
 528 855 528 855 523 852 c 0,440,441
 520 850 520 850 518 846 c 2,442,-1
 516 842 l 1,443,-1
 516 813 l 1,444,-1
 515 785 l 1,445,-1
 489 785 l 2,446,447
 467 785 467 785 462 784.5 c 128,-1,448
 457 784 457 784 454 781 c 0,449,450
 447 777 447 777 447 765 c 0,451,452
 447 754 447 754 454 749 c 0,453,454
 457 747 457 747 462.5 746.5 c 128,-1,455
 468 746 468 746 489 746 c 2,456,-1
 515 746 l 1,457,-1
 515 707 l 1,408,-1
EndSplineSet
EndChar

StartChar: m
Encoding: 109 109 13
Width: 1090
GlyphClass: 1
Flags: W
LayerCount: 2
Fore
SplineSet
610 -124 m 0,0,1
 732 -124 732 -124 826 -124 c 128,-1,2
 920 -124 920 -124 974 -123.5 c 128,-1,3
 1028 -123 1028 -123 1028 -123 c 257,4,5
 1028 -123 1028 -123 1027.5 -109.5 c 128,-1,6
 1027 -96 1027 -96 1026 -77.5 c 128,-1,7
 1025 -59 1025 -59 1024 -43 c 0,8,9
 1019 27 1019 27 1004 90 c 0,10,11
 1002 98 1002 98 998 111.5 c 128,-1,12
 994 125 994 125 992 133 c 0,13,14
 989 141 989 141 984 155 c 128,-1,15
 979 169 979 169 977 173 c 0,16,17
 977 174 977 174 974 180 c 0,18,19
 971 187 971 187 968 195 c 0,20,21
 965 201 965 201 965 201 c 2,22,23
 965 202 965 202 960 211.5 c 128,-1,24
 955 221 955 221 949 231.5 c 128,-1,25
 943 242 943 242 941 246 c 0,26,27
 940 248 940 248 938 252 c 0,28,29
 930 265 930 265 919 281 c 0,30,31
 914 290 914 290 913 291 c 256,32,33
 912 292 912 292 911 294 c 0,34,35
 904 302 904 302 903 305 c 0,36,37
 898 311 898 311 893 318 c 0,38,39
 890 322 890 322 886 326 c 0,40,41
 885 328 885 328 882 331 c 0,42,43
 875 339 875 339 873 342 c 0,44,45
 871 343 871 343 866 349 c 0,46,47
 845 371 845 371 823 389 c 0,48,49
 822 390 822 390 819 393 c 0,50,51
 816 395 816 395 815 395 c 2,52,53
 815 395 815 395 812 398 c 0,54,55
 809 400 809 400 808 400 c 2,56,57
 808 400 808 400 805 403 c 0,58,59
 802 405 802 405 801 406 c 0,60,61
 799 406 799 406 797 408 c 0,62,63
 790 413 790 413 786 416 c 0,64,65
 785 416 785 416 781 419 c 0,66,67
 769 426 769 426 758 432 c 0,68,69
 754 434 754 434 752 436 c 0,70,71
 750 437 750 437 748 437 c 0,72,73
 747 438 747 438 744 440 c 2,74,-1
 741 441 l 1,75,-1
 741 481 l 1,76,-1
 741 520 l 1,77,-1
 745 523 l 2,78,79
 750 526 750 526 753 528 c 256,80,81
 756 530 756 530 761 533 c 0,82,83
 765 537 765 537 767 538 c 256,84,85
 769 539 769 539 772 541 c 0,86,87
 780 547 780 547 782 548 c 0,88,89
 784 550 784 550 787 552 c 0,90,91
 795 557 795 557 797 559 c 0,92,93
 799 560 799 560 802 562 c 0,94,95
 805 565 805 565 807 566 c 0,96,97
 810 567 810 567 817 573 c 0,98,99
 820 575 820 575 822 576 c 0,100,101
 825 578 825 578 833 583 c 0,102,103
 836 586 836 586 837 587 c 0,104,105
 840 588 840 588 848 594 c 0,106,107
 853 598 853 598 863 604 c 0,108,109
 867 607 867 607 869 608 c 2,110,-1
 871 610 l 1,111,-1
 871 709 l 1,112,-1
 871 808 l 1,113,-1
 791 808 l 1,114,-1
 711 808 l 1,115,-1
 711 772 l 1,116,-1
 711 735 l 1,117,-1
 661 735 l 1,118,-1
 611 735 l 1,119,-1
 611 772 l 1,120,-1
 611 808 l 1,121,-1
 531 808 l 1,122,-1
 450 808 l 1,123,-1
 450 772 l 1,124,-1
 450 735 l 1,125,-1
 400 735 l 1,126,-1
 350 735 l 1,127,-1
 350 772 l 1,128,-1
 350 808 l 1,129,-1
 270 808 l 1,130,-1
 190 808 l 1,131,-1
 190 709 l 1,132,-1
 190 610 l 1,133,-1
 193 608 l 2,134,135
 200 603 200 603 206 599 c 0,136,137
 214 593 214 593 216 592 c 256,138,139
 218 591 218 591 221 589 c 0,140,141
 223 587 223 587 225 586 c 256,142,143
 227 585 227 585 228 584 c 2,144,-1
 230 582 l 1,145,-1
 227 583 l 2,146,147
 225 584 225 584 220 586 c 2,148,-1
 216 587 l 1,149,-1
 215 583 l 1,150,151
 213 548 213 548 218 509 c 0,152,153
 224 472 224 472 238 436 c 2,154,-1
 241 429 l 1,155,-1
 231 419 l 2,156,157
 214 403 214 403 208 395 c 0,158,159
 205 391 205 391 204 390 c 0,160,161
 200 386 200 386 195 379 c 0,162,163
 192 374 192 374 191 374 c 2,164,165
 191 374 191 374 190 372 c 0,166,167
 188 369 188 369 184 364 c 0,168,169
 177 353 177 353 174 343 c 0,170,171
 169 328 169 328 168 301 c 0,172,173
 168 286 168 286 162 270 c 0,174,175
 160 264 160 264 154.5 253.5 c 128,-1,176
 149 243 149 243 145 236 c 0,177,178
 144 234 144 234 141 230 c 0,179,180
 139 227 139 227 138 226 c 0,181,182
 138 225 138 225 136 223 c 0,183,184
 135 221 135 221 135 220 c 1,185,186
 134 220 134 220 133 218 c 0,187,188
 130 214 130 214 126.5 209 c 128,-1,189
 123 204 123 204 123 204 c 257,190,191
 123 204 123 204 121 202 c 0,192,193
 120 200 120 200 118 198 c 0,194,195
 117 196 117 196 114 193 c 0,196,197
 112 190 112 190 110 188 c 0,198,199
 109 185 109 185 106 183 c 0,200,201
 104 180 104 180 102 178 c 0,202,203
 100 175 100 175 98 173 c 0,204,205
 96 170 96 170 94 167 c 0,206,207
 91 165 91 165 89 162 c 256,208,209
 87 159 87 159 86 158 c 256,210,211
 85 157 85 157 84 156 c 2,212,213
 84 156 84 156 80 150.5 c 128,-1,214
 76 145 76 145 74 143 c 0,215,216
 73 141 73 141 72 140 c 256,217,218
 71 139 71 139 68 135 c 256,219,220
 65 131 65 131 65 130 c 2,221,222
 65 130 65 130 61 124 c 0,223,224
 32 81 32 81 31 50 c 0,225,226
 30 21 30 21 39 -8 c 0,227,228
 41 -13 41 -13 44.5 -20 c 128,-1,229
 48 -27 48 -27 48 -28 c 1,230,231
 49 -28 49 -28 50 -30 c 0,232,233
 51 -31 51 -31 54.5 -36 c 128,-1,234
 58 -41 58 -41 60 -45 c 0,235,236
 63 -48 63 -48 71 -56 c 128,-1,237
 79 -64 79 -64 82 -66 c 0,238,239
 93 -75 93 -75 110 -81 c 0,240,241
 114 -83 114 -83 119 -85 c 2,242,-1
 124 -87 l 1,243,-1
 136 -87 l 2,244,245
 148 -87 148 -87 152 -86 c 0,246,247
 156 -86 156 -86 162 -84.5 c 128,-1,248
 168 -83 168 -83 169 -82 c 0,249,250
 170 -82 170 -82 172 -84 c 0,251,252
 173 -86 173 -86 174 -87 c 0,253,254
 174 -88 174 -88 175 -90 c 0,255,256
 177 -92 177 -92 182.5 -97 c 128,-1,257
 188 -102 188 -102 192 -104 c 0,258,259
 199 -108 199 -108 210 -110 c 0,260,261
 217 -111 217 -111 228 -109.5 c 128,-1,262
 239 -108 239 -108 245 -105 c 0,263,264
 248 -103 248 -103 249 -103 c 0,265,266
 255 -99 255 -99 263 -88 c 0,267,268
 264 -87 264 -87 266 -83 c 0,269,270
 269 -80 269 -80 270 -78 c 256,271,272
 271 -76 271 -76 271 -76 c 257,273,274
 271 -76 271 -76 274 -71 c 0,275,276
 276 -67 276 -67 279 -63 c 0,277,278
 281 -59 281 -59 282 -58 c 0,279,280
 283 -55 283 -55 289.5 -44.5 c 128,-1,281
 296 -34 296 -34 297 -33 c 0,282,283
 305 -22 305 -22 310 -17 c 0,284,285
 312 -15 312 -15 314 -12 c 0,286,287
 322 -2 322 -2 338 12 c 0,288,289
 353 25 353 25 354 25 c 2,290,291
 354 25 354 25 358 27 c 0,292,293
 364 32 364 32 375.5 39.5 c 128,-1,294
 387 47 387 47 398 52 c 0,295,296
 408 58 408 58 422.5 64.5 c 128,-1,297
 437 71 437 71 441 73 c 0,298,299
 444 73 444 73 448 75 c 256,300,301
 452 77 452 77 454 78 c 0,302,303
 455 78 455 78 461 80 c 256,304,305
 467 82 467 82 474 85 c 0,306,307
 480 87 480 87 483 88 c 0,308,309
 489 90 489 90 498 95 c 0,310,311
 508 100 508 100 512 102 c 0,312,313
 515 104 515 104 515 104 c 2,314,315
 516 104 516 104 519 107 c 0,316,317
 522 109 522 109 523 110 c 0,318,319
 525 110 525 110 526 112 c 2,320,-1
 527 113 l 1,321,-1
 527 109 l 2,322,323
 528 82 528 82 516 50 c 0,324,325
 512 39 512 39 505.5 26.5 c 128,-1,326
 499 14 499 14 494 8 c 0,327,328
 493 7 493 7 490 3 c 0,329,330
 482 -8 482 -8 465 -23 c 0,331,332
 458 -29 458 -29 457 -31 c 0,333,334
 455 -33 455 -33 448 -39 c 0,335,336
 442 -45 442 -45 440 -47 c 256,337,338
 438 -49 438 -49 431 -55 c 0,339,340
 424 -62 424 -62 424 -62 c 2,341,342
 423 -63 423 -63 413 -71 c 0,343,344
 404 -80 404 -80 403 -81 c 2,345,346
 403 -81 403 -81 394 -89 c 0,347,348
 384 -98 384 -98 372.5 -110 c 128,-1,349
 361 -122 361 -122 361 -123 c 1,350,351
 361 -123 361 -123 394.5 -123 c 128,-1,352
 428 -123 428 -123 485 -123.5 c 128,-1,353
 542 -124 542 -124 610 -124 c 0,0,1
961 -64 m 2,354,-1
 961 -101 l 1,355,-1
 920 -101 l 1,356,-1
 878 -101 l 1,357,-1
 877 -84 l 2,358,359
 877 -67 877 -67 877 -47 c 256,360,361
 877 -27 877 -27 876 -15 c 0,362,363
 873 54 873 54 851 121 c 0,364,365
 840 158 840 158 828.5 185.5 c 128,-1,366
 817 213 817 213 802 240 c 0,367,368
 795 252 795 252 793 256 c 0,369,370
 790 260 790 260 789 262 c 0,371,372
 789 263 789 263 784 270 c 128,-1,373
 779 277 779 277 775 283 c 0,374,375
 774 284 774 284 769 291 c 128,-1,376
 764 298 764 298 762 300 c 0,377,378
 761 302 761 302 759 305 c 0,379,380
 755 310 755 310 746.5 318 c 128,-1,381
 738 326 738 326 733 329 c 0,382,383
 732 330 732 330 729 333 c 0,384,385
 714 344 714 344 691 356 c 0,386,387
 683 361 683 361 678 363 c 256,388,389
 673 365 673 365 672 366 c 2,390,391
 672 366 672 366 665 369 c 256,392,393
 658 372 658 372 653 375 c 0,394,395
 641 380 641 380 635 382 c 0,396,397
 632 383 632 383 629 385 c 0,398,399
 624 387 624 387 610 392 c 128,-1,400
 596 397 596 397 590 399 c 0,401,402
 582 401 582 401 581 401.5 c 128,-1,403
 580 402 580 402 579 404 c 0,404,405
 579 406 579 406 579 422 c 0,406,407
 579 443 579 443 578 450 c 0,408,409
 577 451 577 451 579 451 c 0,410,411
 580 451 580 451 585 450 c 0,412,413
 596 449 596 449 629 440 c 0,414,415
 637 438 637 438 650 434 c 128,-1,416
 663 430 663 430 670 427 c 0,417,418
 674 425 674 425 678 424 c 256,419,420
 682 423 682 423 684 421 c 0,421,422
 687 420 687 420 689 419 c 0,423,424
 690 419 690 419 697 416 c 128,-1,425
 704 413 704 413 712 409 c 256,426,427
 720 405 720 405 725 402 c 128,-1,428
 730 399 730 399 743 392 c 0,429,430
 747 390 747 390 749 388 c 0,431,432
 751 387 751 387 751 387 c 2,433,434
 752 387 752 387 755 384 c 0,435,436
 759 382 759 382 760 381 c 0,437,438
 763 380 763 380 775 371 c 0,439,440
 778 369 778 369 782 365 c 0,441,442
 787 362 787 362 789 360 c 0,443,444
 792 358 792 358 801 350 c 0,445,446
 818 336 818 336 832 318 c 0,447,448
 835 315 835 315 836 314 c 0,449,450
 837 312 837 312 839 310 c 0,451,452
 840 308 840 308 841 307 c 256,453,454
 842 306 842 306 843 304 c 256,455,456
 844 302 844 302 845 302 c 2,457,458
 845 302 845 302 847 300 c 0,459,460
 849 297 849 297 849 297 c 257,461,462
 849 297 849 297 851 295 c 0,463,464
 852 292 852 292 853 291 c 0,465,466
 857 286 857 286 859 284 c 0,467,468
 859 283 859 283 860 282 c 256,469,470
 861 281 861 281 862 279 c 0,471,472
 864 276 864 276 865 276 c 1,473,474
 865 275 865 275 866 273 c 0,475,476
 867 272 867 272 870 268 c 0,477,478
 872 264 872 264 873 262 c 256,479,480
 874 260 874 260 875 259 c 2,481,482
 875 259 875 259 877 256 c 128,-1,483
 879 253 879 253 885 241 c 0,484,485
 900 215 900 215 910 191 c 0,486,487
 914 181 914 181 914 180 c 0,488,489
 916 176 916 176 921 162.5 c 128,-1,490
 926 149 926 149 930 138 c 0,491,492
 954 68 954 68 959 6 c 0,493,494
 960 -8 960 -8 960.5 -22 c 128,-1,495
 961 -36 961 -36 961 -64 c 2,354,-1
208 -56 m 256,496,497
 202 -59 202 -59 194 -57 c 0,498,499
 185 -55 185 -55 179 -48 c 0,500,501
 171 -40 171 -40 182 -30 c 0,502,503
 188 -24 188 -24 192 -17 c 0,504,505
 203 3 203 3 212 7 c 0,506,507
 215 9 215 9 219 9 c 0,508,509
 232 8 232 8 234 -4 c 0,510,511
 234 -7 234 -7 232 -13 c 0,512,513
 231 -18 231 -18 230 -20 c 0,514,515
 224 -32 224 -32 221 -38 c 0,516,517
 219 -43 219 -43 217 -46 c 0,518,519
 214 -53 214 -53 208 -56 c 256,496,497
133 4 m 0,520,521
 128 3 128 3 122 3 c 0,522,523
 114 2 114 2 108 5 c 0,524,525
 97 11 97 11 103 32 c 0,526,527
 105 41 105 41 111 50 c 0,528,529
 122 67 122 67 142 76 c 0,530,531
 147 79 147 79 153 79 c 2,532,-1
 158 79 l 1,533,-1
 163 77 l 2,534,535
 180 68 180 68 175 56 c 0,536,537
 173 51 173 51 169 49 c 0,538,539
 155 41 155 41 150 34 c 0,540,541
 145 28 145 28 144 20 c 0,542,543
 143 8 143 8 133 4 c 0,520,521
552 139 m 0,544,545
 546 137 546 137 539 139 c 0,546,547
 530 140 530 140 524 146 c 0,548,549
 520 149 520 149 521 155 c 0,550,551
 521 161 521 161 527 168 c 256,552,553
 533 175 533 175 538 182 c 0,554,555
 550 199 550 199 555 214 c 0,556,557
 559 225 559 225 559 239 c 0,558,559
 560 250 560 250 559 259 c 0,560,561
 558 264 558 264 559 266 c 0,562,563
 562 274 562 274 578 275 c 0,564,565
 598 276 598 276 602 261 c 0,566,567
 603 258 603 258 603 249 c 0,568,569
 602 226 602 226 595 205 c 0,570,571
 592 197 592 197 592 197 c 2,572,573
 591 196 591 196 591 195 c 0,574,575
 590 193 590 193 588 188 c 0,576,577
 581 173 581 173 569 156.5 c 128,-1,578
 557 140 557 140 552 139 c 0,544,545
244 242 m 0,579,580
 239 240 239 240 231 242 c 128,-1,581
 223 244 223 244 219 249 c 256,582,583
 215 254 215 254 215 260 c 256,584,585
 215 266 215 266 219 275 c 0,586,587
 223 282 223 282 230 292 c 0,588,589
 233 297 233 297 238 303 c 0,590,591
 248 315 248 315 261 324 c 0,592,593
 264 327 264 327 269.5 330.5 c 128,-1,594
 275 334 275 334 276 334 c 256,595,596
 277 334 277 334 280 336 c 256,597,598
 283 338 283 338 284 339 c 0,599,600
 286 339 286 339 291 342 c 0,601,602
 304 348 304 348 312 350 c 0,603,604
 321 352 321 352 327 350 c 0,605,606
 334 348 334 348 337 340 c 0,607,608
 339 336 339 336 339 331 c 256,609,610
 339 326 339 326 337 323 c 256,611,612
 335 320 335 320 332.5 318.5 c 128,-1,613
 330 317 330 317 319 312 c 0,614,615
 314 310 314 310 314 310 c 257,616,617
 314 310 314 310 316 306 c 0,618,619
 323 294 323 294 318 280 c 0,620,621
 312 263 312 263 297 260 c 0,622,623
 290 258 290 258 280 259 c 128,-1,624
 270 260 270 260 265 263 c 0,625,626
 262 265 262 265 261 265 c 256,627,628
 260 265 260 265 254 253 c 0,629,630
 250 245 250 245 244 242 c 0,579,580
365 388 m 0,631,632
 358 385 358 385 356 384.5 c 128,-1,633
 354 384 354 384 351 383 c 0,634,635
 346 383 346 383 344 384 c 0,636,637
 338 388 338 388 334 395 c 0,638,639
 332 399 332 399 332 403 c 0,640,641
 332 410 332 410 341 416 c 0,642,643
 345 419 345 419 349 421 c 0,644,645
 361 430 361 430 361 430 c 2,646,647
 362 430 362 430 365 431 c 0,648,649
 374 437 374 437 389 442 c 0,650,651
 394 444 394 444 402 446 c 128,-1,652
 410 448 410 448 410 448 c 2,653,654
 411 447 411 447 410 442 c 0,655,656
 409 436 409 436 408.5 426.5 c 128,-1,657
 408 417 408 417 409 412 c 0,658,659
 409 407 409 407 409 406 c 1,660,661
 408 406 408 406 402 404 c 0,662,663
 392 402 392 402 378 395 c 0,664,665
 375 393 375 393 365 388 c 0,631,632
432 512 m 2,666,-1
 430 510 l 1,667,-1
 398 510 l 1,668,-1
 365 510 l 1,669,-1
 363 512 l 1,670,-1
 361 513 l 1,671,-1
 361 527 l 1,672,-1
 361 540 l 1,673,-1
 357 543 l 2,674,675
 354 545 354 545 353 546 c 0,676,677
 352 546 352 546 348 549 c 0,678,679
 345 551 345 551 343 553 c 0,680,681
 341 554 341 554 336 557 c 0,682,683
 332 560 332 560 329 562 c 256,684,685
 326 564 326 564 326 565 c 256,686,687
 326 566 326 566 406 566 c 0,688,689
 439 566 439 566 462.5 565.5 c 128,-1,690
 486 565 486 565 486 565 c 257,691,692
 486 565 486 565 483 563 c 0,693,694
 480 562 480 562 471 555 c 0,695,696
 468 552 468 552 461 546 c 128,-1,697
 454 540 454 540 452 537 c 0,698,699
 448 533 448 533 441 525 c 0,700,701
 435 518 435 518 432 512 c 2,666,-1
701 525 m 1,702,-1
 701 510 l 1,703,-1
 624 510 l 1,704,-1
 547 510 l 1,705,-1
 546 511 l 2,706,707
 545 513 545 513 544 515 c 0,708,709
 542 517 542 517 540 520 c 0,710,711
 533 528 533 528 525 536 c 0,712,713
 516 545 516 545 507 552 c 0,714,715
 497 560 497 560 492 563 c 0,716,717
 490 564 490 564 490 565 c 256,718,719
 490 566 490 566 612 566 c 0,720,721
 672 566 672 566 703.5 565.5 c 128,-1,722
 735 565 735 565 735 565 c 2,723,724
 735 564 735 564 732 562 c 256,725,726
 729 560 729 560 725 557 c 256,727,728
 721 554 721 554 718 553 c 0,729,730
 716 551 716 551 713 549 c 0,731,732
 710 546 710 546 709 546 c 0,733,734
 708 545 708 545 704 543 c 2,735,-1
 701 540 l 1,736,-1
 701 525 l 1,702,-1
791 603 m 2,737,-1
 789 601 l 1,738,-1
 531 601 l 1,739,-1
 273 601 l 1,740,-1
 271 602 l 2,741,742
 269 604 269 604 267 605 c 0,743,744
 259 610 259 610 254 614 c 0,745,746
 253 615 253 615 252 615 c 2,747,748
 252 615 252 615 248 618 c 0,749,750
 245 621 245 621 244 621 c 2,751,752
 244 621 244 621 241 623 c 256,753,754
 238 625 238 625 237 626 c 0,755,756
 235 627 235 627 233 628 c 2,757,-1
 231 630 l 1,758,-1
 231 642 l 1,759,-1
 231 655 l 1,760,-1
 530 655 l 1,761,-1
 830 655 l 1,762,-1
 830 642 l 1,763,-1
 830 630 l 1,764,-1
 828 628 l 2,765,766
 821 623 821 623 813 618 c 0,767,768
 810 616 810 616 806 613 c 256,769,770
 802 610 802 610 802 610 c 2,771,772
 801 610 801 610 798 607 c 0,773,774
 795 605 795 605 794 605 c 2,775,776
 794 605 794 605 791 603 c 2,737,-1
EndSplineSet
EndChar

StartChar: n
Encoding: 110 110 14
Width: 1090
GlyphClass: 1
Flags: W
LayerCount: 2
Fore
SplineSet
306 -149 m 1,0,-1
 306 -150 l 1,1,-1
 667 -150 l 1,2,-1
 1028 -150 l 1,3,-1
 1028 -58 l 2,4,5
 1028 -20 1028 -20 1027.5 11.5 c 128,-1,6
 1027 43 1027 43 1027 50 c 0,7,8
 1023 155 1023 155 1017 199 c 0,9,10
 998 353 998 353 931 473 c 0,11,12
 901 527 901 527 870 565 c 0,13,14
 809 640 809 640 721 683 c 0,15,16
 650 718 650 718 565 725 c 1,17,-1
 561 725 l 1,18,-1
 556 734 l 2,19,20
 531 778 531 778 492 808 c 2,21,-1
 486 812 l 1,22,-1
 482 809 l 2,23,24
 431 770 431 770 412 712 c 0,25,26
 411 706 411 706 410 706 c 2,27,28
 410 706 410 706 401 715 c 0,29,30
 351 767 351 767 290 801 c 0,31,32
 256 820 256 820 220 834 c 1,33,-1
 215 835 l 1,34,-1
 214 831 l 1,35,36
 212 791 212 791 218 747 c 0,37,38
 223 708 223 708 236 670 c 2,39,-1
 240 659 l 1,40,-1
 233 653 l 2,41,42
 223 642 223 642 211.5 627.5 c 128,-1,43
 200 613 200 613 195 606 c 0,44,45
 191 600 191 600 186 592 c 0,46,47
 175 574 175 574 171 558 c 0,48,49
 170 550 170 550 168.5 535 c 128,-1,50
 167 520 167 520 167 512 c 0,51,52
 167 492 167 492 150 458 c 0,53,54
 140 438 140 438 128.5 420 c 128,-1,55
 117 402 117 402 95 373 c 0,56,57
 65 332 65 332 50 304 c 128,-1,58
 35 276 35 276 31 251 c 0,59,60
 30 246 30 246 30 232 c 128,-1,61
 30 218 30 218 31 210 c 0,62,63
 35 177 35 177 45 156 c 0,64,65
 58 130 58 130 81 110 c 0,66,67
 94 99 94 99 119 89 c 2,68,-1
 126 86 l 1,69,-1
 135 86 l 2,70,71
 149 87 149 87 163 90 c 0,72,73
 167 91 167 91 168 92 c 0,74,75
 169 92 169 92 173 86 c 0,76,77
 181 73 181 73 191 67 c 0,78,79
 204 60 204 60 220 61 c 0,80,81
 241 62 241 62 252 73 c 0,82,83
 257 77 257 77 262 85.5 c 128,-1,84
 267 94 267 94 277 112 c 0,85,86
 287 131 287 131 291.5 138.5 c 128,-1,87
 296 146 296 146 300 152 c 0,88,89
 314 173 314 173 336 195 c 0,90,91
 370 229 370 229 420 254 c 0,92,93
 434 261 434 261 444 265.5 c 128,-1,94
 454 270 454 270 477 279 c 0,95,96
 499 288 499 288 521 304 c 2,97,-1
 526 308 l 1,98,-1
 526 304 l 2,99,100
 527 273 527 273 515 237 c 0,101,102
 503 202 503 202 482 177 c 0,103,104
 478 172 478 172 459 152.5 c 128,-1,105
 440 133 440 133 402 93 c 0,106,107
 374 65 374 65 363.5 52 c 128,-1,108
 353 39 353 39 345 24 c 0,109,110
 324 -14 324 -14 314 -45 c 0,111,112
 308 -64 308 -64 306 -77 c 128,-1,113
 304 -90 304 -90 303 -111 c 0,114,115
 302 -143 302 -143 306 -149 c 1,0,-1
957 -103 m 2,116,-1
 957 -108 l 1,117,-1
 916 -108 l 1,118,-1
 874 -108 l 1,119,-1
 874 -92 l 2,120,121
 875 -75 875 -75 876 -63 c 0,122,123
 876 -58 876 -58 876 -35.5 c 128,-1,124
 876 -13 876 -13 876 18 c 128,-1,125
 876 49 876 49 876 80.5 c 128,-1,126
 876 112 876 112 876 135.5 c 128,-1,127
 876 159 876 159 875 165 c 0,128,129
 873 212 873 212 865 256 c 128,-1,130
 857 300 857 300 841 350 c 0,131,132
 811 444 811 444 767 509 c 0,133,134
 753 529 753 529 740.5 541.5 c 128,-1,135
 728 554 728 554 708 568 c 0,136,137
 685 584 685 584 652 600 c 128,-1,138
 619 616 619 616 587 627 c 2,139,-1
 579 630 l 1,140,-1
 578 632 l 2,141,142
 578 635 578 635 578 656 c 0,143,144
 578 676 578 676 577 680 c 0,145,146
 577 684 577 684 577 684 c 2,147,148
 577 685 577 685 589.5 682 c 128,-1,149
 602 679 602 679 610 677 c 0,150,151
 673 661 673 661 729.5 626.5 c 128,-1,152
 786 592 786 592 823 547 c 0,153,154
 828 540 828 540 832.5 534.5 c 128,-1,155
 837 529 837 529 844 518 c 0,156,157
 867 486 867 486 885 449 c 0,158,159
 900 420 900 420 911 390.5 c 128,-1,160
 922 361 922 361 933 322 c 256,161,162
 944 283 944 283 950 251.5 c 128,-1,163
 956 220 956 220 959 178 c 0,164,165
 960 170 960 170 960 73 c 0,166,167
 960 24 960 24 960 -3.5 c 128,-1,168
 960 -31 960 -31 959.5 -48 c 128,-1,169
 959 -65 959 -65 958 -81 c 256,170,171
 957 -97 957 -97 957 -103 c 2,116,-1
206 121 m 256,172,173
 200 118 200 118 194 120 c 0,174,175
 185 123 185 123 179 129 c 0,176,177
 174 134 174 134 175 140 c 0,178,179
 176 145 176 145 182 152 c 0,180,181
 187 156 187 156 192 165 c 0,182,183
 206 193 206 193 217 193 c 0,184,185
 231 193 231 193 233 178 c 0,186,187
 233 175 233 175 231 169 c 0,188,189
 227 154 227 154 219 138 c 0,190,191
 212 124 212 124 206 121 c 256,172,173
131 188 m 0,192,193
 127 187 127 187 121 187 c 0,194,195
 112 186 112 186 107 189 c 0,196,197
 96 196 96 196 102 220 c 0,198,199
 106 233 106 233 114 244 c 0,200,201
 125 260 125 260 141 268 c 0,202,203
 148 272 148 272 155 271 c 0,204,205
 165 269 165 269 171 261 c 128,-1,206
 177 253 177 253 174 245 c 0,207,208
 171 239 171 239 163 234 c 0,209,210
 152 228 152 228 147 218 c 0,211,212
 143 211 143 211 143 204 c 0,213,214
 142 192 142 192 131 188 c 0,192,193
549 337 m 0,215,216
 541 335 541 335 531 340 c 0,217,218
 520 346 520 346 519 355 c 0,219,220
 519 362 519 362 525 368 c 0,221,222
 535 380 535 380 545 399 c 0,223,224
 555 420 555 420 558 438 c 0,225,226
 558 445 558 445 558.5 455.5 c 128,-1,227
 559 466 559 466 558 471 c 0,228,229
 556 485 556 485 571 487 c 0,230,231
 590 491 590 491 598 480 c 0,232,233
 603 473 603 473 601 452 c 0,234,235
 597 399 597 399 566 355 c 0,236,237
 562 349 562 349 559 346 c 0,238,239
 555 339 555 339 549 337 c 0,215,216
243 452 m 0,240,241
 241 451 241 451 236 451 c 0,242,243
 218 451 218 451 214 467 c 0,244,245
 214 469 214 469 214 474 c 0,246,247
 214 478 214 478 217 485 c 0,248,249
 241 542 241 542 298 567 c 0,250,251
 312 572 312 572 319 572 c 0,252,253
 323 572 323 572 325 572 c 0,254,255
 338 567 338 567 338 551 c 0,256,257
 338 544 338 544 335.5 540.5 c 128,-1,258
 333 537 333 537 322 532 c 2,259,-1
 313 527 l 1,260,-1
 314 525 l 2,261,262
 320 515 320 515 319 503 c 0,263,264
 317 493 317 493 313 485 c 0,265,266
 309 478 309 478 302 474 c 0,267,268
 294 470 294 470 282 470.5 c 128,-1,269
 270 471 270 471 263 476 c 2,270,-1
 260 478 l 1,271,-1
 259 476 l 2,272,273
 258 475 258 475 254 466 c 0,274,275
 248 455 248 455 243 452 c 0,240,241
357 611 m 0,276,277
 349 607 349 607 343 610 c 0,278,279
 333 616 333 616 331 629 c 0,280,281
 330 639 330 639 341 646 c 0,282,283
 344 648 344 648 347 651 c 0,284,285
 367 667 367 667 390 675 c 0,286,287
 394 676 394 676 401.5 678 c 128,-1,288
 409 680 409 680 409 680 c 257,289,290
 409 680 409 680 409 674 c 0,291,292
 408 668 408 668 407.5 657 c 128,-1,293
 407 646 407 646 408 640 c 0,294,295
 408 635 408 635 408 635 c 257,296,297
 408 635 408 635 403 633 c 0,298,299
 397 631 397 631 391 628.5 c 128,-1,300
 385 626 385 626 373 620 c 0,301,302
 359 612 359 612 357 611 c 0,276,277
EndSplineSet
EndChar

StartChar: p
Encoding: 112 112 15
Width: 1090
GlyphClass: 1
Flags: W
LayerCount: 2
Fore
SplineSet
215 -137 m 1,0,-1
 216 -138 l 1,1,-1
 533 -138 l 1,2,-1
 849 -138 l 1,3,-1
 851 -131 l 2,4,5
 863 -98 863 -98 868 -65 c 0,6,7
 870 -51 870 -51 870.5 -41.5 c 128,-1,8
 871 -32 871 -32 871 -15 c 256,9,10
 871 2 871 2 870.5 11.5 c 128,-1,11
 870 21 870 21 868 35 c 0,12,13
 858 109 858 109 816 171 c 0,14,15
 763 249 763 249 682 289 c 0,16,17
 675 292 675 292 664.5 296.5 c 128,-1,18
 654 301 654 301 653 301 c 0,19,20
 651 301 651 301 659 305 c 0,21,22
 680 316 680 316 699 335 c 0,23,24
 744 381 744 381 746 443 c 0,25,26
 748 502 748 502 712 547 c 0,27,28
 700 563 700 563 684 575 c 0,29,30
 653 598 653 598 617 605 c 0,31,32
 607 607 607 607 606.5 607.5 c 128,-1,33
 606 608 606 608 611 613 c 0,34,35
 654 649 654 649 652 706 c 0,36,37
 650 743 650 743 629 772 c 0,38,39
 620 784 620 784 607 794 c 0,40,41
 585 813 585 813 557 819 c 0,42,43
 511 828 511 828 473 806 c 0,44,45
 426 778 426 778 415 726 c 0,46,47
 409 695 409 695 418 666 c 0,48,49
 428 634 428 634 454 612 c 0,50,51
 459 608 459 608 458.5 607.5 c 128,-1,52
 458 607 458 607 448 605 c 0,53,54
 394 595 394 595 357 552 c 0,55,56
 326 516 326 516 320 471 c 0,57,58
 319 463 319 463 319 448 c 0,59,60
 319 428 319 428 323 412 c 0,61,62
 330 379 330 379 352 350 c 128,-1,63
 374 321 374 321 405 306 c 0,64,65
 413 301 413 301 411 301 c 0,66,67
 410 301 410 301 399.5 296.5 c 128,-1,68
 389 292 389 292 381 288 c 0,69,70
 301 249 301 249 249 172 c 0,71,72
 190 85 190 85 193 -23 c 0,73,74
 193 -45 193 -45 196 -64 c 0,75,76
 202 -101 202 -101 215 -137 c 1,0,-1
EndSplineSet
EndChar

StartChar: q
Encoding: 113 113 16
Width: 1090
GlyphClass: 1
Flags: W
LayerCount: 2
Fore
SplineSet
492 -165 m 0,0,1
 496 -166 496 -166 511.5 -165.5 c 128,-1,2
 527 -165 527 -165 545 -165 c 128,-1,3
 563 -165 563 -165 577 -165 c 128,-1,4
 591 -165 591 -165 592 -165 c 0,5,6
 594 -165 594 -165 605 -164 c 0,7,8
 655 -163 655 -163 704 -157.5 c 128,-1,9
 753 -152 753 -152 794.5 -143.5 c 128,-1,10
 836 -135 836 -135 862 -124 c 0,11,12
 871 -121 871 -121 880.5 -115.5 c 128,-1,13
 890 -110 890 -110 892 -107 c 0,14,15
 893 -107 893 -107 892 -103 c 128,-1,16
 891 -99 891 -99 887 -84 c 128,-1,17
 883 -69 883 -69 874 -35 c 2,18,-1
 855 36 l 1,19,-1
 864 82 l 1,20,-1
 872 129 l 1,21,-1
 898 174 l 1,22,-1
 924 219 l 1,23,-1
 945 376 l 2,24,25
 951 419 951 419 956 458 c 128,-1,26
 961 497 961 497 964.5 524 c 128,-1,27
 968 551 968 551 969 557 c 0,28,29
 971 567 971 567 971.5 574 c 128,-1,30
 972 581 972 581 972 581 c 2,31,32
 972 582 972 582 958 588 c 0,33,34
 949 592 949 592 947 593 c 128,-1,35
 945 594 945 594 945 593 c 1,36,37
 944 593 944 593 920.5 553 c 128,-1,38
 897 513 897 513 864 458 c 0,39,40
 831 402 831 402 807.5 363 c 128,-1,41
 784 324 784 324 784 324 c 257,42,43
 784 324 784 324 783.5 345.5 c 128,-1,44
 783 367 783 367 783 403.5 c 128,-1,45
 783 440 783 440 782 484 c 0,46,47
 782 528 782 528 781.5 564.5 c 128,-1,48
 781 601 781 601 780.5 623 c 128,-1,49
 780 645 780 645 780 645 c 257,50,51
 780 645 780 645 770 647 c 128,-1,52
 760 649 760 649 750 650.5 c 128,-1,53
 740 652 740 652 740 652 c 257,54,55
 740 652 740 652 731.5 630 c 128,-1,56
 723 608 723 608 709.5 571.5 c 128,-1,57
 696 535 696 535 679 491 c 0,58,59
 619 330 619 330 618 331 c 2,60,61
 618 331 618 331 613.5 354.5 c 128,-1,62
 609 378 609 378 602 417 c 128,-1,63
 595 456 595 456 586 503 c 256,64,65
 577 550 577 550 569.5 589 c 128,-1,66
 562 628 562 628 557.5 651.5 c 128,-1,67
 553 675 553 675 553 675 c 1,68,-1
 553 677 l 1,69,-1
 533 677 l 1,70,-1
 513 677 l 1,71,-1
 512 675 l 1,72,73
 512 675 512 675 507.5 651.5 c 128,-1,74
 503 628 503 628 496 589 c 128,-1,75
 489 550 489 550 480 502 c 0,76,77
 471 455 471 455 463.5 416 c 128,-1,78
 456 377 456 377 451.5 353.5 c 128,-1,79
 447 330 447 330 447 330 c 2,80,81
 447 329 447 329 435 361 c 0,82,83
 403 445 403 445 378 510.5 c 128,-1,84
 353 576 353 576 339 614 c 128,-1,85
 325 652 325 652 325 652 c 2,86,87
 324 652 324 652 314.5 650.5 c 128,-1,88
 305 649 305 649 295 647 c 128,-1,89
 285 645 285 645 285 645 c 257,90,91
 285 645 285 645 284.5 623 c 128,-1,92
 284 601 284 601 283.5 564.5 c 128,-1,93
 283 528 283 528 283 484 c 0,94,95
 282 440 282 440 282 403.5 c 128,-1,96
 282 367 282 367 281.5 345.5 c 128,-1,97
 281 324 281 324 281 324 c 257,98,99
 281 324 281 324 267.5 346.5 c 128,-1,100
 254 369 254 369 235 401 c 256,101,102
 216 433 216 433 192.5 472.5 c 128,-1,103
 169 512 169 512 155 536 c 0,104,105
 141 559 141 559 131 576 c 128,-1,106
 121 593 121 593 121 593 c 2,107,108
 120 593 120 593 106 588 c 2,109,-1
 92 583 l 1,110,-1
 92 581 l 2,111,112
 92 580 92 580 95.5 555 c 128,-1,113
 99 530 99 530 108 465 c 128,-1,114
 117 400 117 400 133 280 c 2,115,-1
 142 218 l 1,116,-1
 167 173 l 1,117,-1
 193 128 l 1,118,-1
 201 82 l 1,119,-1
 210 36 l 1,120,-1
 191 -34 l 1,121,-1
 173 -104 l 1,122,-1
 175 -106 l 2,123,124
 185 -116 185 -116 208 -125 c 0,125,126
 244 -139 244 -139 304.5 -149 c 128,-1,127
 365 -159 365 -159 435 -163 c 0,128,129
 446 -164 446 -164 463 -164.5 c 128,-1,130
 480 -165 480 -165 492 -165 c 0,0,1
236 -86 m 0,131,132
 230 -88 230 -88 229 -88 c 0,133,134
 228 -89 228 -89 228 -87 c 2,135,136
 228 -87 228 -87 231 -77 c 128,-1,137
 234 -67 234 -67 237 -53 c 0,138,139
 241 -39 241 -39 244 -29 c 128,-1,140
 247 -19 247 -19 247 -19 c 2,141,142
 247 -18 247 -18 261 -15.5 c 128,-1,143
 275 -13 275 -13 287 -11 c 0,144,145
 362 3 362 3 464 7 c 0,146,147
 476 7 476 7 504 7 c 128,-1,148
 532 7 532 7 560.5 7 c 128,-1,149
 589 7 589 7 601 7 c 0,150,151
 708 2 708 2 784 -11 c 0,152,153
 795 -14 795 -14 807 -16 c 128,-1,154
 819 -18 819 -18 819 -19 c 1,155,156
 820 -19 820 -19 822.5 -29 c 128,-1,157
 825 -39 825 -39 828 -52 c 0,158,159
 832 -66 832 -66 834.5 -76 c 128,-1,160
 837 -86 837 -86 837 -87 c 256,161,162
 837 -88 837 -88 836 -88 c 0,163,164
 834 -87 834 -87 821.5 -84 c 128,-1,165
 809 -81 809 -81 800 -79 c 0,166,167
 713 -61 713 -61 596 -56 c 0,168,169
 585 -55 585 -55 558 -55 c 128,-1,170
 531 -55 531 -55 504 -55 c 128,-1,171
 477 -55 477 -55 465 -56 c 0,172,173
 391 -59 391 -59 335.5 -66 c 128,-1,174
 280 -73 280 -73 236 -86 c 0,131,132
265 30 m 0,175,176
 255 28 255 28 254 28 c 256,177,178
 253 28 253 28 253 29 c 0,179,180
 252 33 252 33 250 47 c 128,-1,181
 248 61 248 61 246 74 c 128,-1,182
 244 87 244 87 245 87 c 2,183,184
 245 87 245 87 255 89.5 c 128,-1,185
 265 92 265 92 274 94 c 0,186,187
 352 112 352 112 467 116 c 0,188,189
 473 116 473 116 488 116.5 c 128,-1,190
 503 117 503 117 517 117 c 0,191,192
 674 119 674 119 780 97 c 0,193,194
 789 95 789 95 804.5 91.5 c 128,-1,195
 820 88 820 88 821 87 c 0,196,197
 822 87 822 87 817 58 c 0,198,199
 815 46 815 46 814 37 c 128,-1,200
 813 28 813 28 812 28 c 2,201,202
 812 28 812 28 806 30 c 0,203,204
 731 49 731 49 617 55 c 0,205,206
 577 56 577 56 527.5 56 c 128,-1,207
 478 56 478 56 437 54 c 0,208,209
 338 48 338 48 265 30 c 0,175,176
848 166 m 0,210,211
 842 155 842 155 837.5 147.5 c 128,-1,212
 833 140 833 140 833 140 c 2,213,214
 832 140 832 140 825 142 c 0,215,216
 809 147 809 147 784.5 151 c 128,-1,217
 760 155 760 155 736 158 c 0,218,219
 693 163 693 163 638.5 165.5 c 128,-1,220
 584 168 584 168 525.5 167.5 c 128,-1,221
 467 167 467 167 414 165 c 0,222,223
 305 159 305 159 245 143 c 0,224,225
 235 141 235 141 234 140 c 0,226,227
 233 140 233 140 225.5 153.5 c 128,-1,228
 218 167 218 167 211 180 c 128,-1,229
 204 193 204 193 204 194 c 1,230,231
 205 194 205 194 216.5 197.5 c 128,-1,232
 228 201 228 201 239 204 c 0,233,234
 291 217 291 217 363 224.5 c 128,-1,235
 435 232 435 232 515 232.5 c 128,-1,236
 595 233 595 233 671 227 c 0,237,238
 722 223 722 223 768.5 215 c 128,-1,239
 815 207 815 207 847 198 c 0,240,241
 863 193 863 193 863 192 c 2,242,243
 863 192 863 192 858.5 184 c 128,-1,244
 854 176 854 176 848 166 c 0,210,211
62 584 m 256,245,246
 77 582 77 582 92 586 c 0,247,248
 111 591 111 591 126.5 606 c 128,-1,249
 142 621 142 621 148 640 c 0,250,251
 155 665 155 665 147 688 c 0,252,253
 135 726 135 726 98 739 c 0,254,255
 86 743 86 743 71 743 c 0,256,257
 55 743 55 743 43 739 c 0,258,259
 14 728 14 728 -1 699 c 0,260,261
 -10 681 -10 681 -9 660 c 0,262,263
 -8 642 -8 642 -1 627 c 0,264,265
 11 604 11 604 35 592 c 0,266,267
 47 586 47 586 62 584 c 256,245,246
984 584 m 0,268,269
 999 582 999 582 1013 585 c 0,270,271
 1041 591 1041 591 1060 616 c 0,272,273
 1068 627 1068 627 1072 640 c 0,274,275
 1079 665 1079 665 1071 688 c 0,276,277
 1058 728 1058 728 1019 740 c 0,278,279
 1009 743 1009 743 995 743 c 0,280,281
 975 743 975 743 960 736 c 0,282,283
 929 720 929 720 919 688 c 0,284,285
 915 677 915 677 915 663 c 0,286,287
 915 648 915 648 920 636 c 0,288,289
 927 616 927 616 945 601.5 c 128,-1,290
 963 587 963 587 984 584 c 0,268,269
275 649 m 0,291,292
 290 647 290 647 304 650 c 0,293,294
 332 656 332 656 351 680 c 0,295,296
 367 702 367 702 366 731 c 0,297,298
 365 753 365 753 353 771 c 0,299,300
 350 776 350 776 342.5 783.5 c 128,-1,301
 335 791 335 791 330 794 c 0,302,303
 317 803 317 803 302 806 c 0,304,305
 286 809 286 809 271 806 c 0,306,307
 247 801 247 801 230 784 c 0,308,309
 215 769 215 769 210 753 c 0,310,311
 206 742 206 742 206 727 c 256,312,313
 206 712 206 712 211 701 c 0,314,315
 218 680 218 680 236 665.5 c 128,-1,316
 254 651 254 651 275 649 c 0,291,292
770 648 m 0,317,318
 784 647 784 647 800 651 c 0,319,320
 819 656 819 656 834.5 671 c 128,-1,321
 850 686 850 686 856 704 c 0,322,323
 866 741 866 741 846 771 c 0,324,325
 843 776 843 776 835.5 783.5 c 128,-1,326
 828 791 828 791 824 794 c 0,327,328
 802 808 802 808 776 807 c 0,329,330
 744 806 744 806 723 784 c 0,331,332
 698 759 698 759 699 724 c 0,333,334
 700 707 700 707 707 692 c 0,335,336
 719 668 719 668 743 656 c 0,337,338
 755 650 755 650 770 648 c 0,317,318
523 678 m 0,339,340
 559 675 559 675 584 697 c 0,341,342
 606 715 606 715 611 741 c 0,343,344
 615 757 615 757 611 773 c 0,345,346
 604 807 604 807 574 826 c 0,347,348
 554 838 554 838 529 837 c 0,349,350
 498 836 498 836 477 814 c 0,351,352
 452 789 452 789 453 754 c 0,353,354
 454 723 454 723 477 701 c 0,355,356
 489 688 489 688 505 682 c 0,357,358
 515 679 515 679 523 678 c 0,339,340
EndSplineSet
EndChar

StartChar: r
Encoding: 114 114 17
Width: 1090
GlyphClass: 1
Flags: W
LayerCount: 2
Fore
SplineSet
130 -80 m 1,0,-1
 130 -150 l 1,1,-1
 530 -150 l 1,2,-1
 930 -150 l 1,3,-1
 930 -80 l 1,4,-1
 930 -10 l 1,5,-1
 885 -10 l 1,6,-1
 840 -10 l 1,7,-1
 840 50 l 1,8,-1
 840 110 l 1,9,-1
 791 160 l 1,10,-1
 741 210 l 1,11,-1
 741 350 l 1,12,-1
 741 490 l 1,13,-1
 806 540 l 1,14,-1
 871 590 l 1,15,-1
 871 700 l 1,16,-1
 871 810 l 1,17,-1
 791 810 l 1,18,-1
 710 810 l 1,19,-1
 710 769 l 1,20,-1
 710 729 l 1,21,-1
 661 729 l 1,22,-1
 611 729 l 1,23,-1
 611 769 l 1,24,-1
 611 810 l 1,25,-1
 531 810 l 1,26,-1
 450 810 l 1,27,-1
 450 769 l 1,28,-1
 450 729 l 1,29,-1
 400 729 l 1,30,-1
 350 729 l 1,31,-1
 350 769 l 1,32,-1
 350 810 l 1,33,-1
 270 810 l 1,34,-1
 190 810 l 1,35,-1
 190 700 l 1,36,-1
 190 590 l 1,37,-1
 255 540 l 1,38,-1
 320 490 l 1,39,-1
 320 350 l 1,40,-1
 320 210 l 1,41,-1
 270 160 l 1,42,-1
 220 110 l 1,43,-1
 220 50 l 1,44,-1
 220 -10 l 1,45,-1
 175 -10 l 1,46,-1
 130 -10 l 1,47,-1
 130 -80 l 1,0,-1
800 -31 m 1,48,-1
 800 -61 l 1,49,-1
 531 -61 l 1,50,-1
 261 -61 l 1,51,-1
 261 -31 l 1,52,-1
 261 -1 l 1,53,-1
 531 -1 l 1,54,-1
 800 -1 l 1,55,-1
 800 -31 l 1,48,-1
800 77 m 1,56,-1
 800 60 l 1,57,-1
 531 60 l 1,58,-1
 261 60 l 1,59,-1
 261 77 l 1,60,-1
 261 94 l 1,61,-1
 274 107 l 1,62,-1
 288 119 l 1,63,-1
 531 119 l 1,64,-1
 773 119 l 1,65,-1
 787 107 l 1,66,-1
 800 94 l 1,67,-1
 800 77 l 1,56,-1
718 176 m 1,68,-1
 735 159 l 1,69,-1
 531 159 l 1,70,-1
 326 159 l 1,71,-1
 343 176 l 1,72,-1
 361 193 l 1,73,-1
 361 207 l 1,74,-1
 361 220 l 1,75,-1
 531 220 l 1,76,-1
 700 220 l 1,77,-1
 700 207 l 1,78,-1
 700 193 l 1,79,-1
 718 176 l 1,68,-1
701 496 m 1,80,-1
 700 479 l 1,81,-1
 531 479 l 1,82,-1
 361 479 l 1,83,-1
 360 496 l 1,84,-1
 360 513 l 1,85,-1
 343 526 l 1,86,-1
 326 540 l 1,87,-1
 428 540 l 2,88,89
 456 540 456 540 493.5 540 c 128,-1,90
 531 540 531 540 568 540 c 128,-1,91
 605 540 605 540 633 540 c 2,92,-1
 735 540 l 1,93,-1
 718 526 l 1,94,-1
 701 513 l 1,95,-1
 701 496 l 1,80,-1
809 596 m 1,96,-1
 788 580 l 1,97,-1
 531 580 l 1,98,-1
 273 580 l 1,99,-1
 252 596 l 1,100,-1
 231 612 l 1,101,-1
 231 626 l 1,102,-1
 230 639 l 1,103,-1
 530 639 l 1,104,-1
 830 639 l 1,105,-1
 830 626 l 1,106,-1
 830 612 l 1,107,-1
 809 596 l 1,96,-1
EndSplineSet
EndChar

StartChar: glyph18
Encoding: 65537 -1 18
Width: 1090
GlyphClass: 1
Flags: W
LayerCount: 2
Fore
SplineSet
533 757 m 0,0,1
 550 753 550 753 564.5 758 c 128,-1,2
 579 763 579 763 584 774 c 0,3,4
 586 779 586 779 586 788.5 c 128,-1,5
 586 798 586 798 584 803 c 0,6,7
 576 821 576 821 548 821 c 0,8,9
 519 821 519 821 511 803 c 0,10,11
 509 798 509 798 509 788.5 c 128,-1,12
 509 779 509 779 511 774 c 0,13,14
 517 760 517 760 533 757 c 0,0,1
EndSplineSet
EndChar

StartChar: glyph19
Encoding: 65538 -1 19
Width: 1090
GlyphClass: 1
Flags: W
LayerCount: 2
Fore
SplineSet
717 423 m 0,0,1
 732 417 732 417 734 417 c 256,2,3
 736 417 736 417 740 423 c 0,4,5
 781 485 781 485 742 550 c 0,6,7
 735 563 735 563 719 577 c 128,-1,8
 703 591 703 591 672 613 c 0,9,10
 642 634 642 634 623.5 647.5 c 128,-1,11
 605 661 605 661 590.5 673 c 128,-1,12
 576 685 576 685 559 700 c 2,13,-1
 547 711 l 1,14,-1
 533 697 l 2,15,16
 514 680 514 680 493 664 c 128,-1,17
 472 648 472 648 433 621 c 0,18,19
 402 598 402 598 386 585.5 c 128,-1,20
 370 573 370 573 362 563 c 128,-1,21
 354 553 354 553 348 541 c 256,22,23
 342 529 342 529 338 516.5 c 128,-1,24
 334 504 334 504 335 502 c 0,25,26
 336 501 336 501 341 498 c 128,-1,27
 346 495 346 495 353 490 c 0,28,29
 368 482 368 482 386.5 468 c 128,-1,30
 405 454 405 454 418 443 c 2,31,-1
 429 433 l 1,32,-1
 433 444 l 2,33,34
 444 469 444 469 465 491 c 0,35,36
 475 502 475 502 473 502 c 0,37,38
 464 502 464 502 459.5 510 c 128,-1,39
 455 518 455 518 459 527 c 0,40,41
 461 533 461 533 468 534.5 c 128,-1,42
 475 536 475 536 498 536 c 2,43,-1
 525 536 l 1,44,-1
 525 560 l 2,45,46
 525 577 525 577 526 581.5 c 128,-1,47
 527 586 527 586 529 589 c 0,48,49
 534 595 534 595 546 596 c 128,-1,50
 558 597 558 597 564 591 c 0,51,52
 568 587 568 587 568 576 c 0,53,54
 568 566 568 566 569 551 c 2,55,-1
 570 536 l 1,56,-1
 600 536 l 1,57,-1
 630 535 l 1,58,-1
 634 531 l 2,59,60
 645 518 645 518 633 507 c 2,61,-1
 629 502 l 1,62,-1
 599 502 l 1,63,-1
 570 502 l 1,64,-1
 570 484 l 2,65,66
 570 471 570 471 570.5 467.5 c 128,-1,67
 571 464 571 464 575 458 c 2,68,-1
 580 450 l 1,69,-1
 601 448 l 2,70,71
 630 445 630 445 661.5 438 c 128,-1,72
 693 431 693 431 717 423 c 0,0,1
EndSplineSet
EndChar

StartChar: glyph20
Encoding: 65539 -1 20
Width: 1090
GlyphClass: 1
Flags: W
LayerCount: 2
Fore
SplineSet
462 -98 m 1,0,1
 462 -98 462 -98 496.5 -98.5 c 128,-1,2
 531 -99 531 -99 590 -99 c 128,-1,3
 649 -99 649 -99 720 -99 c 2,4,-1
 979 -99 l 1,5,-1
 978 -69 l 2,6,7
 977 -28 977 -28 976.5 -11 c 128,-1,8
 976 6 976 6 974 19 c 0,9,10
 970 46 970 46 960 79 c 128,-1,11
 950 112 950 112 937 144.5 c 128,-1,12
 924 177 924 177 911 202 c 0,13,14
 867 280 867 280 810 325 c 0,15,16
 726 391 726 391 602 413 c 0,17,18
 598 413 598 413 597.5 412.5 c 128,-1,19
 597 412 597 412 598 408 c 0,20,21
 600 399 600 399 600.5 380.5 c 128,-1,22
 601 362 601 362 599 359 c 0,23,24
 595 348 595 348 580 348 c 0,25,26
 568 348 568 348 564 353.5 c 128,-1,27
 560 359 560 359 560 375 c 0,28,29
 560 397 560 397 550 420 c 0,30,31
 541 442 541 442 520 464 c 0,32,33
 509 476 509 476 505.5 475.5 c 128,-1,34
 502 475 502 475 491 462 c 0,35,36
 467 433 467 433 460 396 c 0,37,38
 457 379 457 379 453.5 375 c 128,-1,39
 450 371 450 371 439 371 c 0,40,41
 431 371 431 371 428.5 372 c 128,-1,42
 426 373 426 373 422 376 c 0,43,44
 418 381 418 381 418 387 c 0,45,46
 418 392 418 392 417 392 c 256,47,48
 416 392 416 392 400 386.5 c 128,-1,49
 384 381 384 381 375 377 c 0,50,51
 362 371 362 371 355.5 371 c 128,-1,52
 349 371 349 371 343 377 c 0,53,54
 338 383 338 383 338 389 c 256,55,56
 338 395 338 395 342.5 398.5 c 128,-1,57
 347 402 347 402 365 411 c 0,58,59
 374 414 374 414 379.5 417 c 128,-1,60
 385 420 385 420 385 421 c 256,61,62
 385 422 385 422 373 431 c 0,63,64
 336 460 336 460 291 482 c 2,65,-1
 276 489 l 1,66,-1
 276 484 l 2,67,68
 276 477 276 477 280 459 c 128,-1,69
 284 441 284 441 289 426 c 0,70,71
 300 394 300 394 316 366 c 0,72,73
 323 354 323 354 323 350 c 0,74,75
 323 340 323 340 311.5 334.5 c 128,-1,76
 300 329 300 329 291 335 c 0,77,78
 289 336 289 336 285.5 340.5 c 128,-1,79
 282 345 282 345 274 356 c 0,80,81
 273 358 273 358 263 346 c 128,-1,82
 253 334 253 334 246 324 c 0,83,84
 232 303 232 303 229 295.5 c 128,-1,85
 226 288 226 288 226 272 c 0,86,87
 226 253 226 253 221.5 240.5 c 128,-1,88
 217 228 217 228 206 210 c 0,89,90
 202 205 202 205 190 188.5 c 128,-1,91
 178 172 178 172 162 151 c 128,-1,92
 146 130 146 130 131 111 c 0,93,94
 122 99 122 99 113.5 87.5 c 128,-1,95
 105 76 105 76 103 72 c 0,96,97
 90 50 90 50 89.5 24.5 c 128,-1,98
 89 -1 89 -1 101 -19 c 0,99,100
 105 -26 105 -26 115.5 -35 c 128,-1,101
 126 -44 126 -44 136 -49 c 0,102,103
 166 -64 166 -64 194 -45 c 0,104,105
 200 -41 200 -41 210 -25 c 0,106,107
 220 -10 220 -10 225 -5.5 c 128,-1,108
 230 -1 230 -1 237 -2 c 0,109,110
 243 -2 243 -2 246 -5 c 0,111,112
 253 -11 253 -11 246 -29.5 c 128,-1,113
 239 -48 239 -48 224 -65 c 0,114,115
 216 -74 216 -74 224 -83 c 0,116,117
 229 -91 229 -91 239 -86 c 128,-1,118
 249 -81 249 -81 259 -65 c 0,119,120
 276 -37 276 -37 289 -19 c 128,-1,121
 302 -1 302 -1 315 12 c 128,-1,122
 328 25 328 25 347 39 c 0,123,124
 371 56 371 56 394 68.5 c 128,-1,125
 417 81 417 81 449 92 c 0,126,127
 486 105 486 105 504.5 115 c 128,-1,128
 523 125 523 125 538 141 c 0,129,130
 560 162 560 162 571 187 c 0,131,132
 573 194 573 194 574 200 c 128,-1,133
 575 206 575 206 576 220 c 2,134,-1
 577 243 l 1,135,-1
 583 246 l 2,136,137
 588 249 588 249 599 248 c 0,138,139
 609 248 609 248 614 242 c 2,140,-1
 619 237 l 1,141,-1
 618 220 l 2,142,143
 616 180 616 180 592 143 c 2,144,-1
 582 129 l 1,145,-1
 586 116 l 2,146,147
 588 107 588 107 588.5 101 c 128,-1,148
 589 95 589 95 589 79 c 0,149,150
 588 59 588 59 585 46 c 128,-1,151
 582 33 582 33 572 13 c 0,152,153
 560 -13 560 -13 540.5 -33.5 c 128,-1,154
 521 -54 521 -54 483 -82 c 0,155,156
 475 -88 475 -88 469 -92.5 c 128,-1,157
 463 -97 463 -97 462 -98 c 1,0,1
153 6 m 0,158,159
 135 -1 135 -1 126 8 c 0,160,161
 122 11 122 11 123 22 c 0,162,163
 124 40 124 40 137 56 c 0,164,165
 143 62 143 62 152 68 c 128,-1,166
 161 74 161 74 166 75 c 0,167,168
 175 77 175 77 183 71 c 128,-1,169
 191 65 191 65 191 57 c 0,170,171
 191 51 191 51 185 47 c 0,172,173
 173 38 173 38 168.5 33 c 128,-1,174
 164 28 164 28 163 21 c 0,175,176
 160 8 160 8 153 6 c 0,158,159
289 219 m 0,177,178
 279 213 279 213 267.5 219 c 128,-1,179
 256 225 256 225 256 235 c 0,180,181
 256 242 256 242 265 255 c 128,-1,182
 274 268 274 268 287 281 c 128,-1,183
 300 294 300 294 312 302 c 0,184,185
 339 317 339 317 358 320 c 0,186,187
 373 322 373 322 379 310 c 0,188,189
 387 294 387 294 366 285 c 2,190,-1
 357 281 l 1,191,-1
 360 276 l 2,192,193
 364 268 364 268 361 256 c 128,-1,194
 358 244 358 244 349 238 c 0,195,196
 336 229 336 229 316 234 c 0,197,198
 309 236 309 236 306 237 c 0,199,200
 302 238 302 238 298 230 c 0,201,202
 293 221 293 221 289 219 c 0,177,178
EndSplineSet
EndChar

StartChar: glyph21
Encoding: 65540 -1 21
Width: 1090
GlyphClass: 1
Flags: W
LayerCount: 2
Fore
SplineSet
531 716 m 0,0,1
 538 714 538 714 550 715 c 0,2,3
 571 715 571 715 580 728 c 0,4,5
 585 735 585 735 586 749 c 0,6,7
 588 791 588 791 547 791 c 0,8,9
 509 791 509 791 509 754 c 0,10,11
 509 743 509 743 511 736 c 0,12,13
 513 730 513 730 519 724 c 128,-1,14
 525 718 525 718 531 716 c 0,0,1
EndSplineSet
EndChar

StartChar: glyph22
Encoding: 65541 -1 22
Width: 1090
GlyphClass: 1
Flags: W
LayerCount: 2
Fore
SplineSet
427 261 m 0,0,1
 440 255 440 255 442 256 c 0,2,3
 450 259 450 259 476 260.5 c 128,-1,4
 502 262 502 262 533 263 c 0,5,6
 568 264 568 264 593.5 262.5 c 128,-1,7
 619 261 619 261 642 258 c 2,8,-1
 656 256 l 1,9,-1
 670 261 l 2,10,11
 716 281 716 281 740 321 c 0,12,13
 754 346 754 346 759 374 c 0,14,15
 764 409 764 409 753.5 443.5 c 128,-1,16
 743 478 743 478 719 503 c 0,17,18
 714 508 714 508 698 522.5 c 128,-1,19
 682 537 682 537 663 553 c 0,20,21
 623 586 623 586 602 605 c 128,-1,22
 581 624 581 624 565 642 c 2,23,-1
 548 661 l 1,24,-1
 530 643 l 2,25,26
 511 623 511 623 491 604.5 c 128,-1,27
 471 586 471 586 433 554 c 0,28,29
 402 527 402 527 386.5 513 c 128,-1,30
 371 499 371 499 363.5 488.5 c 128,-1,31
 356 478 356 478 349 464 c 0,32,33
 340 445 340 445 337.5 432.5 c 128,-1,34
 335 420 335 420 335 398 c 0,35,36
 336 375 336 375 338.5 362.5 c 128,-1,37
 341 350 341 350 350 331 c 0,38,39
 373 282 373 282 427 261 c 0,0,1
563 350 m 0,40,41
 558 345 558 345 548 345 c 0,42,43
 537 345 537 345 532 350 c 2,44,-1
 526 355 l 1,45,-1
 526 383 l 1,46,-1
 525 412 l 1,47,-1
 515 413 l 2,48,49
 505 414 505 414 487 414 c 0,50,51
 473 414 473 414 470 414.5 c 128,-1,52
 467 415 467 415 463 418 c 0,53,54
 457 424 457 424 457 435 c 128,-1,55
 457 446 457 446 465 451 c 0,56,57
 467 453 467 453 472.5 453.5 c 128,-1,58
 478 454 478 454 497 454 c 2,59,-1
 525 454 l 1,60,-1
 525 484 l 1,61,-1
 525 514 l 1,62,-1
 531 519 l 2,63,64
 535 523 535 523 537.5 524 c 128,-1,65
 540 525 540 525 547 525 c 0,66,67
 558 525 558 525 563 520 c 0,68,69
 567 517 567 517 567.5 514 c 128,-1,70
 568 511 568 511 568 501 c 0,71,72
 568 486 568 486 569 470 c 2,73,-1
 570 454 l 1,74,-1
 598 454 l 2,75,76
 620 454 620 454 626.5 452.5 c 128,-1,77
 633 451 633 451 636 446 c 0,78,79
 640 438 640 438 637.5 428 c 128,-1,80
 635 418 635 418 629 415 c 0,81,82
 627 415 627 415 618 414.5 c 128,-1,83
 609 414 609 414 597 414 c 2,84,-1
 570 414 l 1,85,-1
 569 399 l 2,86,87
 568 384 568 384 568 369 c 0,88,89
 568 359 568 359 567.5 356 c 128,-1,90
 567 353 567 353 563 350 c 0,40,41
EndSplineSet
EndChar

StartChar: glyph23
Encoding: 65542 -1 23
Width: 1090
GlyphClass: 1
Flags: W
LayerCount: 2
Fore
SplineSet
418 149 m 0,0,1
 416 144 416 144 419 145 c 256,2,3
 422 146 422 146 433.5 148 c 128,-1,4
 445 150 445 150 458 152 c 0,5,6
 506 158 506 158 562.5 157 c 128,-1,7
 619 156 619 156 666 147 c 0,8,9
 674 145 674 145 675.5 145.5 c 128,-1,10
 677 146 677 146 677 147 c 0,11,12
 676 148 676 148 672 158.5 c 128,-1,13
 668 169 668 169 663 182 c 0,14,15
 656 201 656 201 652.5 208 c 128,-1,16
 649 215 649 215 647 215 c 0,17,18
 646 215 646 215 638 216.5 c 128,-1,19
 630 218 630 218 620 219 c 0,20,21
 598 222 598 222 563 222 c 128,-1,22
 528 222 528 222 495 220.5 c 128,-1,23
 462 219 462 219 448 215 c 0,24,25
 445 214 445 214 442 208.5 c 128,-1,26
 439 203 439 203 432 185 c 0,27,28
 427 172 427 172 423 162 c 128,-1,29
 419 152 419 152 418 149 c 0,0,1
EndSplineSet
EndChar

StartChar: glyph24
Encoding: 65543 -1 24
Width: 1090
GlyphClass: 1
Flags: W
LayerCount: 2
Fore
SplineSet
507 77 m 0,0,1
 516 77 516 77 535.5 76.5 c 128,-1,2
 555 76 555 76 574.5 77 c 128,-1,3
 594 78 594 78 603 79 c 0,4,5
 611 80 611 80 629 83.5 c 128,-1,6
 647 87 647 87 664.5 90.5 c 128,-1,7
 682 94 682 94 687 96 c 2,8,-1
 694 98 l 1,9,-1
 677 102 l 2,10,11
 619 114 619 114 553 114.5 c 128,-1,12
 487 115 487 115 431 104 c 0,13,14
 406 99 406 99 404.5 98 c 128,-1,15
 403 97 403 97 419 93 c 0,16,17
 447 87 447 87 466.5 83.5 c 128,-1,18
 486 80 486 80 507 77 c 0,0,1
EndSplineSet
EndChar

StartChar: glyph25
Encoding: 65544 -1 25
Width: 1090
GlyphClass: 1
Flags: W
LayerCount: 2
Fore
SplineSet
350 -86 m 0,0,1
 360 -88 360 -88 383.5 -87.5 c 128,-1,2
 407 -87 407 -87 417 -85 c 0,3,4
 445 -80 445 -80 463.5 -68.5 c 128,-1,5
 482 -57 482 -57 500 -33 c 0,6,7
 522 -4 522 -4 525 30 c 2,8,-1
 526 41 l 1,9,-1
 517 41 l 1,10,-1
 508 41 l 1,11,-1
 498 27 l 2,12,13
 489 13 489 13 473 -3 c 0,14,15
 458 -18 458 -18 445 -25 c 0,16,17
 419 -37 419 -37 400.5 -40.5 c 128,-1,18
 382 -44 382 -44 360 -41 c 0,19,20
 333 -38 333 -38 305.5 -33 c 128,-1,21
 278 -28 278 -28 263 -24 c 0,22,23
 249 -21 249 -21 241.5 -20 c 128,-1,24
 234 -19 234 -19 215 -19 c 0,25,26
 162 -19 162 -19 126 -34 c 2,27,-1
 114 -39 l 1,28,-1
 128 -60 l 2,29,30
 133 -69 133 -69 137 -75.5 c 128,-1,31
 141 -82 141 -82 141 -82 c 2,32,33
 141 -83 141 -83 147 -79 c 0,34,35
 153 -76 153 -76 169 -72.5 c 128,-1,36
 185 -69 185 -69 201 -69 c 0,37,38
 211 -68 211 -68 220.5 -68.5 c 128,-1,39
 230 -69 230 -69 248 -72 c 0,40,41
 300 -79 300 -79 323 -82.5 c 128,-1,42
 346 -86 346 -86 350 -86 c 0,0,1
EndSplineSet
EndChar

StartChar: glyph26
Encoding: 65545 -1 26
Width: 1090
GlyphClass: 1
Flags: W
LayerCount: 2
Fore
SplineSet
677 -85 m 1,0,-1
 677 -85 l 1,1,2
 690 -87 690 -87 719 -87 c 0,3,4
 732 -87 732 -87 742.5 -86 c 128,-1,5
 753 -85 753 -85 769 -83 c 128,-1,6
 785 -81 785 -81 813 -77 c 0,7,8
 855 -71 855 -71 869 -69.5 c 128,-1,9
 883 -68 883 -68 894 -69 c 0,10,11
 908 -69 908 -69 925 -72.5 c 128,-1,12
 942 -76 942 -76 948 -79 c 2,13,-1
 953 -83 l 1,14,-1
 960 -72 l 2,15,16
 968 -59 968 -59 973.5 -49.5 c 128,-1,17
 979 -40 979 -40 979 -40 c 2,18,19
 979 -38 979 -38 962 -32 c 128,-1,20
 945 -26 945 -26 932 -23 c 0,21,22
 876 -12 876 -12 827 -25 c 0,23,24
 814 -28 814 -28 786.5 -33 c 128,-1,25
 759 -38 759 -38 736 -41 c 0,26,27
 695 -47 695 -47 654 -26 c 0,28,29
 620 -10 620 -10 593 31 c 2,30,-1
 587 41 l 1,31,-1
 578 41 l 1,32,-1
 570 41 l 1,33,-1
 570 33 l 2,34,35
 570 -1 570 -1 596 -35 c 0,36,37
 626 -76 626 -76 677 -85 c 1,0,-1
EndSplineSet
EndChar

StartChar: glyph27
Encoding: 65546 -1 27
Width: 1090
GlyphClass: 1
Flags: W
LayerCount: 2
Fore
SplineSet
540 404 m 2,0,-1
 547 379 l 1,1,-1
 554 401 l 2,2,3
 560 420 560 420 565.5 433.5 c 128,-1,4
 571 447 571 447 581 468 c 0,5,6
 597 502 597 502 607 529.5 c 128,-1,7
 617 557 617 557 617 567 c 0,8,9
 617 593 617 593 599.5 613 c 128,-1,10
 582 633 582 633 557 636 c 0,11,12
 516 640 516 640 494 617 c 0,13,14
 480 600 480 600 479 570 c 0,15,16
 479 560 479 560 480 554.5 c 128,-1,17
 481 549 481 549 486 536 c 0,18,19
 494 514 494 514 499 501.5 c 128,-1,20
 504 489 504 489 516 463 c 0,21,22
 532 429 532 429 540 404 c 2,0,-1
EndSplineSet
EndChar

StartChar: glyph28
Encoding: 65547 -1 28
Width: 1090
GlyphClass: 1
Flags: W
LayerCount: 2
Fore
SplineSet
183 251 m 2,0,-1
 212 228 l 1,1,-1
 224 232 l 2,2,3
 244 238 244 238 276.5 245 c 128,-1,4
 309 252 309 252 342 256 c 0,5,6
 364 259 364 259 394 261.5 c 128,-1,7
 424 264 424 264 453 265.5 c 128,-1,8
 482 267 482 267 501 267 c 256,9,10
 520 267 520 267 523 268 c 256,11,12
 526 269 526 269 526 283.5 c 128,-1,13
 526 298 526 298 524 317.5 c 128,-1,14
 522 337 522 337 518 352 c 0,15,16
 505 404 505 404 474 451 c 0,17,18
 464 465 464 465 448.5 481.5 c 128,-1,19
 433 498 433 498 421 505 c 0,20,21
 401 519 401 519 369 532 c 128,-1,22
 337 545 337 545 310 551 c 0,23,24
 222 569 222 569 162 534 c 0,25,26
 152 529 152 529 136 512 c 0,27,28
 113 489 113 489 103 464.5 c 128,-1,29
 93 440 93 440 92 405 c 0,30,31
 92 356 92 356 112 322 c 0,32,33
 120 309 120 309 138.5 290.5 c 128,-1,34
 157 272 157 272 183 251 c 2,0,-1
EndSplineSet
EndChar

StartChar: glyph29
Encoding: 65548 -1 29
Width: 1090
GlyphClass: 1
Flags: W
LayerCount: 2
Fore
SplineSet
875 231 m 0,0,1
 879 229 879 229 881 229 c 256,2,3
 883 229 883 229 897.5 240.5 c 128,-1,4
 912 252 912 252 929 266.5 c 128,-1,5
 946 281 946 281 956 290 c 0,6,7
 976 311 976 311 985.5 328 c 128,-1,8
 995 345 995 345 1000 369 c 0,9,10
 1003 386 1003 386 1002 411.5 c 128,-1,11
 1001 437 1001 437 997 452 c 0,12,13
 986 488 986 488 958 514.5 c 128,-1,14
 930 541 930 541 893 551 c 0,15,16
 854 561 854 561 807.5 555 c 128,-1,17
 761 549 761 549 715 528 c 0,18,19
 681 513 681 513 659 494.5 c 128,-1,20
 637 476 637 476 618 446 c 0,21,22
 604 425 604 425 591.5 394.5 c 128,-1,23
 579 364 579 364 574 340 c 0,24,25
 572 333 572 333 570.5 316 c 128,-1,26
 569 299 569 299 568.5 284.5 c 128,-1,27
 568 270 568 270 569 269 c 256,28,29
 570 268 570 268 586 267 c 0,30,31
 648 266 648 266 711 260 c 128,-1,32
 774 254 774 254 816 245 c 0,33,34
 831 243 831 243 850.5 238 c 128,-1,35
 870 233 870 233 875 231 c 0,0,1
EndSplineSet
EndChar

StartChar: glyph30
Encoding: 65549 -1 30
Width: 1090
GlyphClass: 1
Flags: W
LayerCount: 2
Fore
SplineSet
249 147 m 256,0,1
 252 132 252 132 254 121 c 128,-1,2
 256 110 256 110 256 110 c 2,3,4
 257 110 257 110 271 113 c 0,5,6
 315 123 315 123 378.5 129.5 c 128,-1,7
 442 136 442 136 515.5 137 c 128,-1,8
 589 138 589 138 662 134 c 0,9,10
 745 130 745 130 814 116 c 0,11,12
 825 114 825 114 832.5 113 c 128,-1,13
 840 112 840 112 840 112 c 1,14,15
 840 113 840 113 842.5 125 c 128,-1,16
 845 137 845 137 847.5 152.5 c 128,-1,17
 850 168 850 168 851.5 180.5 c 128,-1,18
 853 193 853 193 853 194 c 0,19,20
 852 197 852 197 827 202 c 128,-1,21
 802 207 802 207 766.5 212 c 128,-1,22
 731 217 731 217 699 220 c 0,23,24
 648 224 648 224 587.5 225 c 128,-1,25
 527 226 527 226 468.5 224 c 128,-1,26
 410 222 410 222 364 217 c 0,27,28
 334 213 334 213 298.5 207 c 128,-1,29
 263 201 263 201 247 196 c 0,30,31
 241 194 241 194 242 189 c 0,32,33
 242 187 242 187 244 174.5 c 128,-1,34
 246 162 246 162 249 147 c 256,0,1
EndSplineSet
EndChar

StartChar: glyph31
Encoding: 65550 -1 31
Width: 1090
GlyphClass: 1
Flags: W
LayerCount: 2
Fore
SplineSet
245 7 m 0,0,1
 245 5 245 5 248 6 c 0,2,3
 265 12 265 12 301.5 18.5 c 128,-1,4
 338 25 338 25 371 28 c 0,5,6
 397 31 397 31 416.5 32.5 c 128,-1,7
 436 34 436 34 459.5 35 c 128,-1,8
 483 36 483 36 523 36 c 0,9,10
 626 37 626 37 699 31 c 128,-1,11
 772 25 772 25 831 11 c 0,12,13
 839 9 839 9 844.5 8 c 128,-1,14
 850 7 850 7 850 7 c 1,15,16
 850 8 850 8 846 23.5 c 128,-1,17
 842 39 842 39 838 54.5 c 128,-1,18
 834 70 834 70 833 70 c 0,19,20
 832 71 832 71 815 74.5 c 128,-1,21
 798 78 798 78 777 81 c 0,22,23
 718 90 718 90 644 94 c 128,-1,24
 570 98 570 98 494.5 96 c 128,-1,25
 419 94 419 94 356 86 c 0,26,27
 339 84 339 84 317.5 81 c 128,-1,28
 296 78 296 78 279.5 74.5 c 128,-1,29
 263 71 263 71 262 70 c 0,30,31
 261 70 261 70 257 54.5 c 128,-1,32
 253 39 253 39 249 23.5 c 128,-1,33
 245 8 245 8 245 7 c 0,0,1
EndSplineSet
EndChar

StartChar: glyph32
Encoding: 65551 -1 32
Width: 1090
GlyphClass: 1
Flags: W
LayerCount: 2
Fore
SplineSet
469 -91 m 1,0,-1
 469 -91 l 1,1,2
 533 -93 533 -93 603.5 -91 c 128,-1,3
 674 -89 674 -89 728 -82 c 0,4,5
 764 -77 764 -77 800 -69.5 c 128,-1,6
 836 -62 836 -62 855 -55 c 2,7,-1
 866 -51 l 1,8,-1
 845 -44 l 2,9,10
 768 -18 768 -18 650 -9 c 0,11,12
 636 -8 636 -8 608.5 -7.5 c 128,-1,13
 581 -7 581 -7 549 -7 c 128,-1,14
 517 -7 517 -7 489.5 -7.5 c 128,-1,15
 462 -8 462 -8 449 -9 c 0,16,17
 317 -19 317 -19 244 -47 c 2,18,-1
 231 -52 l 1,19,-1
 242 -56 l 2,20,21
 326 -84 326 -84 469 -91 c 1,0,-1
EndSplineSet
EndChar

StartChar: glyph33
Encoding: 65552 -1 33
Width: 1090
GlyphClass: 1
Flags: W
LayerCount: 2
Fore
SplineSet
248 712 m 1,0,-1
 248 649 l 1,1,-1
 548 649 l 1,2,-1
 847 649 l 1,3,-1
 847 712 l 1,4,-1
 847 774 l 1,5,-1
 808 774 l 1,6,-1
 769 774 l 1,7,-1
 769 739 l 1,8,-1
 769 703 l 1,9,-1
 677 703 l 1,10,-1
 586 703 l 1,11,-1
 586 739 l 1,12,-1
 586 774 l 1,13,-1
 548 774 l 1,14,-1
 509 774 l 1,15,-1
 509 739 l 1,16,-1
 509 703 l 1,17,-1
 418 703 l 1,18,-1
 326 703 l 1,19,-1
 326 739 l 1,20,-1
 326 774 l 1,21,-1
 287 774 l 1,22,-1
 248 774 l 1,23,-1
 248 712 l 1,0,-1
EndSplineSet
EndChar

StartChar: glyph34
Encoding: 65553 -1 34
Width: 1090
GlyphClass: 1
Flags: W
LayerCount: 2
Fore
SplineSet
322 585 m 1,0,-1
 356 559 l 1,1,-1
 426 559 l 2,2,3
 459 559 459 559 474 559 c 128,-1,4
 489 559 489 559 493.5 560 c 128,-1,5
 498 561 498 561 500 562 c 2,6,-1
 506 566 l 1,7,-1
 511 562 l 2,8,9
 513 561 513 561 519 560 c 128,-1,10
 525 559 525 559 548.5 559 c 128,-1,11
 572 559 572 559 626 559 c 2,12,-1
 738 559 l 1,13,-1
 773 585 l 1,14,-1
 808 610 l 1,15,-1
 678 611 l 2,16,17
 643 611 643 611 595.5 611 c 128,-1,18
 548 611 548 611 501 611 c 128,-1,19
 454 611 454 611 418 611 c 2,20,-1
 287 610 l 1,21,-1
 322 585 l 1,0,-1
EndSplineSet
EndChar

StartChar: glyph35
Encoding: 65554 -1 35
Width: 1090
GlyphClass: 1
Flags: W
LayerCount: 2
Fore
SplineSet
700 465 m 0,0,1
 714 460 714 460 715 460 c 0,2,3
 716 459 716 459 716 468.5 c 128,-1,4
 716 478 716 478 716 490 c 2,5,-1
 716 521 l 1,6,-1
 637 521 l 1,7,-1
 557 521 l 1,8,-1
 565 511 l 2,9,10
 573 500 573 500 576 494 c 2,11,-1
 580 488 l 1,12,-1
 609 484 l 2,13,14
 633 481 633 481 658 475.5 c 128,-1,15
 683 470 683 470 700 465 c 0,0,1
EndSplineSet
EndChar

StartChar: glyph36
Encoding: 65555 -1 36
Width: 1090
GlyphClass: 1
Flags: W
LayerCount: 2
Fore
SplineSet
379 486 m 1,0,-1
 379 451 l 1,1,-1
 382 453 l 2,2,3
 384 454 384 454 391.5 457 c 128,-1,4
 399 460 399 460 408 463 c 2,5,-1
 429 472 l 1,6,-1
 435 485 l 2,7,8
 442 500 442 500 453 517 c 2,9,-1
 456 521 l 1,10,-1
 417 521 l 1,11,-1
 379 521 l 1,12,-1
 379 486 l 1,0,-1
EndSplineSet
EndChar

StartChar: glyph37
Encoding: 65556 -1 37
Width: 1090
GlyphClass: 1
Flags: W
LayerCount: 2
Fore
SplineSet
473 -96 m 2,0,1
 476 -96 476 -96 512 -96.5 c 128,-1,2
 548 -97 548 -97 606 -97 c 128,-1,3
 664 -97 664 -97 732 -97 c 2,4,-1
 980 -97 l 1,5,-1
 979 -55 l 2,6,7
 977 -4 977 -4 973.5 26.5 c 128,-1,8
 970 57 970 57 960 94 c 0,9,10
 922 234 922 234 844 322 c 0,11,12
 808 363 808 363 750.5 395 c 128,-1,13
 693 427 693 427 628 442 c 0,14,15
 604 448 604 448 600.5 447.5 c 128,-1,16
 597 447 597 447 598 437 c 0,17,18
 600 426 600 426 600 408 c 0,19,20
 600 394 600 394 599.5 391 c 128,-1,21
 599 388 599 388 595 385 c 0,22,23
 589 378 589 378 576.5 379.5 c 128,-1,24
 564 381 564 381 561 389 c 0,25,26
 560 393 560 393 560 405 c 0,27,28
 560 448 560 448 535 484 c 0,29,30
 530 492 530 492 518.5 504.5 c 128,-1,31
 507 517 507 517 506 517 c 0,32,33
 504 517 504 517 493.5 503.5 c 128,-1,34
 483 490 483 490 478 482 c 0,35,36
 464 459 464 459 459 428 c 0,37,38
 457 412 457 412 453.5 408 c 128,-1,39
 450 404 450 404 439 404 c 0,40,41
 420 404 420 404 418 419 c 2,42,-1
 417 426 l 1,43,-1
 409 424 l 2,44,45
 401 421 401 421 384 414 c 0,46,47
 359 404 359 404 342 410 c 0,48,49
 332 413 332 413 321 410.5 c 128,-1,50
 310 408 310 408 287 397 c 0,51,52
 273 390 273 390 258 371.5 c 128,-1,53
 243 353 243 353 232 329 c 0,54,55
 227 320 227 320 226.5 315.5 c 128,-1,56
 226 311 226 311 226 297 c 0,57,58
 226 284 226 284 225 278.5 c 128,-1,59
 224 273 224 273 221 264 c 0,60,61
 217 251 217 251 211 241 c 0,62,63
 206 231 206 231 186.5 203.5 c 128,-1,64
 167 176 167 176 141 141 c 0,65,66
 116 107 116 107 107.5 93.5 c 128,-1,67
 99 80 99 80 95 65 c 0,68,69
 90 50 90 50 90 35 c 0,70,71
 90 -2 90 -2 108 -21 c 0,72,73
 125 -40 125 -40 143 -47 c 0,74,75
 171 -57 171 -57 195 -39 c 0,76,77
 201 -35 201 -35 210 -19 c 0,78,79
 219 -4 219 -4 224.5 1.5 c 128,-1,80
 230 7 230 7 236 7 c 0,81,82
 250 7 250 7 250 -6 c 0,83,84
 250 -16 250 -16 242.5 -32 c 128,-1,85
 235 -48 235 -48 224 -60 c 2,86,-1
 217 -69 l 1,87,-1
 221 -75 l 2,88,89
 236 -102 236 -102 263 -53 c 0,90,91
 279 -26 279 -26 291.5 -8 c 128,-1,92
 304 10 304 10 319 24 c 0,93,94
 370 76 370 76 443 104 c 0,95,96
 457 110 457 110 470 115.5 c 128,-1,97
 483 121 483 121 489 123 c 0,98,99
 541 147 541 147 565 196 c 0,100,101
 572 209 572 209 574 219 c 128,-1,102
 576 229 576 229 576 246 c 0,103,104
 576 262 576 262 578 266.5 c 128,-1,105
 580 271 580 271 588 273 c 0,106,107
 606 276 606 276 614 267 c 0,108,109
 617 263 617 263 618 260.5 c 128,-1,110
 619 258 619 258 619 249 c 0,111,112
 619 200 619 200 588 156 c 2,113,-1
 582 147 l 1,114,-1
 585 136 l 2,115,116
 588 126 588 126 589 104 c 128,-1,117
 590 82 590 82 587 70 c 0,118,119
 584 49 584 49 572.5 23.5 c 128,-1,120
 561 -2 561 -2 548 -18 c 0,121,122
 539 -30 539 -30 523 -45 c 128,-1,123
 507 -60 507 -60 490 -73 c 0,124,125
 472 -87 472 -87 467 -91 c 2,126,-1
 462 -96 l 1,127,-1
 473 -96 l 2,0,1
154 15 m 0,128,129
 149 12 149 12 140 12 c 128,-1,130
 131 12 131 12 128 15 c 0,131,132
 120 20 120 20 122 33 c 0,133,134
 126 57 126 57 143 73 c 0,135,136
 172 101 172 101 187 79 c 0,137,138
 195 68 195 68 185 59 c 0,139,140
 165 42 165 42 164 35 c 0,141,142
 161 24 161 24 159.5 21 c 128,-1,143
 158 18 158 18 154 15 c 0,128,129
288 241 m 0,144,145
 278 236 278 236 267 242 c 128,-1,146
 256 248 256 248 256 258 c 0,147,148
 256 264 256 264 263 277 c 128,-1,149
 270 290 270 290 278 300 c 0,150,151
 295 320 295 320 321 335 c 0,152,153
 330 340 330 340 343.5 345 c 128,-1,154
 357 350 357 350 362 350 c 0,155,156
 372 350 372 350 378.5 339.5 c 128,-1,157
 385 329 385 329 379 321 c 0,158,159
 377 317 377 317 367 312 c 2,160,-1
 357 307 l 1,161,-1
 360 302 l 2,162,163
 362 298 362 298 361.5 288.5 c 128,-1,164
 361 279 361 279 358 273 c 256,165,166
 355 267 355 267 349 262 c 0,167,168
 344 258 344 258 330 257 c 0,169,170
 317 257 317 257 311 259 c 0,171,172
 305 262 305 262 304 262 c 0,173,174
 302 262 302 262 297 252 c 0,175,176
 292 243 292 243 288 241 c 0,144,145
EndSplineSet
EndChar

StartChar: glyph38
Encoding: 65557 -1 38
Width: 1090
GlyphClass: 1
Flags: W
LayerCount: 2
Fore
SplineSet
369 -95 m 2,0,-1
 369 -106 l 1,1,-1
 672 -106 l 1,2,-1
 976 -106 l 1,3,-1
 977 -78 l 2,4,5
 977 -67 977 -67 977.5 -25.5 c 128,-1,6
 978 16 978 16 978 64 c 0,7,8
 978 110 978 110 977.5 138 c 128,-1,9
 977 166 977 166 976.5 183.5 c 128,-1,10
 976 201 976 201 974 214.5 c 128,-1,11
 972 228 972 228 969 245 c 0,12,13
 966 268 966 268 957.5 299.5 c 128,-1,14
 949 331 949 331 939 362 c 128,-1,15
 929 393 929 393 920 414 c 0,16,17
 879 510 879 510 823 567 c 0,18,19
 755 637 755 637 654 670 c 0,20,21
 636 676 636 676 617.5 680.5 c 128,-1,22
 599 685 599 685 598 684 c 256,23,24
 597 683 597 683 599 669 c 0,25,26
 601 653 601 653 600.5 638 c 128,-1,27
 600 623 600 623 598 618 c 0,28,29
 595 610 595 610 583.5 608 c 128,-1,30
 572 606 572 606 565 613 c 0,31,32
 562 616 562 616 561.5 620 c 128,-1,33
 561 624 561 624 560 640 c 0,34,35
 557 684 557 684 539 717 c 0,36,37
 531 732 531 732 519 746.5 c 128,-1,38
 507 761 507 761 504 759 c 0,39,40
 502 757 502 757 491.5 742.5 c 128,-1,41
 481 728 481 728 477 720 c 0,42,43
 465 696 465 696 460 665 c 0,44,45
 457 644 457 644 455 641 c 0,46,47
 452 636 452 636 443.5 634.5 c 128,-1,48
 435 633 435 633 428 637 c 0,49,50
 418 642 418 642 418 654 c 2,51,-1
 418 660 l 1,52,-1
 408 657 l 2,53,54
 399 653 399 653 379 643 c 0,55,56
 364 637 364 637 360 635.5 c 128,-1,57
 356 634 356 634 352 636 c 0,58,59
 338 640 338 640 338 656 c 0,60,61
 338 664 338 664 343 668.5 c 128,-1,62
 348 673 348 673 367 683 c 2,63,-1
 387 693 l 1,64,-1
 377 703 l 2,65,66
 348 730 348 730 319 749 c 0,67,68
 304 758 304 758 290.5 765.5 c 128,-1,69
 277 773 277 773 276 772 c 256,70,71
 275 771 275 771 277 756 c 0,72,73
 285 696 285 696 312 638 c 0,74,75
 316 629 316 629 319 621.5 c 128,-1,76
 322 614 322 614 323 612 c 0,77,78
 324 604 324 604 317.5 597 c 128,-1,79
 311 590 311 590 302 589 c 0,80,81
 291 587 291 587 281 606 c 0,82,83
 276 616 276 616 274 617 c 0,84,85
 273 618 273 618 263.5 606 c 128,-1,86
 254 594 254 594 248 584 c 0,87,88
 233 558 233 558 229 545 c 128,-1,89
 225 532 225 532 226 517 c 256,90,91
 227 502 227 502 223 487 c 256,92,93
 219 472 219 472 212.5 457.5 c 128,-1,94
 206 443 206 443 189.5 417 c 128,-1,95
 173 391 173 391 141 343 c 0,96,97
 124 316 124 316 114.5 301.5 c 128,-1,98
 105 287 105 287 101 277 c 128,-1,99
 97 267 97 267 94 256 c 0,100,101
 88 237 88 237 89.5 214.5 c 128,-1,102
 91 192 91 192 99 176 c 0,103,104
 104 166 104 166 117 154 c 128,-1,105
 130 142 130 142 140 137 c 0,106,107
 169 122 169 122 194 142 c 0,108,109
 200 147 200 147 210 165 c 0,110,111
 219 182 219 182 224 188.5 c 128,-1,112
 229 195 229 195 235 195 c 0,113,114
 246 195 246 195 249 184 c 0,115,116
 251 178 251 178 247 165 c 0,117,118
 239 140 239 140 225 120 c 0,119,120
 219 113 219 113 218.5 111 c 128,-1,121
 218 109 218 109 220 105 c 0,122,123
 222 99 222 99 225 96 c 0,124,125
 233 88 233 88 242.5 97 c 128,-1,126
 252 106 252 106 267 134 c 0,127,128
 282 164 282 164 295 183.5 c 128,-1,129
 308 203 308 203 323 219 c 128,-1,130
 338 235 338 235 360 253 c 0,131,132
 371 262 371 262 388 273.5 c 128,-1,133
 405 285 405 285 415 290 c 0,134,135
 420 292 420 292 432.5 297.5 c 128,-1,136
 445 303 445 303 457 309 c 0,137,138
 486 322 486 322 501 331 c 128,-1,139
 516 340 516 340 530 354 c 0,140,141
 551 376 551 376 564 402 c 0,142,143
 576 427 576 427 576 460 c 0,144,145
 576 481 576 481 578 484 c 0,146,147
 580 488 580 488 591 489.5 c 128,-1,148
 602 491 602 491 609 488 c 0,149,150
 615 484 615 484 617 478 c 128,-1,151
 619 472 619 472 618 455 c 0,152,153
 615 400 615 400 586 356 c 2,154,-1
 582 350 l 1,155,-1
 586 334 l 2,156,157
 589 320 589 320 589.5 298.5 c 128,-1,158
 590 277 590 277 587 264 c 0,159,160
 584 244 584 244 574.5 218.5 c 128,-1,161
 565 193 565 193 555 176 c 0,162,163
 544 160 544 160 528 142.5 c 128,-1,164
 512 125 512 125 483 99 c 0,165,166
 469 86 469 86 454.5 72.5 c 128,-1,167
 440 59 440 59 434 52 c 0,168,169
 369 -23 369 -23 369 -95 c 2,0,-1
152 202 m 256,170,171
 147 200 147 200 139 200 c 256,172,173
 131 200 131 200 126 204 c 0,174,175
 122 208 122 208 122 218 c 0,176,177
 122 250 122 250 149 274 c 0,178,179
 166 289 166 289 177 284 c 0,180,181
 191 277 191 277 191 263 c 0,182,183
 191 259 191 259 189.5 256.5 c 128,-1,184
 188 254 188 254 181 248 c 0,185,186
 166 235 166 235 163 222 c 0,187,188
 161 212 161 212 159 208 c 128,-1,189
 157 204 157 204 152 202 c 256,170,171
291 457 m 0,190,191
 285 451 285 451 273.5 453.5 c 128,-1,192
 262 456 262 456 258 464 c 0,193,194
 253 474 253 474 263 494 c 0,195,196
 275 519 275 519 295 538 c 0,197,198
 317 559 317 559 341 569 c 128,-1,199
 365 579 365 579 374 571 c 0,200,201
 382 564 382 564 382 552 c 0,202,203
 382 541 382 541 368 534 c 2,204,-1
 358 529 l 1,205,-1
 360 523 l 2,206,207
 364 514 364 514 361.5 500.5 c 128,-1,208
 359 487 359 487 351 480 c 0,209,210
 340 468 340 468 320 472 c 0,211,212
 311 474 311 474 308 476 c 256,213,214
 305 478 305 478 303.5 476.5 c 128,-1,215
 302 475 302 475 298 469 c 0,216,217
 295 461 295 461 291 457 c 0,190,191
EndSplineSet
EndChar

StartChar: glyph39
Encoding: 65558 -1 39
Width: 1090
GlyphClass: 1
Flags: W
LayerCount: 2
Fore
SplineSet
259 -90 m 2,0,-1
 261 -94 l 1,1,-1
 548 -94 l 1,2,-1
 834 -94 l 1,3,-1
 836 -90 l 2,4,5
 837 -87 837 -87 840 -70 c 0,6,7
 867 61 867 61 784 170 c 0,8,9
 776 179 776 179 760 195.5 c 128,-1,10
 744 212 744 212 735 220 c 0,11,12
 717 235 717 235 695.5 247.5 c 128,-1,13
 674 260 674 260 661 263 c 0,14,15
 645 267 645 267 638 273.5 c 128,-1,16
 631 280 631 280 628 294 c 0,17,18
 625 311 625 311 633 326 c 0,19,20
 640 338 640 338 659 348 c 0,21,22
 691 364 691 364 708 399 c 0,23,24
 720 422 720 422 720 451 c 128,-1,25
 720 480 720 480 709 503 c 0,26,27
 693 533 693 533 664 551 c 0,28,29
 645 564 645 564 619 569 c 0,30,31
 602 572 602 572 599 574 c 0,32,33
 586 580 586 580 583 596 c 0,34,35
 580 611 580 611 583 621 c 128,-1,36
 586 631 586 631 599 645 c 256,37,38
 612 659 612 659 618 672 c 0,39,40
 623 681 623 681 623.5 685 c 128,-1,41
 624 689 624 689 624 704 c 0,42,43
 624 718 624 718 623.5 723 c 128,-1,44
 623 728 623 728 620 734 c 0,45,46
 604 769 604 769 572 779 c 0,47,48
 565 782 565 782 560 782.5 c 128,-1,49
 555 783 555 783 544 782 c 0,50,51
 531 782 531 782 526.5 781 c 128,-1,52
 522 780 522 780 514 776 c 0,53,54
 490 764 490 764 478 740.5 c 128,-1,55
 466 717 466 717 470 692 c 0,56,57
 474 669 474 669 494 647 c 0,58,59
 505 636 505 636 508.5 628 c 128,-1,60
 512 620 512 620 512 610 c 0,61,62
 512 590 512 590 504 581 c 128,-1,63
 496 572 496 572 473 568 c 0,64,65
 458 565 458 565 448 561 c 0,66,67
 423 551 423 551 404 529.5 c 128,-1,68
 385 508 385 508 378 481 c 0,69,70
 375 469 375 469 375 451 c 128,-1,71
 375 433 375 433 378 423 c 0,72,73
 391 371 391 371 437 348 c 0,74,75
 456 338 456 338 464 323 c 0,76,77
 467 317 467 317 467.5 304 c 128,-1,78
 468 291 468 291 464 285 c 0,79,80
 456 267 456 267 435 263 c 0,81,82
 427 262 427 262 410 253 c 0,83,84
 324 208 324 208 280 120 c 0,85,86
 266 92 266 92 259 66.5 c 128,-1,87
 252 41 252 41 249 9 c 0,88,89
 248 -14 248 -14 249 -35 c 0,90,91
 251 -50 251 -50 254 -67 c 128,-1,92
 257 -84 257 -84 259 -90 c 2,0,-1
EndSplineSet
EndChar

StartChar: glyph40
Encoding: 65559 -1 40
Width: 1090
GlyphClass: 1
Flags: W
LayerCount: 2
Fore
SplineSet
65 648 m 0,0,1
 71 645 71 645 74.5 644.5 c 128,-1,2
 78 644 78 644 87 644 c 0,3,4
 123 646 123 646 123 682 c 0,5,6
 123 719 123 719 85 719 c 0,7,8
 48 719 48 719 48 682 c 0,9,10
 48 657 48 657 65 648 c 0,0,1
EndSplineSet
EndChar

StartChar: glyph41
Encoding: 65560 -1 41
Width: 1090
GlyphClass: 1
Flags: W
LayerCount: 2
Fore
SplineSet
285 710 m 0,0,1
 296 707 296 707 310 709.5 c 128,-1,2
 324 712 324 712 330 718 c 0,3,4
 336 725 336 725 337.5 740.5 c 128,-1,5
 339 756 339 756 335 766 c 0,6,7
 330 776 330 776 317 781 c 128,-1,8
 304 786 304 786 289 783 c 0,9,10
 274 779 274 779 266.5 764.5 c 128,-1,11
 259 750 259 750 264 732 c 0,12,13
 269 715 269 715 285 710 c 0,0,1
EndSplineSet
EndChar

StartChar: glyph42
Encoding: 65561 -1 42
Width: 1090
GlyphClass: 1
Flags: W
LayerCount: 2
Fore
SplineSet
529 741 m 0,0,1
 534 739 534 739 549 739 c 0,2,3
 559 739 559 739 562.5 740 c 128,-1,4
 566 741 566 741 571 744 c 0,5,6
 585 753 585 753 584 778 c 0,7,8
 584 789 584 789 583 792 c 128,-1,9
 582 795 582 795 579 800 c 0,10,11
 563 820 563 820 533 811 c 0,12,13
 518 807 518 807 512 793 c 128,-1,14
 506 779 506 779 512 760 c 0,15,16
 516 747 516 747 529 741 c 0,0,1
EndSplineSet
EndChar

StartChar: glyph43
Encoding: 65562 -1 43
Width: 1090
GlyphClass: 1
Flags: W
LayerCount: 2
Fore
SplineSet
779 710 m 0,0,1
 786 708 786 708 796 708 c 0,2,3
 829 711 829 711 831 742 c 0,4,5
 832 770 832 770 814 780 c 0,6,7
 807 783 807 783 793 783 c 0,8,9
 784 783 784 783 780.5 782.5 c 128,-1,10
 777 782 777 782 772 779 c 0,11,12
 756 770 756 770 756 746 c 0,13,14
 756 717 756 717 779 710 c 0,0,1
EndSplineSet
EndChar

StartChar: glyph44
Encoding: 65563 -1 44
Width: 1090
GlyphClass: 1
Flags: W
LayerCount: 2
Fore
SplineSet
989 648 m 0,0,1
 1010 638 1010 638 1030 648 c 0,2,3
 1047 657 1047 657 1047 682 c 0,4,5
 1047 721 1047 721 1006 719 c 0,6,7
 993 718 993 718 986 714 c 0,8,9
 972 704 972 704 972 682 c 0,10,11
 972 657 972 657 989 648 c 0,0,1
EndSplineSet
EndChar

StartChar: glyph45
Encoding: 65564 -1 45
Width: 1090
GlyphClass: 1
Flags: W
LayerCount: 2
Fore
SplineSet
230 286 m 0,0,1
 242 283 242 283 257 284 c 256,2,3
 272 285 272 285 276 286 c 0,4,5
 278 286 278 286 276 291 c 128,-1,6
 274 296 274 296 261.5 318 c 128,-1,7
 249 340 249 340 219 391 c 0,8,9
 195 434 195 434 177 464.5 c 128,-1,10
 159 495 159 495 158 495 c 1,11,12
 158 494 158 494 162.5 467 c 128,-1,13
 167 440 167 440 173 401 c 0,14,15
 188 308 188 308 190 306 c 0,16,17
 193 302 193 302 207 295.5 c 128,-1,18
 221 289 221 289 230 286 c 0,0,1
EndSplineSet
EndChar

StartChar: glyph46
Encoding: 65565 -1 46
Width: 1090
GlyphClass: 1
Flags: W
LayerCount: 2
Fore
SplineSet
334 446 m 0,0,1
 335 381 335 381 335 354.5 c 128,-1,2
 335 328 335 328 335.5 323.5 c 128,-1,3
 336 319 336 319 338 321 c 0,4,5
 341 325 341 325 346 331 c 0,6,7
 354 341 354 341 368.5 344 c 128,-1,8
 383 347 383 347 396 341 c 0,9,10
 405 337 405 337 411 331 c 0,11,12
 417 327 417 327 422.5 323.5 c 128,-1,13
 428 320 428 320 428 322 c 2,14,15
 428 322 428 322 421 340.5 c 128,-1,16
 414 359 414 359 403.5 388 c 128,-1,17
 393 417 393 417 381.5 449 c 128,-1,18
 370 481 370 481 359.5 509.5 c 128,-1,19
 349 538 349 538 342 556.5 c 128,-1,20
 335 575 335 575 335 575 c 257,21,22
 335 575 335 575 334.5 537.5 c 128,-1,23
 334 500 334 500 334 446 c 0,0,1
EndSplineSet
EndChar

StartChar: glyph47
Encoding: 65566 -1 47
Width: 1090
GlyphClass: 1
Flags: W
LayerCount: 2
Fore
SplineSet
590 329 m 0,0,1
 594 324 594 324 595 324 c 0,2,3
 596 325 596 325 588.5 369 c 128,-1,4
 581 413 581 413 561 523 c 0,5,6
 556 554 556 554 552 576.5 c 128,-1,7
 548 599 548 599 548 600 c 0,8,9
 548 602 548 602 547 601 c 0,10,11
 547 600 547 600 543.5 580 c 128,-1,12
 540 560 540 560 534.5 529 c 128,-1,13
 529 498 529 498 523 463.5 c 128,-1,14
 517 429 517 429 512 398.5 c 128,-1,15
 507 368 507 368 503.5 348.5 c 128,-1,16
 500 329 500 329 500 329 c 2,17,18
 501 328 501 328 504 332 c 0,19,20
 513 344 513 344 517.5 348 c 128,-1,21
 522 352 522 352 528 354 c 0,22,23
 537 359 537 359 550 358 c 0,24,25
 572 357 572 357 581 342 c 0,26,27
 585 335 585 335 590 329 c 0,0,1
EndSplineSet
EndChar

StartChar: glyph48
Encoding: 65567 -1 48
Width: 1090
GlyphClass: 1
Flags: W
LayerCount: 2
Fore
SplineSet
749 324 m 2,0,-1
 758 314 l 1,1,-1
 759 379 l 2,2,3
 759 406 759 406 759 444.5 c 128,-1,4
 759 483 759 483 759 510 c 2,5,-1
 758 575 l 1,6,-1
 712 448 l 2,7,8
 693 395 693 395 679.5 357.5 c 128,-1,9
 666 320 666 320 666 320 c 2,10,11
 669 317 669 317 685 331 c 0,12,13
 700 343 700 343 718 341 c 0,14,15
 735 340 735 340 749 324 c 2,0,-1
EndSplineSet
EndChar

StartChar: glyph49
Encoding: 65568 -1 49
Width: 1090
GlyphClass: 1
Flags: W
LayerCount: 2
Fore
SplineSet
820 282 m 0,0,1
 839 277 839 277 863 282 c 0,2,3
 873 284 873 284 888.5 292 c 128,-1,4
 904 300 904 300 906 303 c 0,5,6
 906 304 906 304 909.5 324 c 128,-1,7
 913 344 913 344 917.5 372 c 128,-1,8
 922 400 922 400 926.5 428 c 128,-1,9
 931 456 931 456 934 475.5 c 128,-1,10
 937 495 937 495 937 495 c 2,11,12
 936 496 936 496 924 475 c 128,-1,13
 912 454 912 454 893.5 423 c 128,-1,14
 875 392 875 392 857 361 c 128,-1,15
 839 330 839 330 826.5 308 c 128,-1,16
 814 286 814 286 813 285 c 0,17,18
 813 283 813 283 820 282 c 0,0,1
EndSplineSet
EndChar

StartChar: glyph50
Encoding: 65569 -1 50
Width: 1090
GlyphClass: 1
Flags: W
LayerCount: 2
Fore
SplineSet
250 149 m 0,0,1
 252 147 252 147 255 148 c 0,2,3
 305 159 305 159 351.5 165 c 128,-1,4
 398 171 398 171 451.5 173.5 c 128,-1,5
 505 176 505 176 574 175 c 0,6,7
 657 174 657 174 716.5 168.5 c 128,-1,8
 776 163 776 163 824 152 c 0,9,10
 842 148 842 148 843 148 c 256,11,12
 844 148 844 148 852 162.5 c 128,-1,13
 860 177 860 177 870.5 196 c 128,-1,14
 881 215 881 215 888.5 230 c 128,-1,15
 896 245 896 245 896 246 c 256,16,17
 896 247 896 247 887 244 c 0,18,19
 862 236 862 236 831 238 c 0,20,21
 770 241 770 241 728 285 c 0,22,23
 715 299 715 299 714 299 c 256,24,25
 713 299 713 299 705 294 c 0,26,27
 672 270 672 270 629 272 c 0,28,29
 589 275 589 275 559 302 c 2,30,-1
 547 314 l 1,31,-1
 537 306 l 2,32,33
 509 281 509 281 474 276 c 0,34,35
 426 270 426 270 388 297 c 2,36,-1
 381 302 l 1,37,-1
 369 290 l 2,38,39
 346 268 346 268 322 256 c 0,40,41
 305 248 305 248 290 245 c 128,-1,42
 275 242 275 242 252 242 c 0,43,44
 235 242 235 242 228 242.5 c 128,-1,45
 221 243 221 243 212 246 c 0,46,47
 197 250 197 250 197 249 c 2,48,49
 197 249 197 249 205 234 c 128,-1,50
 213 219 213 219 223 199.5 c 128,-1,51
 233 180 233 180 241 165 c 128,-1,52
 249 150 249 150 250 149 c 0,0,1
EndSplineSet
EndChar

StartChar: glyph51
Encoding: 65570 -1 51
Width: 1090
GlyphClass: 1
Flags: W
LayerCount: 2
Fore
SplineSet
250 -9 m 0,0,1
 250 -11 250 -11 253.5 -10.5 c 128,-1,2
 257 -10 257 -10 272 -7 c 0,3,4
 314 4 314 4 371 10 c 0,5,6
 401 14 401 14 422 15.5 c 128,-1,7
 443 17 443 17 471.5 17.5 c 128,-1,8
 500 18 500 18 549 18 c 0,9,10
 589 18 589 18 612.5 17.5 c 128,-1,11
 636 17 636 17 651 16.5 c 128,-1,12
 666 16 666 16 681 15 c 0,13,14
 724 11 724 11 758.5 6 c 128,-1,15
 793 1 793 1 828 -7 c 0,16,17
 843 -11 843 -11 843 -10 c 1,18,19
 844 -10 844 -10 841.5 -1 c 128,-1,20
 839 8 839 8 836 21 c 2,21,-1
 828 51 l 1,22,-1
 831 73 l 2,23,24
 834 96 834 96 833 99 c 128,-1,25
 832 102 832 102 818 105 c 0,26,27
 776 114 776 114 731 119 c 128,-1,28
 686 124 686 124 627 126 c 0,29,30
 532 130 532 130 440 124.5 c 128,-1,31
 348 119 348 119 283 106 c 0,32,33
 263 102 263 102 262 100 c 0,34,35
 260 99 260 99 263 75 c 2,36,-1
 266 51 l 1,37,-1
 259 22 l 2,38,39
 256 10 256 10 253.5 1 c 128,-1,40
 251 -8 251 -8 250 -9 c 0,0,1
EndSplineSet
EndChar

StartChar: glyph52
Encoding: 65571 -1 52
Width: 1090
GlyphClass: 1
Flags: W
LayerCount: 2
Fore
SplineSet
473 -106 m 256,0,1
 476 -106 476 -106 502.5 -106 c 128,-1,2
 529 -106 529 -106 564 -106 c 0,3,4
 620 -106 620 -106 661 -104 c 128,-1,5
 702 -102 702 -102 735 -97.5 c 128,-1,6
 768 -93 768 -93 801 -85 c 0,7,8
 814 -82 814 -82 834 -76 c 128,-1,9
 854 -70 854 -70 856 -68 c 0,10,11
 857 -67 857 -67 846 -63 c 128,-1,12
 835 -59 835 -59 820 -54.5 c 128,-1,13
 805 -50 805 -50 792 -47 c 0,14,15
 739 -34 739 -34 657 -27 c 0,16,17
 645 -26 645 -26 614.5 -25.5 c 128,-1,18
 584 -25 584 -25 548.5 -25 c 128,-1,19
 513 -25 513 -25 482.5 -25.5 c 128,-1,20
 452 -26 452 -26 440 -27 c 0,21,22
 328 -36 328 -36 263 -59 c 0,23,24
 242 -66 242 -66 240.5 -68 c 128,-1,25
 239 -70 239 -70 252 -73 c 0,26,27
 287 -84 287 -84 336 -92 c 128,-1,28
 385 -100 385 -100 440 -104 c 0,29,30
 451 -105 451 -105 460.5 -105.5 c 128,-1,31
 470 -106 470 -106 473 -106 c 256,0,1
EndSplineSet
EndChar

